<?xml version="1.0" standalone="no"?>
<!DOCTYPE svg PUBLIC "-//W3C//DTD SVG 1.1//EN" "http://www.w3.org/Graphics/SVG/1.1/DTD/svg11.dtd" >
<svg xmlns="http://www.w3.org/2000/svg" xmlns:xlink="http://www.w3.org/1999/xlink" version="1.1">
<metadata>
Created by FontForge 20190801 at Fri Jan 18 17:29:56 2019
 By Jimmy Wärting
Copyright (c) 2019 by Svet Simov. All rights reserved.
</metadata>
<defs>
<font id="Noah-ExtraBold" horiz-adv-x="0" >
  <font-face 
    font-family="Noah ExtraBold"
    font-weight="800"
    font-stretch="normal"
    units-per-em="1000"
    panose-1="0 0 9 0 0 0 0 0 0 0"
    ascent="800"
    descent="-200"
    x-height="448"
    cap-height="680"
    bbox="-400 -294 1263 978"
    underline-thickness="50"
    underline-position="-200"
    unicode-range="U+0020-FB02"
  />
<missing-glyph horiz-adv-x="467" 
d="M383 714v-934h-296v934h296zM311 651h-154v-30h61v-35h-62v-31h155v31h-62v35h62v30zM249 531h-93v-97h155v32h-62v65zM218 499v-33h-31v33h31zM311 409h-155v-31h62v-35h-62v-31h93v66h62v31zM311 353h-31v-62h-124v-32h155v94zM311 239h-93v-53h31v22h31v-44h-93v75
h-31v-106h155v106zM311 77h-155v-106h155v106zM280 46v-44h-93v44h93zM311 -50h-155v-31h65l-65 -44v-31h155v31h-95l65 44h30v31z" />
    <glyph glyph-name="fi" unicode="fi" horiz-adv-x="616" 
d="M559 448v-448h-136v334h-197v-334h-137v334h-74v114h74v81q0 102 55.5 154t152.5 52q120 0 219 -68l-46 -96q-68 42 -142 42q-103 0 -103 -94v-71h334z" />
    <glyph glyph-name="fl" unicode="fl" horiz-adv-x="608" 
d="M444 721h108v-721h-136v581q-47 32 -103 32q-88 0 -88 -88v-77h112v-114h-111v-334h-137v334h-74v114h74v92q0 94 52.5 144.5t141.5 50.5q86 0 152 -52z" />
    <glyph glyph-name="f_f" unicode="ff" horiz-adv-x="705" 
d="M643 613q-29 0 -46 -17.5t-17 -49.5v-98h112v-114h-111v-334h-136v334h-219v-334h-137v334h-74v114h74v108q0 84 45.5 131.5t123.5 47.5q63 0 123 -28l-36 -104q-27 10 -56 10t-46.5 -17.5t-17.5 -49.5v-98h220v108q0 84 45 131.5t122 47.5q72 0 134 -39l-45 -99
q-28 16 -58 16z" />
    <glyph glyph-name="f_f_i" unicode="ffi" horiz-adv-x="974" 
d="M918 448v-448h-137v334h-200v-334h-136v334h-219v-334h-137v334h-74v114h74v108q0 84 45.5 131.5t123.5 47.5q64 0 123 -28l-36 -104q-24 10 -55 10q-30 0 -47.5 -17.5t-17.5 -49.5v-98h220v82q0 102 55.5 153.5t155.5 51.5q116 0 204 -70l-46 -92q-62 40 -128 40
q-106 0 -106 -94v-71h338z" />
    <glyph glyph-name="f_f_l" unicode="ffl" horiz-adv-x="974" 
d="M810 721h108v-721h-137v577q-49 36 -112 36q-89 0 -89 -89v-76h108v-114h-107v-334h-136v334h-219v-334h-137v334h-74v114h74v108q0 84 45.5 131.5t123.5 47.5q63 0 123 -28l-36 -104q-27 10 -56 10t-46.5 -17.5t-17.5 -49.5v-98h220v91q0 94 52.5 145t143.5 51
q92 0 158 -57z" />
    <glyph glyph-name=".notdef" horiz-adv-x="467" 
d="M383 714v-934h-296v934h296zM311 651h-154v-30h61v-35h-62v-31h155v31h-62v35h62v30zM249 531h-93v-97h155v32h-62v65zM218 499v-33h-31v33h31zM311 409h-155v-31h62v-35h-62v-31h93v66h62v31zM311 353h-31v-62h-124v-32h155v94zM311 239h-93v-53h31v22h31v-44h-93v75
h-31v-106h155v106zM311 77h-155v-106h155v106zM280 46v-44h-93v44h93zM311 -50h-155v-31h65l-65 -44v-31h155v31h-95l65 44h30v31z" />
    <glyph glyph-name=".null" 
 />
    <glyph glyph-name="nonmarkingreturn" horiz-adv-x="333" 
 />
    <glyph glyph-name="space" unicode=" " horiz-adv-x="223" 
 />
    <glyph glyph-name="exclam" unicode="!" horiz-adv-x="283" 
d="M81 207l-17 473h155l-18 -473h-120zM142 -13q-35 0 -59.5 21t-24.5 60q0 40 24.5 61t59.5 21t59 -21t24 -61q0 -39 -24.5 -60t-58.5 -21z" />
    <glyph glyph-name="quotedbl" unicode="&#x22;" horiz-adv-x="381" 
d="M39 435v245h126l-22 -245h-104zM217 435v245h127l-23 -245h-104z" />
    <glyph glyph-name="numbersign" unicode="#" horiz-adv-x="581" 
d="M75 0l25 167h-73v105h88l17 114h-75v105h90l29 189h118l-29 -189h101l33 189h115l-30 -189h69v-105h-85l-17 -114h73v-105h-89l-24 -167h-117l24 167h-102l-24 -167h-117zM232 272h102l17 114h-102z" />
    <glyph glyph-name="dollar" unicode="$" horiz-adv-x="540" 
d="M235 -105v94q-120 10 -212 80l70 108q79 -65 183 -65q45 0 71 18t26 47q0 17 -9 32t-19 24.5t-35 22t-38.5 18t-47.5 19.5q-83 34 -129 80.5t-46 115.5q0 80 51 128.5t135 60.5v94h92v-94q89 -10 175 -67l-58 -108q-76 52 -155 52q-40 0 -66.5 -15.5t-26.5 -47.5
q0 -31 32.5 -52t101.5 -48q92 -37 140.5 -81t48.5 -123q0 -83 -52 -135.5t-140 -62.5v-95h-92z" />
    <glyph glyph-name="percent" unicode="%" horiz-adv-x="781" 
d="M186 379q-75 0 -118.5 45.5t-43.5 111.5t43.5 111.5t118.5 45.5t119 -45.5t44 -111.5q0 -65 -44 -111t-119 -46zM138 0l392 680h116l-391 -680h-117zM186 471q30 0 44 19t14 46t-14 46.5t-44 19.5q-29 0 -43.5 -19.5t-14.5 -46.5q0 -26 14.5 -45.5t43.5 -19.5zM595 -13
q-75 0 -118.5 45.5t-43.5 111.5t43.5 111.5t118.5 45.5t119 -45.5t44 -111.5t-44 -111.5t-119 -45.5zM595 78q30 0 44 19.5t14 46.5t-14 46t-44 19q-29 0 -43.5 -19.5t-14.5 -45.5q0 -27 14.5 -46.5t43.5 -19.5z" />
    <glyph glyph-name="ampersand" unicode="&#x26;" horiz-adv-x="632" 
d="M251 -13q-103 0 -159.5 48t-56.5 123q0 117 128 201q-71 79 -71 154q0 77 56 128.5t149 51.5q82 0 132 -46t50 -116q0 -57 -38.5 -101t-109.5 -89l110 -113q28 58 30 119h124q-2 -111 -67 -209l112 -120l-113 -39l-75 80q-89 -72 -201 -72zM259 424q32 18 49.5 30.5
t32 31.5t14.5 41t-17 37.5t-47 15.5q-35 0 -53.5 -20t-18.5 -48q0 -39 40 -88zM260 104q60 0 110 43l-127 126q-68 -39 -68 -100q0 -30 23 -49.5t62 -19.5z" />
    <glyph glyph-name="quotesingle" unicode="'" horiz-adv-x="203" 
d="M39 435v245h126l-22 -245h-104z" />
    <glyph glyph-name="parenleft" unicode="(" horiz-adv-x="325" 
d="M225 -193q-76 85 -120.5 210.5t-44.5 268.5t44.5 268.5t120.5 210.5l79 -65q-58 -76 -90 -184.5t-32 -229.5t32 -229.5t90 -184.5z" />
    <glyph glyph-name="parenright" unicode=")" horiz-adv-x="325" 
d="M100 765q75 -85 119.5 -210.5t44.5 -268.5t-44.5 -268.5t-119.5 -210.5l-80 65q58 76 90 184t32 230t-32 230t-90 184z" />
    <glyph glyph-name="asterisk" unicode="*" horiz-adv-x="350" 
d="M111 373l-68 52l69 84l-97 25l27 81l95 -37l-5 102h86l-5 -102l96 37l27 -81l-97 -25l69 -84l-69 -52l-64 93z" />
    <glyph glyph-name="plus" unicode="+" horiz-adv-x="540" 
d="M214 125v158h-157v109h157v158h113v-158h156v-109h-156v-158h-113z" />
    <glyph glyph-name="comma" unicode="," horiz-adv-x="275" 
d="M136 150q39 0 62 -25.5t23 -73.5q0 -62 -31.5 -117.5t-88.5 -94.5l-33 34q63 53 75 114h-7q-34 0 -58 21t-24 60q0 40 24.5 61t57.5 21z" />
    <glyph glyph-name="hyphen" unicode="-" horiz-adv-x="395" 
d="M48 166v117h299v-117h-299z" />
    <glyph glyph-name="period" unicode="." horiz-adv-x="275" 
d="M137 -13q-34 0 -58.5 21t-24.5 60q0 40 24.5 61t58.5 21q35 0 59.5 -21t24.5 -61q0 -39 -24.5 -60t-59.5 -21z" />
    <glyph glyph-name="slash" unicode="/" horiz-adv-x="407" 
d="M119 -13h-96l265 706h96z" />
    <glyph glyph-name="zero" unicode="0" horiz-adv-x="586" 
d="M293 -13q-117 0 -184 92t-67 252t67 251.5t184 91.5q118 0 184.5 -91.5t66.5 -251.5t-67 -252t-184 -92zM293 112q52 0 77.5 59t25.5 160t-25.5 159.5t-77.5 58.5q-51 0 -77 -58.5t-26 -159.5t26 -160t77 -59z" />
    <glyph glyph-name="one" unicode="1" horiz-adv-x="396" 
d="M225 665h97v-665h-148v435q0 17 2 51q-9 -6 -21 -12l-86 -48l-58 106z" />
    <glyph glyph-name="two" unicode="2" horiz-adv-x="502" 
d="M300 125h172v-125h-441v63l227 299q51 69 51 110q0 30 -19.5 49.5t-51.5 19.5q-59 0 -114 -71l-95 71q84 133 225 133q92 0 148.5 -54t56.5 -132q0 -49 -20 -91.5t-71 -108.5l-93 -122q-19 -25 -36 -43q23 2 61 2z" />
    <glyph glyph-name="three" unicode="3" horiz-adv-x="544" 
d="M252 -13q-132 0 -230 98l77 90q65 -63 144 -63q53 0 84.5 24.5t31.5 63.5q0 43 -33 63.5t-81 20.5h-87v114h72q50 0 78 23.5t28 56.5q0 32 -25 52.5t-66 20.5q-70 0 -132 -60l-79 77q95 106 230 106q94 0 154 -50t60 -126q0 -45 -23.5 -84.5t-66.5 -62.5q59 -23 89 -67
t30 -99q0 -87 -71 -142.5t-184 -55.5z" />
    <glyph glyph-name="four" unicode="4" horiz-adv-x="544" 
d="M453 229h73v-115h-73v-114h-135v114h-303v91l340 460h98v-436zM321 228v132q0 54 3 83q-14 -24 -38 -58l-82 -113l-35 -45q21 1 62 1h90z" />
    <glyph glyph-name="five" unicode="5" horiz-adv-x="500" 
d="M242 423q104 0 167 -56.5t63 -155.5q0 -100 -69 -162.5t-182 -62.5q-125 0 -209 82l67 105q53 -55 131 -55q54 0 84 26.5t30 71.5q0 50 -36 75.5t-99 25.5q-54 0 -104 -16l-20 11l35 349h349v-125h-231l-14 -115q26 2 38 2z" />
    <glyph glyph-name="six" unicode="6" horiz-adv-x="541" 
d="M307 415q89 0 146.5 -54.5t57.5 -149.5q0 -101 -63 -162.5t-166 -61.5q-119 0 -180 74t-61 193v9q0 180 97 290.5t285 120.5l17 -119q-105 -7 -169.5 -54t-82.5 -126q46 40 119 40zM278 112q41 0 67 26t26 68q0 44 -26 68.5t-66 24.5q-43 0 -69 -25t-26 -69
q0 -42 26 -67.5t68 -25.5z" />
    <glyph glyph-name="seven" unicode="7" horiz-adv-x="461" 
d="M15 661h432v-60l-220 -601h-150l174 475q10 30 24 63q-44 -2 -73 -2h-187v125z" />
    <glyph glyph-name="eight" unicode="8" horiz-adv-x="567" 
d="M283 -13q-114 0 -180 53t-66 144q0 57 33 101.5t87 61.5q-44 15 -71 53.5t-27 89.5q0 82 61.5 133t163.5 51q101 0 162.5 -51t61.5 -133q0 -49 -26 -85.5t-70 -57.5q52 -19 85 -63.5t33 -100.5q0 -91 -66 -143.5t-181 -52.5zM284 405q39 0 62.5 21.5t23.5 56.5t-23.5 55
t-62.5 20t-63 -20t-24 -55t23.5 -56.5t63.5 -21.5zM283 110q44 0 72 23t28 66q0 40 -27.5 65.5t-72.5 25.5t-72.5 -26t-27.5 -65q0 -42 28.5 -65.5t71.5 -23.5z" />
    <glyph glyph-name="nine" unicode="9" horiz-adv-x="543" 
d="M259 674q122 0 182.5 -76t60.5 -197q0 -182 -96 -293t-286 -121l-18 120q105 7 170 54t83 125q-45 -39 -124 -39q-85 0 -142 54.5t-57 150.5q0 99 62.5 160.5t164.5 61.5zM264 363q43 0 69 24.5t26 68.5q0 41 -26.5 67t-68.5 26q-40 0 -66 -26t-26 -68q0 -43 26.5 -67.5
t65.5 -24.5z" />
    <glyph glyph-name="colon" unicode=":" horiz-adv-x="269" 
d="M134 290q-33 0 -56.5 20.5t-23.5 58.5t23.5 58.5t56.5 20.5t57 -20.5t24 -58.5t-24 -58.5t-57 -20.5zM134 -13q-33 0 -56.5 20t-23.5 59q0 37 23.5 57.5t56.5 20.5t57 -20.5t24 -57.5q0 -39 -24 -59t-57 -20z" />
    <glyph glyph-name="semicolon" unicode=";" horiz-adv-x="276" 
d="M134 292q-32 0 -56 20.5t-24 57.5q0 38 24 58t56 20q34 0 57.5 -20t23.5 -58q0 -37 -24 -57.5t-57 -20.5zM136 147q38 0 61.5 -25t23.5 -71q0 -62 -31.5 -117.5t-88.5 -94.5l-33 34q63 53 75 114h-7q-34 0 -58 21t-24 59t24.5 59t57.5 21z" />
    <glyph glyph-name="less" unicode="&#x3c;" horiz-adv-x="431" 
d="M384 140l-350 153v114l350 153v-127l-204 -83l204 -83v-127z" />
    <glyph glyph-name="equal" unicode="=" horiz-adv-x="498" 
d="M57 381v111h384v-111h-384zM57 188v111h384v-111h-384z" />
    <glyph glyph-name="greater" unicode="&#x3e;" horiz-adv-x="431" 
d="M47 140v127l204 83l-204 83v127l351 -153v-114z" />
    <glyph glyph-name="question" unicode="?" horiz-adv-x="490" 
d="M151 206q-1 10 -1 28q0 44 14 80.5t28 54t39 41.5q24 22 34.5 33.5t20.5 29t10 34.5q0 26 -20.5 44t-56.5 18q-63 -1 -107 -55l-79 88q83 91 205 91q91 0 148.5 -49.5t57.5 -119.5q0 -27 -7.5 -50t-26 -46t-29.5 -34t-38 -36q-33 -31 -48.5 -59t-15.5 -73q0 -13 1 -20
h-129zM217 -13q-35 0 -59.5 21t-24.5 60q0 40 24.5 61t59.5 21t59 -21t24 -61q0 -39 -24.5 -60t-58.5 -21z" />
    <glyph glyph-name="at" unicode="@" horiz-adv-x="824" 
d="M378 -145q-147 0 -242 95t-95 248q0 187 119.5 311t300.5 124q134 0 228 -82t94 -234q0 -109 -46.5 -183.5t-132.5 -74.5q-69 0 -90 64q-16 -28 -52.5 -48.5t-80.5 -20.5q-65 0 -104 43t-39 110q0 96 61 160.5t159 64.5q73 0 136 -40l-19 -198q0 -3 -0.5 -7.5t-0.5 -6.5
q0 -46 34 -46q43 0 65 53.5t22 119.5q0 118 -65.5 180t-167.5 62q-143 0 -237 -101.5t-94 -245.5q0 -117 70.5 -190.5t181.5 -73.5q78 0 140 31l31 -74q-89 -40 -176 -40zM394 128q39 0 68.5 30t34.5 84l10 101q-30 11 -58 11q-54 0 -89.5 -41.5t-35.5 -101.5
q0 -36 19 -59.5t51 -23.5z" />
    <glyph glyph-name="A" unicode="A" horiz-adv-x="690" 
d="M368 683l322 -680v-3h-156l-46 106h-285l-47 -106h-156v3l323 680h45zM345 453q-23 -68 -48 -125l-50 -112h196l-50 112q-28 68 -48 125z" />
    <glyph glyph-name="B" unicode="B" horiz-adv-x="624" 
d="M479 353q50 -21 79 -65t29 -102q0 -84 -59.5 -135t-154.5 -51h-299v680h279q94 0 151.5 -49t57.5 -130q0 -99 -83 -148zM221 563v-158h103q43 0 66 21.5t23 59.5q0 36 -24.5 56.5t-65.5 20.5h-102zM343 117q44 0 69.5 23.5t25.5 63.5q0 39 -25.5 62.5t-67.5 23.5h-124
v-173h122z" />
    <glyph glyph-name="C" unicode="C" horiz-adv-x="690" 
d="M394 -14q-157 0 -255 102t-98 252q0 154 101 254t257 100q146 0 257 -94l-74 -104q-74 64 -177 64q-95 0 -153.5 -61t-58.5 -159q0 -96 57 -158t148 -62q114 0 185 85l89 -99q-112 -120 -278 -120z" />
    <glyph glyph-name="D" unicode="D" horiz-adv-x="719" 
d="M74 0v680h256q154 0 250.5 -96t96.5 -245t-95.5 -244t-250.5 -95h-257zM222 125h101q96 0 150 58.5t54 155.5t-55 156.5t-150 59.5h-100v-430z" />
    <glyph glyph-name="E" unicode="E" horiz-adv-x="563" 
d="M222 129h300v-129h-448v680h439v-129h-291v-145h254v-125h-254v-152z" />
    <glyph glyph-name="F" unicode="F" horiz-adv-x="541" 
d="M74 0v680h435v-137h-287v-160h255v-133h-255v-250h-148z" />
    <glyph glyph-name="G" unicode="G" horiz-adv-x="732" 
d="M390 391h294v-284q-110 -121 -287 -121q-158 0 -257 101t-99 253q0 153 99.5 253.5t261.5 100.5q157 0 267 -105l-77 -99q-78 72 -182 72q-98 0 -158 -61t-60 -161q0 -103 60 -163t157 -60q87 0 146 51v105h-165v118z" />
    <glyph glyph-name="H" unicode="H" horiz-adv-x="726" 
d="M74 0v680h148v-270h282v270h148v-680h-148v274h-282v-274h-148z" />
    <glyph glyph-name="I" unicode="I" horiz-adv-x="296" 
d="M74 0v680h148v-680h-148z" />
    <glyph glyph-name="J" unicode="J" horiz-adv-x="495" 
d="M202 -14q-117 0 -199 64l67 110q58 -43 118 -43q96 0 96 107v456h149v-455q0 -119 -59.5 -179t-171.5 -60z" />
    <glyph glyph-name="K" unicode="K" horiz-adv-x="620" 
d="M357 345l258 -341v-4h-169l-224 294v-294h-148v680h148v-295l207 295h164v-4z" />
    <glyph glyph-name="L" unicode="L" horiz-adv-x="519" 
d="M74 0v680h148v-543h275v-137h-423z" />
    <glyph glyph-name="M" unicode="M" horiz-adv-x="850" 
d="M715 684l102 -684h-146l-46 315q-6 37 -9 67q-14 -24 -41 -63l-136 -198h-29l-135 198q-28 41 -42 67q-3 -31 -9 -72l-45 -314h-146l102 684h44l203 -298q23 -34 43 -69q20 35 43 69l203 298h44z" />
    <glyph glyph-name="N" unicode="N" horiz-adv-x="742" 
d="M522 680h146v-683h-55l-338 349q-29 29 -59 62q4 -54 4 -76v-332h-146v683h53l321 -333q37 -37 76 -79q-2 36 -2 100v309z" />
    <glyph glyph-name="O" unicode="O" horiz-adv-x="802" 
d="M401 -14q-158 0 -259 100.5t-101 253.5q0 155 100.5 254.5t259.5 99.5q160 0 260 -99.5t100 -254.5q0 -153 -100.5 -253.5t-259.5 -100.5zM401 120q94 0 151 63t57 157q0 96 -56.5 158t-151.5 62t-151.5 -62t-56.5 -158q0 -94 57 -157t151 -63z" />
    <glyph glyph-name="P" unicode="P" horiz-adv-x="601" 
d="M74 0v680h268q106 0 170.5 -65.5t64.5 -160.5t-63.5 -158.5t-172.5 -63.5h-119v-232h-148zM222 356h98q53 0 80.5 28t27.5 70q0 44 -28.5 72t-77.5 28h-100v-198z" />
    <glyph glyph-name="Q" unicode="Q" horiz-adv-x="802" 
d="M762 -11l-93 -99l-139 117q-58 -21 -129 -21q-158 0 -259 100.5t-101 253.5q0 155 100.5 254.5t259.5 99.5q160 0 260 -99.5t100 -254.5q0 -160 -107 -259zM193 340q0 -94 57 -157t151 -63t151 63t57 157q0 96 -56.5 158t-151.5 62t-151.5 -62t-56.5 -158z" />
    <glyph glyph-name="R" unicode="R" horiz-adv-x="627" 
d="M443 263l165 -260v-3h-168l-142 243h-76v-243h-148v680h273q107 0 173.5 -62t66.5 -157q0 -68 -38.5 -120.5t-105.5 -77.5zM222 362h108q50 0 78.5 26t28.5 70q0 42 -29 69.5t-77 27.5h-109v-193z" />
    <glyph glyph-name="S" unicode="S" horiz-adv-x="578" 
d="M294 -14q-145 0 -258 84l66 114q84 -68 186 -68q47 0 77.5 18.5t30.5 52.5q0 35 -34 56t-102 43q-200 62 -200 211q0 91 69 144t171 53q119 0 228 -69l-62 -109q-84 49 -160 49q-42 0 -69 -16.5t-27 -45.5q0 -33 33.5 -53.5t93.5 -39.5q100 -32 154.5 -83t54.5 -132
q0 -96 -71 -152.5t-181 -56.5z" />
    <glyph glyph-name="T" unicode="T" horiz-adv-x="554" 
d="M535 680v-137h-184v-543h-149v543h-183v137h516z" />
    <glyph glyph-name="U" unicode="U" horiz-adv-x="683" 
d="M342 -14q-127 0 -203.5 68.5t-76.5 188.5v437h149v-424q0 -66 35 -101t96 -35t96 35t35 101v424h148v-437q0 -120 -76.5 -188.5t-202.5 -68.5z" />
    <glyph glyph-name="V" unicode="V" horiz-adv-x="700" 
d="M534 680h163v-2l-325 -681h-44l-325 680v3h165l145 -320q19 -45 38 -97q16 47 39 99z" />
    <glyph glyph-name="W" unicode="W" horiz-adv-x="967" 
d="M803 680h155v-3l-243 -680h-43l-160 323q-17 36 -29 68q-12 -35 -29 -68l-159 -323h-44l-242 680v3h158l104 -311q21 -64 27 -92q14 41 39 91l128 267h36l126 -258q24 -50 43 -97q8 30 30 94z" />
    <glyph glyph-name="X" unicode="X" horiz-adv-x="660" 
d="M7 0v2l232 349l-213 327v2h170l82 -131q30 -47 53 -91q21 43 53 93l81 129h169v-2l-214 -327l233 -349v-2h-172l-99 154q-30 48 -52 89q-22 -41 -52 -89l-100 -154h-171z" />
    <glyph glyph-name="Y" unicode="Y" horiz-adv-x="657" 
d="M479 680h167v-3l-244 -389v-288h-148v288l-243 389v3h167l104 -175q27 -46 47 -92q15 39 45 92z" />
    <glyph glyph-name="Z" unicode="Z" horiz-adv-x="578" 
d="M31 0v44l259 430q37 61 43 70q-24 -1 -72 -1h-214v137h498v-44l-265 -439q-6 -11 -37 -61q23 1 64 1h239v-137h-515z" />
    <glyph glyph-name="bracketleft" unicode="[" horiz-adv-x="285" 
d="M57 -187v946h198v-111h-77v-724h77v-111h-198z" />
    <glyph glyph-name="backslash" unicode="\" horiz-adv-x="407" 
d="M287 -13l-264 706h96l265 -706h-97z" />
    <glyph glyph-name="bracketright" unicode="]" horiz-adv-x="285" 
d="M228 -187h-199v111h78v724h-78v111h199v-946z" />
    <glyph glyph-name="asciicircum" unicode="^" horiz-adv-x="496" 
d="M22 325l176 355h97l180 -355h-140l-88 184l-87 -184h-138z" />
    <glyph glyph-name="underscore" unicode="_" horiz-adv-x="489" 
d="M37 -129v104h415v-104h-415z" />
    <glyph glyph-name="grave" unicode="`" horiz-adv-x="324" 
d="M222 509l-168 102l72 83l147 -127z" />
    <glyph glyph-name="a" unicode="a" horiz-adv-x="487" 
d="M244 458q93 0 143.5 -43.5t50.5 -129.5v-285h-89l-25 63q-55 -73 -156 -73q-61 0 -99.5 33t-38.5 92q0 76 61 117t167 41q20 0 42 -2v18q0 58 -80 58q-59 0 -135 -36l-37 98q104 49 196 49zM213 83q39 0 65.5 29t27.5 81q-22 3 -45 3q-47 0 -74 -17t-27 -49q0 -47 53 -47
z" />
    <glyph glyph-name="b" unicode="b" horiz-adv-x="572" 
d="M328 459q92 0 151.5 -65t59.5 -167q0 -107 -58.5 -173t-153.5 -66q-98 0 -155 74l-24 -62h-91v721h136v-187q0 -65 -3 -131q54 56 138 56zM295 104q48 0 77 33t29 87t-29 86.5t-77 32.5t-77.5 -32.5t-29.5 -86.5q0 -55 29 -87.5t78 -32.5z" />
    <glyph glyph-name="c" unicode="c" horiz-adv-x="464" 
d="M268 -14q-97 0 -167.5 63t-70.5 175q0 107 69 172t171 65t171 -60l-61 -90q-41 34 -95 34q-51 0 -84 -33t-33 -88q0 -56 33 -88.5t82 -32.5q57 0 102 42l68 -87q-76 -72 -185 -72z" />
    <glyph glyph-name="d" unicode="d" horiz-adv-x="572" 
d="M379 721h137v-721h-92l-24 62q-57 -74 -156 -74q-94 0 -152 66t-58 173q0 102 59 167t151 65q84 0 138 -56q-3 67 -3 131v187zM277 104q49 0 78 32.5t29 87.5q0 54 -29 86.5t-78 32.5q-48 0 -77 -32.5t-29 -86.5t29 -87t77 -33z" />
    <glyph glyph-name="e" unicode="e" horiz-adv-x="504" 
d="M266 461q96 0 151.5 -59.5t55.5 -161.5q0 -31 -4 -58h-303q22 -90 131 -90q67 0 111 36l48 -85q-78 -57 -176 -57q-113 0 -181.5 66t-68.5 173q0 100 66 168t170 68zM263 356q-38 0 -64.5 -23.5t-34.5 -67.5h183q-1 44 -24 67.5t-60 23.5z" />
    <glyph glyph-name="f" unicode="f" horiz-adv-x="351" 
d="M91 0v334h-76v114h76v108q0 84 45 131.5t123 47.5q72 0 133 -39l-45 -99q-26 16 -58 16q-28 0 -45 -17.5t-17 -49.5v-98h111v-114h-111v-334h-136z" />
    <glyph glyph-name="g" unicode="g" horiz-adv-x="572" 
d="M427 448h89v-458q0 -108 -65 -165.5t-181 -57.5q-114 0 -203 60l42 105q66 -45 149 -45q58 0 89 25.5t31 73.5q0 40 1 60q-55 -54 -137 -54q-92 0 -150 64.5t-58 168.5t58.5 169.5t149.5 65.5q104 0 160 -78zM277 106q50 0 78.5 32.5t28.5 86.5t-28.5 86.5t-78.5 32.5
q-48 0 -76.5 -32.5t-28.5 -86.5t28.5 -86.5t76.5 -32.5z" />
    <glyph glyph-name="h" unicode="h" horiz-adv-x="529" 
d="M321 461q77 0 117 -46.5t40 -129.5v-285h-136v268q0 72 -64 72q-41 0 -63 -28.5t-22 -73.5v-238h-136v721h136v-259q0 -38 -2 -65q46 64 130 64z" />
    <glyph glyph-name="i" unicode="i" horiz-adv-x="249" 
d="M125 527q-36 0 -57.5 21.5t-21.5 53.5t21 53.5t58 21.5t58 -21.5t21 -53.5t-21 -53.5t-58 -21.5zM57 0v448h136v-448h-136z" />
    <glyph glyph-name="j" unicode="j" horiz-adv-x="254" 
d="M128 527q-36 0 -57.5 21.5t-21.5 53.5t21.5 53.5t57.5 21.5q37 0 58.5 -21t21.5 -54q0 -32 -21.5 -53.5t-58.5 -21.5zM-32 -233l-17 116q63 4 86.5 33t23.5 94v438h136v-443q0 -116 -52 -174t-177 -64z" />
    <glyph glyph-name="k" unicode="k" horiz-adv-x="486" 
d="M307 231l174 -225v-6h-152l-136 179v-179h-136v721h136v-438l126 165h150v-6z" />
    <glyph glyph-name="l" unicode="l" horiz-adv-x="250" 
d="M57 0v721h136v-721h-136z" />
    <glyph glyph-name="m" unicode="m" horiz-adv-x="790" 
d="M590 461q71 0 110 -45t39 -124v-292h-136v272q0 32 -16 50t-43 18q-38 0 -58 -27.5t-20 -67.5v-245h-136v272q0 30 -15.5 49t-43.5 19q-38 0 -58 -27.5t-20 -67.5v-245h-136v448h88l27 -71q51 84 142 84q96 0 134 -77q47 77 142 77z" />
    <glyph glyph-name="n" unicode="n" horiz-adv-x="529" 
d="M322 461q76 0 116 -46t40 -130v-285h-136v266q0 74 -63 74q-40 0 -63 -25.5t-23 -67.5v-247h-136v448h88l27 -72q52 85 150 85z" />
    <glyph glyph-name="o" unicode="o" horiz-adv-x="552" 
d="M276 -14q-109 0 -177.5 66.5t-68.5 171.5t69 171t177 66t177 -66.5t69 -170.5q0 -105 -69 -171.5t-177 -66.5zM276 104q48 0 78 33t30 87q0 53 -30 86.5t-78 33.5t-78 -33.5t-30 -86.5q0 -54 30 -87t78 -33z" />
    <glyph glyph-name="p" unicode="p" horiz-adv-x="572" 
d="M329 459q91 0 150 -66t59 -166q0 -106 -58 -172.5t-150 -66.5q-85 0 -139 56q2 -60 2 -94v-170h-136v668h88l26 -70q57 81 158 81zM296 104q47 0 75.5 33t28.5 87t-28.5 86.5t-75.5 32.5q-49 0 -79 -32.5t-30 -85.5q0 -54 30.5 -87.5t78.5 -33.5z" />
    <glyph glyph-name="q" unicode="q" horiz-adv-x="572" 
d="M426 448h89v-668h-136v170q0 35 2 95q-55 -57 -139 -57q-92 0 -150 66.5t-58 172.5q0 100 59 166t150 66q99 0 157 -80zM276 104q48 0 78 33.5t30 87.5q0 53 -29.5 85.5t-78.5 32.5q-47 0 -76 -32.5t-29 -86.5t29 -87t76 -33z" />
    <glyph glyph-name="r" unicode="r" horiz-adv-x="384" 
d="M303 458q45 0 79 -21l-33 -113q-27 11 -60 11q-44 0 -70 -27t-26 -75v-233h-136v448h88l27 -70q40 80 131 80z" />
    <glyph glyph-name="s" unicode="s" horiz-adv-x="400" 
d="M202 -11q-100 0 -179 50l47 90q59 -36 119 -36q25 0 39.5 9.5t14.5 26.5q0 18 -19 30t-59 27q-60 22 -90.5 54.5t-30.5 83.5q0 63 47 98t119 35q80 0 153 -40l-43 -88q-52 26 -97 26q-52 0 -52 -31q0 -17 18 -29t58 -27q130 -46 130 -139q0 -65 -47.5 -102.5
t-127.5 -37.5z" />
    <glyph glyph-name="t" unicode="t" horiz-adv-x="385" 
d="M236 -11q-66 0 -106 39.5t-40 114.5v191l-74 7v107h74l6 141h131v-141h129v-114h-129v-172q0 -50 45 -50q34 0 67 20l40 -102q-68 -41 -143 -41z" />
    <glyph glyph-name="u" unicode="u" horiz-adv-x="527" 
d="M334 448h137v-448h-92l-28 67q-51 -77 -141 -77q-78 0 -118.5 47t-40.5 130v281h136v-263q0 -74 64 -74q40 0 61.5 28.5t21.5 71.5v237z" />
    <glyph glyph-name="v" unicode="v" horiz-adv-x="504" 
d="M349 448h150v-3l-217 -448h-60l-217 448v3h152l67 -158q18 -50 29 -93q11 43 29 93z" />
    <glyph glyph-name="w" unicode="w" horiz-adv-x="685" 
d="M533 448h144v-3l-176 -448h-42l-116 220l-117 -220h-42l-175 448v3h145l60 -170q7 -18 14 -47q8 16 25 49l76 144h28l75 -143q15 -27 26 -53q8 31 16 52z" />
    <glyph glyph-name="x" unicode="x" horiz-adv-x="485" 
d="M12 0v3l141 228l-129 214v3h148l47 -85q15 -30 24 -50q4 10 25 51l46 84h147v-3l-129 -214l141 -228v-3h-151l-52 94q-12 21 -27 57q-20 -41 -29 -57l-53 -94h-149z" />
    <glyph glyph-name="y" unicode="y" horiz-adv-x="509" 
d="M359 448h144v-3l-257 -665h-146v3l98 225l-191 437v3h149l78 -199q19 -49 28 -89q10 42 26 88z" />
    <glyph glyph-name="z" unicode="z" horiz-adv-x="421" 
d="M279 115h116v-115h-367v38l145 244q11 21 30 52q-24 -1 -53 -1h-114v115h356v-38l-139 -236q-27 -45 -37 -60q24 1 63 1z" />
    <glyph glyph-name="braceleft" unicode="{" horiz-adv-x="338" 
d="M315 -190q-14 -2 -41 -2q-152 0 -152 148v185q0 48 -19 68.5t-65 20.5v111q46 0 65 20.5t19 68.5v186q0 148 150 148q20 0 43 -3v-111q-3 0 -8 0.5t-7 0.5q-30 0 -43 -13.5t-13 -45.5v-185q0 -101 -80 -121q80 -21 80 -121v-185q0 -32 13 -46t43 -14q2 0 7 0.5t8 0.5
v-111z" />
    <glyph glyph-name="bar" unicode="|" horiz-adv-x="232" 
d="M56 -166v905h120v-905h-120z" />
    <glyph glyph-name="braceright" unicode="}" horiz-adv-x="338" 
d="M24 -190v111q3 0 7.5 -0.5t6.5 -0.5q30 0 43.5 14t13.5 46v185q0 100 80 121q-80 20 -80 121v185q0 32 -13 45.5t-43 13.5q-3 0 -7.5 -0.5t-7.5 -0.5v111q23 3 43 3q149 0 149 -148v-186q0 -48 19 -68.5t65 -20.5v-111q-46 0 -65 -20.5t-19 -68.5v-185q0 -148 -151 -148
q-27 0 -41 2z" />
    <glyph glyph-name="asciitilde" unicode="~" horiz-adv-x="558" 
d="M142 261l-96 47q16 61 52.5 95.5t90.5 34.5q38 0 92 -30q58 -32 78 -32q38 0 56 57l97 -46q-15 -61 -51 -97.5t-89 -36.5q-36 0 -90 28q-56 33 -81 33q-40 0 -59 -53z" />
    <glyph glyph-name="uni00A0" unicode="&#xa0;" horiz-adv-x="223" 
 />
    <glyph glyph-name="exclamdown" unicode="&#xa1;" horiz-adv-x="282" 
d="M141 413q34 0 58.5 -21t24.5 -60q0 -40 -24 -61t-59 -21t-59.5 21t-24.5 61q0 39 24.5 60t59.5 21zM80 193h120l18 -473h-155z" />
    <glyph glyph-name="cent" unicode="&#xa2;" horiz-adv-x="444" 
d="M424 127q-49 -44 -120 -53v-83h-87v85q-79 15 -129 74t-50 151t50 152.5t129 75.5v84h87v-83q69 -11 116 -53l-51 -95q-35 35 -85 35q-46 0 -76.5 -31.5t-30.5 -84.5q0 -52 30.5 -82.5t77.5 -30.5q51 0 91 37z" />
    <glyph glyph-name="sterling" unicode="&#xa3;" horiz-adv-x="499" 
d="M225 126h254v-126h-420l-33 86q55 35 84.5 83.5t29.5 100.5v4h-92v86h70q-3 7 -14 31t-15.5 35.5t-9.5 32.5t-5 40q0 74 57.5 124t145.5 50q111 0 188 -80l-80 -80q-33 35 -85 35q-35 0 -56.5 -19t-21.5 -49q0 -18 5.5 -35.5t20 -46t18.5 -38.5h144v-86h-124v-1
q0 -78 -61 -147z" />
    <glyph glyph-name="currency" unicode="&#xa4;" horiz-adv-x="535" 
d="M107 120l-69 70l63 62q-24 46 -24 98t24 98l-63 62l69 70l60 -60q44 28 100 28q57 0 101 -28l60 60l69 -70l-62 -62q23 -48 23 -98t-23 -98l62 -62l-69 -70l-60 60q-44 -28 -101 -28q-56 0 -100 28zM267 265q33 0 53 22.5t20 62.5t-20 62.5t-53 22.5t-53 -22.5t-20 -62.5
t20 -62.5t53 -22.5z" />
    <glyph glyph-name="yen" unicode="&#xa5;" horiz-adv-x="600" 
d="M225 0v142h-150v83h150v53h-150v82h119l-189 301h166l129 -237l128 237h166l-189 -301h119v-82h-150v-53h150v-83h-150v-142h-149z" />
    <glyph glyph-name="brokenbar" unicode="&#xa6;" horiz-adv-x="232" 
d="M56 353v386h120v-386h-120zM56 -166v404h120v-404h-120z" />
    <glyph glyph-name="section" unicode="&#xa7;" horiz-adv-x="540" 
d="M260 -64q-111 0 -195 64l61 107q58 -52 136 -52q68 0 68 46q0 23 -25 38.5t-79 33.5q-82 28 -129 66.5t-47 96.5q0 75 61 109q-37 37 -37 91q0 74 55.5 115.5t139.5 41.5q100 0 180 -53l-57 -103q-56 40 -120 40q-27 0 -44.5 -10t-17.5 -29t18.5 -31t59.5 -28
q96 -34 148 -75t52 -103q0 -70 -57 -108q36 -36 36 -88q0 -81 -58.5 -125t-148.5 -44zM333 256q22 17 22 37q0 18 -16.5 33.5t-31.5 22.5t-41 17q-38 13 -64 25q-26 -20 -26 -41q0 -6 2 -11t5.5 -10t7.5 -9t11 -8t11.5 -7t13 -7t12.5 -6t12.5 -5.5t11.5 -4.5q50 -18 70 -26z
" />
    <glyph glyph-name="dieresis" unicode="&#xa8;" horiz-adv-x="437" 
d="M133 532q-27 0 -46 19t-19 45q0 27 18.5 46.5t46.5 19.5t46.5 -19.5t18.5 -45.5t-18.5 -45.5t-46.5 -19.5zM305 532q-28 0 -46.5 19t-18.5 46q0 26 18.5 45.5t46.5 19.5t46.5 -19.5t18.5 -45.5q0 -27 -18.5 -46t-46.5 -19z" />
    <glyph glyph-name="copyright" unicode="&#xa9;" horiz-adv-x="770" 
d="M385 -3q-151 0 -247.5 98.5t-96.5 244.5t96.5 244t247.5 98t247.5 -98t96.5 -244t-96.5 -244.5t-247.5 -98.5zM385 60q122 0 199 79.5t77 200.5t-77 199.5t-199 78.5t-199 -78.5t-77 -199.5t77 -200.5t199 -79.5zM394 154q-74 0 -129.5 50t-55.5 138q0 84 53.5 135
t131.5 51q75 0 131 -48l-50 -74q-31 27 -72 27q-38 0 -62 -26t-24 -67q0 -40 25 -65t63 -25q47 0 81 33l49 -73q-58 -56 -141 -56z" />
    <glyph glyph-name="ordfeminine" unicode="&#xaa;" horiz-adv-x="307" 
d="M109 447q-35 0 -56 19.5t-21 52.5q0 43 39 65t93 22q11 0 17 -1v11q0 27 -41 27q-37 0 -73 -19l-26 59q60 30 118 30q48 0 77.5 -26t29.5 -78v-153h-62l-13 31q-27 -40 -82 -40zM140 505q18 0 30 13.5t12 36.5q-6 2 -19 2q-49 0 -49 -30q0 -22 26 -22zM42 339v72h224v-72
h-224z" />
    <glyph glyph-name="guillemotleft" unicode="&#xab;" horiz-adv-x="494" 
d="M150 39l-129 206l128 203l103 -56l-84 -147l85 -150zM354 39l-129 206l128 203l103 -56l-83 -147l84 -150z" />
    <glyph glyph-name="logicalnot" unicode="&#xac;" horiz-adv-x="525" 
d="M362 190v124h-316v117h428v-241h-112z" />
    <glyph glyph-name="registered" unicode="&#xae;" horiz-adv-x="534" 
d="M267 237q-97 0 -161.5 64t-64.5 161q0 96 64.5 160t161.5 64t161 -64t64 -160q0 -97 -64 -161t-161 -64zM267 289q73 0 121.5 49.5t48.5 123.5t-48.5 123t-121.5 49t-121.5 -49t-48.5 -123t48.5 -123.5t121.5 -49.5zM182 356v217h106q32 0 53.5 -20t21.5 -51
q0 -21 -12.5 -37.5t-32.5 -23.5l53 -85h-67l-44 78h-22v-78h-56zM238 478h38q13 0 21 7t8 18q0 10 -8 17t-21 7h-38v-49z" />
    <glyph glyph-name="macron" unicode="&#xaf;" horiz-adv-x="401" 
d="M66 540v90h270v-90h-270z" />
    <glyph glyph-name="degree" unicode="&#xb0;" horiz-adv-x="354" 
d="M177 409q-65 0 -107.5 38.5t-42.5 103.5t42.5 103.5t107.5 38.5t107.5 -38.5t42.5 -103.5t-42.5 -103.5t-107.5 -38.5zM177 494q25 0 39.5 16t14.5 41t-14.5 41t-39.5 16t-39.5 -16t-14.5 -41t14.5 -41t39.5 -16z" />
    <glyph glyph-name="plusminus" unicode="&#xb1;" horiz-adv-x="490" 
d="M189 241v136h-137v107h137v135h113v-135h137v-107h-137v-136h-113zM52 81v105h387v-105h-387z" />
    <glyph glyph-name="acute" unicode="&#xb4;" horiz-adv-x="332" 
d="M109 510l-51 58l146 125l71 -82z" />
    <glyph glyph-name="uni00B5" unicode="&#xb5;" horiz-adv-x="533" 
d="M340 448h137v-448h-107l-9 68q-37 -74 -119 -74q-32 0 -58 17q6 -60 6 -154v-71h-133v662h135v-251q0 -86 67 -86q39 0 60 29.5t21 72.5v235z" />
    <glyph glyph-name="paragraph" unicode="&#xb6;" horiz-adv-x="644" 
d="M237 -102v368q-99 1 -154.5 60t-55.5 147t55.5 147.5t154.5 59.5h334v-782h-119v664h-96v-664h-119z" />
    <glyph glyph-name="periodcentered" unicode="&#xb7;" horiz-adv-x="275" 
d="M137 268q-34 0 -58.5 21.5t-24.5 60.5t24.5 60.5t58.5 21.5t59 -21t25 -61t-25 -61t-59 -21z" />
    <glyph glyph-name="cedilla" unicode="&#xb8;" horiz-adv-x="345" 
d="M164 -219q-60 0 -104 27l27 65q31 -19 63 -19q42 0 42 28q0 37 -81 35l34 89h81l-21 -54q81 -16 81 -82q0 -41 -33.5 -65t-88.5 -24z" />
    <glyph glyph-name="ordmasculine" unicode="&#xba;" horiz-adv-x="320" 
d="M160 448q-57 0 -90 37.5t-33 95.5q0 57 33 94.5t90 37.5q58 0 90.5 -37.5t32.5 -94.5q0 -58 -32.5 -95.5t-90.5 -37.5zM160 523q20 0 30.5 17t10.5 41q0 25 -10.5 41.5t-30.5 16.5t-30.5 -17t-10.5 -41t10.5 -41t30.5 -17zM47 339v72h229v-72h-229z" />
    <glyph glyph-name="guillemotright" unicode="&#xbb;" horiz-adv-x="494" 
d="M140 39l-103 56l85 150l-84 147l103 56l128 -203zM345 39l-104 56l85 150l-84 147l104 56l128 -203z" />
    <glyph glyph-name="onequarter" unicode="&#xbc;" horiz-adv-x="627" 
d="M102 397v169l-39 -32l-43 49l104 99h55v-285h-77zM84 0l353 680h90l-352 -680h-91zM486 0v42h-127v42l150 201h45v-185h34v-58h-34v-42h-68zM442 100h45v60z" />
    <glyph glyph-name="onehalf" unicode="&#xbd;" horiz-adv-x="649" 
d="M102 397v169l-39 -32l-43 49l104 99h55v-285h-77zM437 680h90l-352 -680h-91zM524 67h90v-67h-212v39l105 117q20 22 20 41q0 27 -28 27q-23 0 -41 -37l-58 30q25 77 105 77q45 0 72 -26.5t27 -64.5q0 -43 -36 -84z" />
    <glyph glyph-name="threequarters" unicode="&#xbe;" horiz-adv-x="675" 
d="M143 385q-64 0 -106 36l38 55q23 -20 58 -20q39 0 39 30q0 27 -38 27h-33v58h26q32 0 32 25q0 24 -29 24q-24 0 -46 -15l-39 50q39 36 99 36q40 0 66 -23t26 -58q0 -22 -11 -39t-28 -24q21 -6 37 -26t16 -46q0 -40 -29 -65t-78 -25zM132 0l353 680h90l-352 -680h-91z
M534 0v42h-127v42l150 201h45v-185h34v-58h-34v-42h-68zM490 100h45v60z" />
    <glyph glyph-name="questiondown" unicode="&#xbf;" horiz-adv-x="458" 
d="M266 413q34 0 58.5 -21t24.5 -60q0 -40 -24.5 -61t-58.5 -21q-35 0 -59.5 21t-24.5 61q0 39 24.5 60t59.5 21zM331 194q1 -11 1 -30q0 -63 -21.5 -101t-59.5 -73q-23 -21 -34 -33t-20.5 -29.5t-9.5 -34.5q0 -26 20.5 -44t56.5 -18q62 1 106 55l80 -88q-83 -91 -206 -91
q-91 0 -148.5 49.5t-57.5 119.5q0 22 7 43.5t13 33.5t26 34t24.5 26.5t30.5 28.5q33 31 49 59.5t16 72.5q0 13 -1 20h128z" />
    <glyph glyph-name="Agrave" unicode="&#xc0;" horiz-adv-x="690" 
d="M393 737l-182 110l78 90l160 -136zM368 683l322 -680v-3h-156l-46 106h-285l-47 -106h-156v3l323 680h45zM345 453q-23 -68 -48 -125l-50 -112h196l-50 112q-28 68 -48 125z" />
    <glyph glyph-name="Aacute" unicode="&#xc1;" horiz-adv-x="690" 
d="M473 847l-182 -110l-55 64l159 136zM368 683l322 -680v-3h-156l-46 106h-285l-47 -106h-156v3l323 680h45zM345 452q-24 -70 -48 -124l-50 -112h196l-50 112q-23 55 -48 124z" />
    <glyph glyph-name="Acircumflex" unicode="&#xc2;" horiz-adv-x="690" 
d="M238 731l-50 61l147 115h19l146 -116l-48 -60l-107 65zM368 683l322 -680v-3h-156l-46 106h-285l-47 -106h-156v3l323 680h45zM345 453q-23 -68 -48 -125l-50 -112h196l-50 112q-28 68 -48 125z" />
    <glyph glyph-name="Atilde" unicode="&#xc3;" horiz-adv-x="690" 
d="M254 751l-76 42q38 102 106 102q25 0 67 -19q33 -14 44 -14q22 0 39 35l77 -41q-38 -100 -106 -100q-28 0 -57 14q-45 18 -53 18q-24 0 -41 -37zM368 683l322 -680v-3h-156l-46 106h-285l-47 -106h-156v3l323 680h45zM345 453q-23 -68 -48 -125l-50 -112h196l-50 112
q-28 68 -48 125z" />
    <glyph glyph-name="Adieresis" unicode="&#xc4;" horiz-adv-x="690" 
d="M244 754q-31 0 -51.5 21t-20.5 51t20.5 51.5t51.5 21.5t52 -21.5t21 -50.5q0 -30 -20.5 -51.5t-52.5 -21.5zM445 754q-31 0 -51.5 21.5t-20.5 50.5q0 30 20.5 51.5t51.5 21.5t51.5 -21.5t20.5 -51.5q0 -29 -20.5 -50.5t-51.5 -21.5zM368 683l322 -680v-3h-156l-46 106
h-285l-47 -106h-156v3l323 680h45zM345 453q-23 -68 -48 -125l-50 -112h196l-50 112q-28 68 -48 125z" />
    <glyph glyph-name="Aring" unicode="&#xc5;" horiz-adv-x="690" 
d="M346 718q-54 0 -89.5 31.5t-35.5 83.5t35 83.5t88 31.5q54 0 89 -31.5t35 -83.5t-34.5 -83.5t-87.5 -31.5zM345 791q19 0 30.5 11.5t11.5 30.5q0 20 -12 31.5t-30 11.5q-19 0 -30.5 -12t-11.5 -31t12 -30.5t30 -11.5zM368 683l322 -680v-3h-156l-46 106h-285l-47 -106
h-156v3l323 680h45zM345 453q-23 -68 -48 -125l-50 -112h196l-50 112q-28 68 -48 125z" />
    <glyph glyph-name="AE" unicode="&#xc6;" horiz-adv-x="905" 
d="M581 129h283v-129h-424v108h-218l-69 -108h-167v4l452 676h416v-129h-273v-145h239v-122h-239v-155zM286 216h154v153q0 66 1 101q-15 -31 -45 -81z" />
    <glyph glyph-name="Ccedilla" unicode="&#xc7;" horiz-adv-x="690" 
d="M672 106q-94 -100 -221 -116l-17 -41q37 -5 62.5 -27t25.5 -58q0 -47 -37.5 -73.5t-99.5 -26.5q-67 0 -116 29l31 74q31 -21 69 -21q46 0 46 29q0 41 -88 41l28 72q-142 13 -228 112.5t-86 239.5q0 154 101 254t257 100q146 0 257 -94l-74 -104q-74 64 -177 64
q-95 0 -153.5 -61t-58.5 -159q0 -96 57 -158t148 -62q114 0 185 85z" />
    <glyph glyph-name="Egrave" unicode="&#xc8;" horiz-adv-x="563" 
d="M343 737l-182 110l78 90l160 -136zM222 129h300v-129h-448v680h439v-129h-291v-145h254v-125h-254v-152z" />
    <glyph glyph-name="Eacute" unicode="&#xc9;" horiz-adv-x="563" 
d="M423 847l-182 -110l-55 64l159 136zM222 129h300v-129h-448v680h439v-129h-291v-145h254v-125h-254v-152z" />
    <glyph glyph-name="Ecircumflex" unicode="&#xca;" horiz-adv-x="563" 
d="M189 731l-50 61l147 115h19l146 -116l-48 -60l-107 65zM222 129h300v-129h-448v680h439v-129h-291v-145h254v-125h-254v-152z" />
    <glyph glyph-name="Edieresis" unicode="&#xcb;" horiz-adv-x="563" 
d="M195 754q-31 0 -51.5 21t-20.5 51t20.5 51.5t51.5 21.5t52 -21.5t21 -50.5q0 -30 -20.5 -51.5t-52.5 -21.5zM396 754q-31 0 -51.5 21.5t-20.5 50.5q0 30 20.5 51.5t51.5 21.5t51.5 -21.5t20.5 -51.5q0 -29 -20.5 -50.5t-51.5 -21.5zM222 129h300v-129h-448v680h439v-129
h-291v-145h254v-125h-254v-152z" />
    <glyph glyph-name="Igrave" unicode="&#xcc;" horiz-adv-x="296" 
d="M195 737l-182 110l78 90l160 -136zM74 0v680h148v-680h-148z" />
    <glyph glyph-name="Iacute" unicode="&#xcd;" horiz-adv-x="296" 
d="M93 737l-55 64l159 136l78 -90zM74 0v680h148v-680h-148z" />
    <glyph glyph-name="Icircumflex" unicode="&#xce;" horiz-adv-x="296" 
d="M41 731l-50 61l147 115h19l146 -116l-48 -60l-107 65zM74 0v680h148v-680h-148z" />
    <glyph glyph-name="Idieresis" unicode="&#xcf;" horiz-adv-x="296" 
d="M47 754q-31 0 -51.5 21t-20.5 51t20.5 51.5t51.5 21.5t52 -21.5t21 -50.5q0 -30 -20.5 -51.5t-52.5 -21.5zM248 754q-31 0 -51.5 21.5t-20.5 50.5q0 30 20.5 51.5t51.5 21.5t51.5 -21.5t20.5 -51.5q0 -29 -20.5 -50.5t-51.5 -21.5zM74 0v680h148v-680h-148z" />
    <glyph glyph-name="Eth" unicode="&#xd0;" horiz-adv-x="731" 
d="M342 680q154 0 250.5 -96t96.5 -245t-95.5 -244t-250.5 -95h-257v293h-67v103h67v284h256zM335 125q96 0 150 58.5t54 155.5t-55 156.5t-150 59.5h-100v-159h150v-103h-150v-168h101z" />
    <glyph glyph-name="Ntilde" unicode="&#xd1;" horiz-adv-x="742" 
d="M311 788q-24 0 -41 -37l-76 42q38 102 106 102q25 0 67 -19q33 -14 44 -14q22 0 39 35l77 -41q-38 -100 -106 -100q-28 0 -57 14q-45 18 -53 18zM522 680h146v-683h-55l-338 349q-29 29 -59 62q4 -54 4 -76v-332h-146v683h53l321 -333q37 -37 76 -79q-2 36 -2 100v309z
" />
    <glyph glyph-name="Ograve" unicode="&#xd2;" horiz-adv-x="802" 
d="M448 737l-182 110l78 90l160 -136zM401 -14q-158 0 -259 100.5t-101 253.5q0 155 100.5 254.5t259.5 99.5q160 0 260 -99.5t100 -254.5q0 -153 -100.5 -253.5t-259.5 -100.5zM401 120q94 0 151 63t57 157q0 96 -56.5 158t-151.5 62t-151.5 -62t-56.5 -158q0 -94 57 -157
t151 -63z" />
    <glyph glyph-name="Oacute" unicode="&#xd3;" horiz-adv-x="802" 
d="M346 737l-55 64l159 136l78 -90zM401 -14q-158 0 -259 100.5t-101 253.5q0 155 100.5 254.5t259.5 99.5q160 0 260 -99.5t100 -254.5q0 -153 -100.5 -253.5t-259.5 -100.5zM401 120q94 0 151 63t57 157q0 96 -56.5 158t-151.5 62t-151.5 -62t-56.5 -158q0 -94 57 -157
t151 -63z" />
    <glyph glyph-name="Ocircumflex" unicode="&#xd4;" horiz-adv-x="802" 
d="M294 731l-50 61l147 115h19l146 -116l-48 -60l-107 65zM401 -14q-158 0 -259 100.5t-101 253.5q0 155 100.5 254.5t259.5 99.5q160 0 260 -99.5t100 -254.5q0 -153 -100.5 -253.5t-259.5 -100.5zM401 120q94 0 151 63t57 157q0 96 -56.5 158t-151.5 62t-151.5 -62
t-56.5 -158q0 -94 57 -157t151 -63z" />
    <glyph glyph-name="Otilde" unicode="&#xd5;" horiz-adv-x="802" 
d="M310 751l-76 42q38 102 106 102q25 0 67 -19q33 -14 44 -14q22 0 39 35l77 -41q-38 -100 -106 -100q-28 0 -57 14q-45 18 -53 18q-24 0 -41 -37zM401 -14q-158 0 -259 100.5t-101 253.5q0 155 100.5 254.5t259.5 99.5q160 0 260 -99.5t100 -254.5q0 -153 -100.5 -253.5
t-259.5 -100.5zM401 120q94 0 151 63t57 157q0 96 -56.5 158t-151.5 62t-151.5 -62t-56.5 -158q0 -94 57 -157t151 -63z" />
    <glyph glyph-name="Odieresis" unicode="&#xd6;" horiz-adv-x="802" 
d="M300 754q-31 0 -51.5 21t-20.5 51t20.5 51.5t51.5 21.5t52 -21.5t21 -50.5q0 -30 -20.5 -51.5t-52.5 -21.5zM501 754q-31 0 -51.5 21.5t-20.5 50.5q0 30 20.5 51.5t51.5 21.5t51.5 -21.5t20.5 -51.5q0 -29 -20.5 -50.5t-51.5 -21.5zM401 -14q-158 0 -259 100.5
t-101 253.5q0 155 100.5 254.5t259.5 99.5q160 0 260 -99.5t100 -254.5q0 -153 -100.5 -253.5t-259.5 -100.5zM401 120q94 0 151 63t57 157q0 96 -56.5 158t-151.5 62t-151.5 -62t-56.5 -158q0 -94 57 -157t151 -63z" />
    <glyph glyph-name="multiply" unicode="&#xd7;" horiz-adv-x="477" 
d="M132 159l-75 75l107 106l-107 106l75 75l107 -107l106 107l75 -75l-107 -106l107 -106l-75 -75l-106 107z" />
    <glyph glyph-name="Oslash" unicode="&#xd8;" horiz-adv-x="802" 
d="M642 611q119 -100 119 -271q0 -153 -100.5 -253.5t-259.5 -100.5q-92 0 -168 37l-54 -78l-70 50l52 74q-120 101 -120 271q0 155 100.5 254.5t259.5 99.5q92 0 170 -36l67 96l70 -49zM401 563q-95 0 -151.5 -62.5t-56.5 -160.5q0 -94 54 -156l248 359q-42 20 -94 20z
M401 118q95 0 151.5 63.5t56.5 158.5t-53 157l-247 -359q40 -20 92 -20z" />
    <glyph glyph-name="Ugrave" unicode="&#xd9;" horiz-adv-x="683" 
d="M389 737l-182 110l78 90l160 -136zM342 -14q-127 0 -203.5 68.5t-76.5 188.5v437h149v-424q0 -66 35 -101t96 -35t96 35t35 101v424h148v-437q0 -120 -76.5 -188.5t-202.5 -68.5z" />
    <glyph glyph-name="Uacute" unicode="&#xda;" horiz-adv-x="683" 
d="M287 737l-55 64l159 136l78 -90zM342 -14q-127 0 -203.5 68.5t-76.5 188.5v437h149v-424q0 -66 35 -101t96 -35t96 35t35 101v424h148v-437q0 -120 -76.5 -188.5t-202.5 -68.5z" />
    <glyph glyph-name="Ucircumflex" unicode="&#xdb;" horiz-adv-x="683" 
d="M235 731l-50 61l147 115h19l146 -116l-48 -60l-107 65zM342 -14q-127 0 -203.5 68.5t-76.5 188.5v437h149v-424q0 -66 35 -101t96 -35t96 35t35 101v424h148v-437q0 -120 -76.5 -188.5t-202.5 -68.5z" />
    <glyph glyph-name="Udieresis" unicode="&#xdc;" horiz-adv-x="683" 
d="M241 754q-31 0 -51.5 21t-20.5 51t20.5 51.5t51.5 21.5t52 -21.5t21 -50.5q0 -30 -20.5 -51.5t-52.5 -21.5zM442 754q-31 0 -51.5 21.5t-20.5 50.5q0 30 20.5 51.5t51.5 21.5t51.5 -21.5t20.5 -51.5q0 -29 -20.5 -50.5t-51.5 -21.5zM342 -14q-127 0 -203.5 68.5
t-76.5 188.5v437h149v-424q0 -66 35 -101t96 -35t96 35t35 101v424h148v-437q0 -120 -76.5 -188.5t-202.5 -68.5z" />
    <glyph glyph-name="Yacute" unicode="&#xdd;" horiz-adv-x="657" 
d="M456 847l-182 -110l-55 64l159 136zM479 680h167v-3l-244 -389v-288h-148v288l-243 389v3h167l104 -175q26 -45 47 -91q17 42 45 91z" />
    <glyph glyph-name="Thorn" unicode="&#xde;" horiz-adv-x="594" 
d="M74 0v680h148v-110h119q108 0 170 -69.5t62 -156.5t-61.5 -155.5t-171.5 -68.5h-118v-120h-148zM222 245h95q51 0 79 28.5t28 70.5q0 44 -29 72.5t-76 28.5h-97v-200z" />
    <glyph glyph-name="germandbls" unicode="&#xdf;" horiz-adv-x="546" 
d="M353 -7q-63 0 -113 19l25 114q22 -12 50 -12q31 0 52 14.5t21 39.5q0 23 -17.5 45t-38 37.5t-38 45t-17.5 65.5q0 45 33 90t33 86q0 34 -18 53.5t-51 19.5q-81 0 -81 -113v-497h-136v496q0 116 57 176.5t165 60.5q88 0 143 -49.5t55 -124.5q0 -48 -18.5 -80.5t-36.5 -57
t-18 -53.5q0 -22 12.5 -41.5t30.5 -35.5t36 -35t30.5 -48t12.5 -65q0 -70 -50 -110t-123 -40z" />
    <glyph glyph-name="agrave" unicode="&#xe0;" horiz-adv-x="487" 
d="M344 567l-51 -58l-168 102l72 83zM244 458q93 0 143.5 -43.5t50.5 -129.5v-285h-89l-25 63q-55 -73 -156 -73q-61 0 -99.5 33t-38.5 92q0 76 61 117t167 41q20 0 42 -2v18q0 58 -80 58q-59 0 -135 -36l-37 98q104 49 196 49zM213 83q39 0 65.5 29t27.5 81q-22 3 -45 3
q-47 0 -74 -17t-27 -49q0 -47 53 -47z" />
    <glyph glyph-name="aacute" unicode="&#xe1;" horiz-adv-x="487" 
d="M358 611l-166 -101l-51 58l146 125zM244 458q93 0 143.5 -43.5t50.5 -129.5v-285h-89l-25 63q-55 -73 -156 -73q-61 0 -99.5 33t-38.5 92q0 76 61 117t167 41q20 0 42 -2v18q0 58 -80 58q-59 0 -135 -36l-37 98q104 49 196 49zM213 83q39 0 65.5 29t27.5 81q-22 3 -45 3
q-47 0 -74 -17t-27 -49q0 -47 53 -47z" />
    <glyph glyph-name="acircumflex" unicode="&#xe2;" horiz-adv-x="487" 
d="M241 569l-95 -61l-45 55l131 107h17l130 -107l-44 -55zM244 458q93 0 143.5 -43.5t50.5 -129.5v-285h-89l-25 63q-55 -73 -156 -73q-61 0 -99.5 33t-38.5 92q0 76 61 117t167 41q20 0 42 -2v18q0 58 -80 58q-59 0 -135 -36l-37 98q104 49 196 49zM213 83q39 0 65.5 29
t27.5 81q-22 3 -45 3q-47 0 -74 -17t-27 -49q0 -47 53 -47z" />
    <glyph glyph-name="atilde" unicode="&#xe3;" horiz-adv-x="487" 
d="M198 560q-21 0 -34 -29l-68 38q32 86 92 86q26 0 54 -14q30 -15 44 -15q20 0 33 28l68 -37q-32 -86 -92 -86q-24 0 -51 13q-32 16 -46 16zM244 458q93 0 143.5 -43.5t50.5 -129.5v-285h-89l-25 63q-55 -73 -156 -73q-61 0 -99.5 33t-38.5 92q0 76 61 117t167 41
q20 0 42 -2v18q0 58 -80 58q-59 0 -135 -36l-37 98q104 49 196 49zM213 83q39 0 65.5 29t27.5 81q-22 3 -45 3q-47 0 -74 -17t-27 -49q0 -47 53 -47z" />
    <glyph glyph-name="adieresis" unicode="&#xe4;" horiz-adv-x="487" 
d="M154 532q-27 0 -46 19t-19 45q0 27 18.5 46.5t46.5 19.5t46.5 -19.5t18.5 -45.5t-18.5 -45.5t-46.5 -19.5zM326 532q-28 0 -46.5 19t-18.5 46q0 26 18.5 45.5t46.5 19.5t46.5 -19.5t18.5 -45.5q0 -27 -18.5 -46t-46.5 -19zM244 458q93 0 143.5 -43.5t50.5 -129.5v-285
h-89l-25 63q-55 -73 -156 -73q-61 0 -99.5 33t-38.5 92q0 76 61 117t167 41q20 0 42 -2v18q0 58 -80 58q-59 0 -135 -36l-37 98q104 49 196 49zM213 83q39 0 65.5 29t27.5 81q-22 3 -45 3q-47 0 -74 -17t-27 -49q0 -47 53 -47z" />
    <glyph glyph-name="aring" unicode="&#xe5;" horiz-adv-x="487" 
d="M240 497q-49 0 -81 28.5t-32 75.5q0 48 31.5 76.5t80.5 28.5q50 0 82 -28.5t32 -76.5q0 -47 -31.5 -75.5t-81.5 -28.5zM240 641q-18 0 -28.5 -10.5t-10.5 -29.5q0 -18 11 -28.5t28 -10.5t28 10.5t11 28.5q0 19 -10.5 29.5t-28.5 10.5zM244 458q93 0 143.5 -43.5
t50.5 -129.5v-285h-89l-25 63q-55 -73 -156 -73q-61 0 -99.5 33t-38.5 92q0 76 61 117t167 41q20 0 42 -2v18q0 58 -80 58q-59 0 -135 -36l-37 98q104 49 196 49zM213 83q39 0 65.5 29t27.5 81q-22 3 -45 3q-47 0 -74 -17t-27 -49q0 -47 53 -47z" />
    <glyph glyph-name="ae" unicode="&#xe6;" horiz-adv-x="748" 
d="M523 458q92 0 143 -60t51 -161q0 -25 -3 -52h-290q17 -95 124 -95q61 0 106 35l48 -82q-75 -56 -173 -56q-117 0 -169 94q-61 -93 -182 -93q-67 0 -107.5 34t-40.5 96q0 53 34 88.5t83.5 50t111.5 14.5q23 0 37 -2v20q0 58 -76 58q-66 0 -136 -36l-36 98q98 49 186 49
q99 0 136 -66q55 66 153 66zM424 268h167q0 42 -19.5 64.5t-55.5 22.5q-78 0 -92 -87zM212 84q37 0 61.5 27t25.5 80q-14 2 -41 2q-98 0 -98 -63q0 -22 14 -34t38 -12z" />
    <glyph glyph-name="ccedilla" unicode="&#xe7;" horiz-adv-x="464" 
d="M280 -48q81 -16 81 -82q0 -41 -33.5 -65t-88.5 -24q-60 0 -104 27l27 65q31 -19 63 -19q42 0 42 28q0 37 -81 35l28 74q-79 17 -131.5 77.5t-52.5 155.5q0 107 69 172t171 65t171 -60l-61 -90q-41 34 -95 34q-51 0 -84 -33t-33 -88q0 -56 33 -88.5t82 -32.5q57 0 102 42
l68 -87q-68 -64 -159 -71z" />
    <glyph glyph-name="egrave" unicode="&#xe8;" horiz-adv-x="504" 
d="M312 509l-168 102l72 83l147 -127zM266 461q96 0 151.5 -59.5t55.5 -161.5q0 -31 -4 -58h-303q22 -90 131 -90q67 0 111 36l48 -85q-78 -57 -176 -57q-113 0 -181.5 66t-68.5 173q0 100 66 168t170 68zM263 356q-38 0 -64.5 -23.5t-34.5 -67.5h183q-1 44 -24 67.5
t-60 23.5z" />
    <glyph glyph-name="eacute" unicode="&#xe9;" horiz-adv-x="504" 
d="M377 611l-166 -101l-51 58l146 125zM266 461q96 0 151.5 -59.5t55.5 -161.5q0 -31 -4 -58h-303q22 -90 131 -90q67 0 111 36l48 -85q-78 -57 -176 -57q-113 0 -181.5 66t-68.5 173q0 100 66 168t170 68zM263 356q-37 0 -63.5 -23.5t-35.5 -67.5h183q-1 44 -24 67.5
t-60 23.5z" />
    <glyph glyph-name="ecircumflex" unicode="&#xea;" horiz-adv-x="504" 
d="M260 569l-95 -61l-45 55l131 107h17l130 -107l-44 -55zM266 461q96 0 151.5 -59.5t55.5 -161.5q0 -31 -4 -58h-303q22 -90 131 -90q67 0 111 36l48 -85q-78 -57 -176 -57q-113 0 -181.5 66t-68.5 173q0 100 66 168t170 68zM263 356q-37 0 -63.5 -23.5t-35.5 -67.5h183
q-1 44 -24 67.5t-60 23.5z" />
    <glyph glyph-name="edieresis" unicode="&#xeb;" horiz-adv-x="504" 
d="M174 532q-27 0 -46 19t-19 45q0 27 18.5 46.5t46.5 19.5t46.5 -19.5t18.5 -45.5t-18.5 -45.5t-46.5 -19.5zM346 532q-28 0 -46.5 19t-18.5 46q0 26 18.5 45.5t46.5 19.5t46.5 -19.5t18.5 -45.5q0 -27 -18.5 -46t-46.5 -19zM266 461q96 0 151.5 -59.5t55.5 -161.5
q0 -31 -4 -58h-303q22 -90 131 -90q67 0 111 36l48 -85q-78 -57 -176 -57q-113 0 -181.5 66t-68.5 173q0 100 66 168t170 68zM263 356q-38 0 -64.5 -23.5t-34.5 -67.5h183q-1 44 -24 67.5t-60 23.5z" />
    <glyph glyph-name="igrave" unicode="&#xec;" horiz-adv-x="249" 
d="M177 509l-168 102l72 83l147 -127zM57 0v448h136v-448h-136z" />
    <glyph glyph-name="iacute" unicode="&#xed;" horiz-adv-x="249" 
d="M77 520l-51 58l146 125l71 -82zM57 0v448h136v-448h-136z" />
    <glyph glyph-name="icircumflex" unicode="&#xee;" horiz-adv-x="249" 
d="M31 518l-45 55l131 107h17l130 -107l-44 -55l-94 61zM57 0v448h136v-448h-136z" />
    <glyph glyph-name="idieresis" unicode="&#xef;" horiz-adv-x="249" 
d="M43 530q-28 0 -45.5 18.5t-17.5 46.5t17.5 47.5t45.5 19.5t46 -19.5t18 -47.5q0 -27 -18 -46t-46 -19zM205 530q-28 0 -46 19t-18 46q0 28 18.5 47.5t45.5 19.5q28 0 46 -19.5t18 -47.5q0 -27 -18 -46t-46 -19zM57 0v448h136v-448h-136z" />
    <glyph glyph-name="eth" unicode="&#xf0;" horiz-adv-x="518" 
d="M363 586q121 -134 121 -331q0 -123 -59.5 -196t-168.5 -73q-98 0 -160 58t-62 161q0 95 56 154t137 59q73 0 118 -44q-18 80 -77 142l-89 -65l-55 71l72 53q-42 27 -99 49l52 103q85 -32 147 -79l64 47l55 -71zM257 102q47 0 70 32t23 78q0 42 -26 69t-67 27
q-42 0 -67 -29t-25 -73q0 -45 24.5 -74.5t67.5 -29.5z" />
    <glyph glyph-name="ntilde" unicode="&#xf1;" horiz-adv-x="529" 
d="M220 560q-21 0 -34 -29l-68 38q32 86 92 86q26 0 54 -14q30 -15 44 -15q20 0 33 28l68 -37q-32 -86 -92 -86q-24 0 -51 13q-32 16 -46 16zM322 461q76 0 116 -46t40 -130v-285h-136v266q0 74 -63 74q-40 0 -63 -25.5t-23 -67.5v-247h-136v448h88l27 -72q52 85 150 85z
" />
    <glyph glyph-name="ograve" unicode="&#xf2;" horiz-adv-x="552" 
d="M328 509l-168 102l72 83l147 -127zM276 -14q-109 0 -177.5 66.5t-68.5 171.5t69 171t177 66t177 -66.5t69 -170.5q0 -105 -69 -171.5t-177 -66.5zM276 104q48 0 78 33t30 87q0 53 -30 86.5t-78 33.5t-78 -33.5t-30 -86.5q0 -54 30 -87t78 -33z" />
    <glyph glyph-name="oacute" unicode="&#xf3;" horiz-adv-x="552" 
d="M227 510l-51 58l146 125l71 -82zM276 -14q-109 0 -177.5 66.5t-68.5 171.5t69 171t177 66t177 -66.5t69 -170.5q0 -105 -69 -171.5t-177 -66.5zM276 104q48 0 78 33t30 87q0 53 -30 86.5t-78 33.5t-78 -33.5t-30 -86.5q0 -54 30 -87t78 -33z" />
    <glyph glyph-name="ocircumflex" unicode="&#xf4;" horiz-adv-x="552" 
d="M181 508l-45 55l131 107h17l130 -107l-44 -55l-94 61zM276 -14q-109 0 -177.5 66.5t-68.5 171.5t69 171t177 66t177 -66.5t69 -170.5q0 -105 -69 -171.5t-177 -66.5zM276 104q48 0 78 33t30 87q0 53 -30 86.5t-78 33.5t-78 -33.5t-30 -86.5q0 -54 30 -87t78 -33z" />
    <glyph glyph-name="otilde" unicode="&#xf5;" horiz-adv-x="552" 
d="M199 531l-68 38q32 86 92 86q26 0 54 -14q30 -15 44 -15q20 0 33 28l68 -37q-32 -86 -92 -86q-24 0 -51 13q-32 16 -46 16q-21 0 -34 -29zM276 -14q-109 0 -177.5 66.5t-68.5 171.5t69 171t177 66t177 -66.5t69 -170.5q0 -105 -69 -171.5t-177 -66.5zM276 104q48 0 78 33
t30 87q0 53 -30 86.5t-78 33.5t-78 -33.5t-30 -86.5q0 -54 30 -87t78 -33z" />
    <glyph glyph-name="odieresis" unicode="&#xf6;" horiz-adv-x="552" 
d="M190 532q-27 0 -46 19t-19 45q0 27 18.5 46.5t46.5 19.5t46.5 -19.5t18.5 -45.5t-18.5 -45.5t-46.5 -19.5zM362 532q-28 0 -46.5 19t-18.5 46q0 26 18.5 45.5t46.5 19.5t46.5 -19.5t18.5 -45.5q0 -27 -18.5 -46t-46.5 -19zM276 -14q-109 0 -177.5 66.5t-68.5 171.5
t69 171t177 66t177 -66.5t69 -170.5q0 -105 -69 -171.5t-177 -66.5zM276 104q48 0 78 33t30 87q0 53 -30 86.5t-78 33.5t-78 -33.5t-30 -86.5q0 -54 30 -87t78 -33z" />
    <glyph glyph-name="divide" unicode="&#xf7;" horiz-adv-x="527" 
d="M264 442q-36 0 -60 21.5t-24 59.5t24 60t60 22t59.5 -22t23.5 -60t-23.5 -59.5t-59.5 -21.5zM52 283v109h424v-109h-424zM264 69q-36 0 -60 22t-24 60t24 60t60 22t59.5 -22t23.5 -60t-23.5 -60t-59.5 -22z" />
    <glyph glyph-name="oslash" unicode="&#xf8;" horiz-adv-x="552" 
d="M433 412q89 -68 89 -188q0 -105 -69 -171.5t-177 -66.5q-65 0 -118 25l-35 -51l-39 26l34 50q-88 67 -88 188q0 105 69 171t177 66q62 0 116 -24l37 54l40 -26zM276 346q-50 0 -80 -33.5t-30 -88.5q0 -52 26 -84l133 196q-25 10 -49 10zM276 102q49 0 79.5 33.5
t30.5 88.5q0 52 -27 85l-133 -196q22 -11 50 -11z" />
    <glyph glyph-name="ugrave" unicode="&#xf9;" horiz-adv-x="527" 
d="M313 509l-168 102l72 83l147 -127zM334 448h137v-448h-92l-28 67q-51 -77 -141 -77q-78 0 -118.5 47t-40.5 130v281h136v-263q0 -74 64 -74q40 0 61.5 28.5t21.5 71.5v237z" />
    <glyph glyph-name="uacute" unicode="&#xfa;" horiz-adv-x="527" 
d="M378 611l-166 -101l-51 58l146 125zM334 448h137v-448h-92l-28 67q-51 -77 -141 -77q-78 0 -118.5 47t-40.5 130v281h136v-263q0 -74 64 -74q40 0 61.5 28.5t21.5 71.5v237z" />
    <glyph glyph-name="ucircumflex" unicode="&#xfb;" horiz-adv-x="527" 
d="M261 569l-95 -61l-45 55l131 107h17l130 -107l-44 -55zM334 448h137v-448h-92l-28 67q-51 -77 -141 -77q-78 0 -118.5 47t-40.5 130v281h136v-263q0 -74 64 -74q40 0 61.5 28.5t21.5 71.5v237z" />
    <glyph glyph-name="udieresis" unicode="&#xfc;" horiz-adv-x="527" 
d="M175 532q-27 0 -46 19t-19 45q0 27 18.5 46.5t46.5 19.5t46.5 -19.5t18.5 -45.5t-18.5 -45.5t-46.5 -19.5zM347 532q-28 0 -46.5 19t-18.5 46q0 26 18.5 45.5t46.5 19.5t46.5 -19.5t18.5 -45.5q0 -27 -18.5 -46t-46.5 -19zM334 448h137v-448h-92l-28 67q-51 -77 -141 -77
q-78 0 -118.5 47t-40.5 130v281h136v-263q0 -74 64 -74q40 0 61.5 28.5t21.5 71.5v237z" />
    <glyph glyph-name="yacute" unicode="&#xfd;" horiz-adv-x="509" 
d="M373 611l-166 -101l-51 58l146 125zM359 448h144v-3l-257 -665h-146v3l98 225l-191 437v3h149l78 -199q18 -47 29 -89q8 38 25 88z" />
    <glyph glyph-name="thorn" unicode="&#xfe;" horiz-adv-x="571" 
d="M329 459q92 0 150.5 -66.5t58.5 -168.5q0 -104 -59 -170t-149 -66q-86 0 -139 56q2 -58 2 -90v-174h-136v941h136v-187q0 -63 -3 -132q54 57 139 57zM295 104q47 0 76 33t29 87t-29 87t-76 33q-50 0 -79 -32.5t-29 -87.5q0 -54 29.5 -87t78.5 -33z" />
    <glyph glyph-name="ydieresis" unicode="&#xff;" horiz-adv-x="509" 
d="M169 532q-27 0 -46 19t-19 45q0 27 18.5 46.5t46.5 19.5t46.5 -19.5t18.5 -45.5t-18.5 -45.5t-46.5 -19.5zM341 532q-28 0 -46.5 19t-18.5 46q0 26 18.5 45.5t46.5 19.5t46.5 -19.5t18.5 -45.5q0 -27 -18.5 -46t-46.5 -19zM359 448h144v-3l-257 -665h-146v3l98 225
l-191 437v3h149l78 -199q19 -49 28 -89q10 42 26 88z" />
    <glyph glyph-name="Amacron" unicode="&#x100;" horiz-adv-x="690" 
d="M196 766v101h297v-101h-297zM368 683l322 -680v-3h-156l-46 106h-285l-47 -106h-156v3l323 680h45zM345 453q-23 -68 -48 -125l-50 -112h196l-50 112q-28 68 -48 125z" />
    <glyph glyph-name="amacron" unicode="&#x101;" horiz-adv-x="487" 
d="M375 630v-90h-270v90h270zM244 458q93 0 143.5 -43.5t50.5 -129.5v-285h-89l-25 63q-55 -73 -156 -73q-61 0 -99.5 33t-38.5 92q0 76 61 117t167 41q20 0 42 -2v18q0 58 -80 58q-59 0 -135 -36l-37 98q104 49 196 49zM213 83q39 0 65.5 29t27.5 81q-22 3 -45 3
q-47 0 -74 -17t-27 -49q0 -47 53 -47z" />
    <glyph glyph-name="Abreve" unicode="&#x102;" horiz-adv-x="690" 
d="M346 737q-56 0 -99 31.5t-60 92.5l81 30q8 -26 29.5 -41.5t48.5 -15.5t48.5 15.5t28.5 41.5l81 -30q-17 -60 -60 -92t-98 -32zM368 683l322 -680v-3h-156l-46 106h-285l-47 -106h-156v3l323 680h45zM345 453q-23 -68 -48 -125l-50 -112h196l-50 112q-28 68 -48 125z" />
    <glyph glyph-name="abreve" unicode="&#x103;" horiz-adv-x="487" 
d="M241 516q-108 0 -140 107l69 35q7 -25 26 -39t45 -14q25 0 44.5 14.5t26.5 38.5l68 -35q-31 -107 -139 -107zM244 458q93 0 143.5 -43.5t50.5 -129.5v-285h-89l-25 63q-55 -73 -156 -73q-61 0 -99.5 33t-38.5 92q0 76 61 117t167 41q20 0 42 -2v18q0 58 -80 58
q-59 0 -135 -36l-37 98q104 49 196 49zM213 83q39 0 65.5 29t27.5 81q-22 3 -45 3q-47 0 -74 -17t-27 -49q0 -47 53 -47z" />
    <glyph glyph-name="Aogonek" unicode="&#x104;" horiz-adv-x="690" 
d="M664 0q-77 -52 -77 -101q0 -27 30 -27q21 0 39 12l27 -89q-45 -30 -105 -30q-57 0 -86.5 26t-29.5 70q0 69 72 140l-46 105h-285l-47 -106h-156v3l323 680h45l322 -680v-3h-26zM247 216h196l-50 112q-28 68 -48 125q-23 -68 -48 -125z" />
    <glyph glyph-name="aogonek" unicode="&#x105;" horiz-adv-x="487" 
d="M428 -116l27 -76q-39 -28 -93 -28t-81 26.5t-27 65.5q0 70 89 142l-19 49q-55 -73 -156 -73q-61 0 -99.5 33t-38.5 92q0 76 61 117t167 41q20 0 42 -2v18q0 58 -80 58q-59 0 -135 -36l-37 98q104 49 196 49q93 0 143.5 -43.5t50.5 -129.5v-285q-75 -59 -75 -103
q0 -25 28 -25q19 0 37 12zM213 83q39 0 65.5 29t27.5 81q-22 3 -45 3q-47 0 -74 -17t-27 -49q0 -47 53 -47z" />
    <glyph glyph-name="Cacute" unicode="&#x106;" horiz-adv-x="690" 
d="M343 737l-55 64l159 136l78 -90zM394 -14q-157 0 -255 102t-98 252q0 154 101 254t257 100q146 0 257 -94l-74 -104q-74 64 -177 64q-95 0 -153.5 -61t-58.5 -159q0 -96 57 -158t148 -62q114 0 185 85l89 -99q-112 -120 -278 -120z" />
    <glyph glyph-name="cacute" unicode="&#x107;" horiz-adv-x="464" 
d="M218 510l-51 58l146 125l71 -82zM268 -14q-97 0 -167.5 63t-70.5 175q0 107 69 172t171 65t171 -60l-61 -90q-41 34 -95 34q-51 0 -84 -33t-33 -88q0 -56 33 -88.5t82 -32.5q57 0 102 42l68 -87q-76 -72 -185 -72z" />
    <glyph glyph-name="Ccircumflex" unicode="&#x108;" horiz-adv-x="690" 
d="M291 731l-50 61l147 115h19l146 -116l-48 -60l-107 65zM394 -14q-157 0 -255 102t-98 252q0 154 101 254t257 100q146 0 257 -94l-74 -104q-74 64 -177 64q-95 0 -153.5 -61t-58.5 -159q0 -96 57 -158t148 -62q114 0 185 85l89 -99q-112 -120 -278 -120z" />
    <glyph glyph-name="ccircumflex" unicode="&#x109;" horiz-adv-x="464" 
d="M172 508l-45 55l131 107h17l130 -107l-44 -55l-94 61zM268 -14q-97 0 -167.5 63t-70.5 175q0 107 69 172t171 65t171 -60l-61 -90q-41 34 -95 34q-51 0 -84 -33t-33 -88q0 -56 33 -88.5t82 -32.5q57 0 102 42l68 -87q-76 -72 -185 -72z" />
    <glyph glyph-name="Cdotaccent" unicode="&#x10a;" horiz-adv-x="690" 
d="M398 750q-33 0 -54.5 22.5t-21.5 53.5q0 32 21 54.5t55 22.5q33 0 54.5 -22.5t21.5 -54.5q0 -31 -21.5 -53.5t-54.5 -22.5zM394 -14q-157 0 -255 102t-98 252q0 154 101 254t257 100q146 0 257 -94l-74 -104q-74 64 -177 64q-95 0 -153.5 -61t-58.5 -159q0 -96 57 -158
t148 -62q114 0 185 85l89 -99q-112 -120 -278 -120z" />
    <glyph glyph-name="cdotaccent" unicode="&#x10b;" horiz-adv-x="464" 
d="M267 524q-31 0 -51.5 21t-20.5 50q0 30 20.5 50.5t51.5 20.5t51 -20.5t20 -51.5q0 -30 -20 -50t-51 -20zM268 -14q-97 0 -167.5 63t-70.5 175q0 107 69 172t171 65t171 -60l-61 -90q-41 34 -95 34q-51 0 -84 -33t-33 -88q0 -56 33 -88.5t82 -32.5q57 0 102 42l68 -87
q-76 -72 -185 -72z" />
    <glyph glyph-name="Ccaron" unicode="&#x10c;" horiz-adv-x="690" 
d="M389 734l-146 115l48 60l107 -65l107 65l49 -60l-146 -115h-19zM394 -14q-157 0 -255 102t-98 252q0 154 101 254t257 100q146 0 257 -94l-74 -104q-74 64 -177 64q-95 0 -153.5 -61t-58.5 -159q0 -96 57 -158t148 -62q114 0 185 85l89 -99q-112 -120 -278 -120z" />
    <glyph glyph-name="ccaron" unicode="&#x10d;" horiz-adv-x="464" 
d="M258 511l-130 108l44 55l94 -61l95 61l45 -55l-131 -108h-17zM268 -14q-97 0 -167.5 63t-70.5 175q0 107 69 172t171 65t171 -60l-61 -90q-41 34 -95 34q-51 0 -84 -33t-33 -88q0 -56 33 -88.5t82 -32.5q57 0 102 42l68 -87q-76 -72 -185 -72z" />
    <glyph glyph-name="Dcaron" unicode="&#x10e;" horiz-adv-x="719" 
d="M315 734l-146 115l48 60l107 -65l107 65l49 -60l-146 -115h-19zM74 0v680h256q154 0 250.5 -96t96.5 -245t-95.5 -244t-250.5 -95h-257zM222 125h101q96 0 150 58.5t54 155.5t-55 156.5t-150 59.5h-100v-430z" />
    <glyph glyph-name="dcaron" unicode="&#x10f;" horiz-adv-x="588" 
d="M379 534v187h136v-721h-91l-25 63q-56 -75 -155 -75q-95 0 -153 66t-58 173q0 102 59.5 167t151.5 65q84 0 137 -55q-2 88 -2 130zM580 721h124q-10 -114 -55 -195h-89q20 97 20 195zM277 104q49 0 78 32.5t29 87.5q0 54 -29.5 86.5t-77.5 32.5t-77 -32.5t-29 -86.5
t29 -87t77 -33z" />
    <glyph glyph-name="Dcroat" unicode="&#x110;" horiz-adv-x="731" 
d="M342 680q154 0 250.5 -96t96.5 -245t-95.5 -244t-250.5 -95h-257v293h-67v103h67v284h256zM335 125q96 0 150 58.5t54 155.5t-55 156.5t-150 59.5h-100v-159h150v-103h-150v-168h101z" />
    <glyph glyph-name="dcroat" unicode="&#x111;" horiz-adv-x="572" 
d="M571 604v-77h-56v-527h-92l-24 62q-58 -74 -155 -74q-95 0 -153 65.5t-58 170.5q0 101 59 165.5t151 64.5q85 0 138 -55q-2 88 -2 128h-128v77h128v117h136v-117h56zM276 104q49 0 78 32t29 86q0 52 -29 84t-78 32q-47 0 -76 -32t-29 -84q0 -53 28.5 -85.5t76.5 -32.5z
" />
    <glyph glyph-name="Emacron" unicode="&#x112;" horiz-adv-x="563" 
d="M147 766v101h297v-101h-297zM222 129h300v-129h-448v680h439v-129h-291v-145h254v-125h-254v-152z" />
    <glyph glyph-name="emacron" unicode="&#x113;" horiz-adv-x="504" 
d="M124 540v90h270v-90h-270zM266 461q96 0 151.5 -59.5t55.5 -161.5q0 -31 -4 -58h-303q22 -90 131 -90q67 0 111 36l48 -85q-78 -57 -176 -57q-113 0 -181.5 66t-68.5 173q0 100 66 168t170 68zM263 356q-38 0 -64.5 -23.5t-34.5 -67.5h183q-1 44 -24 67.5t-60 23.5z" />
    <glyph glyph-name="Ebreve" unicode="&#x114;" horiz-adv-x="563" 
d="M297 737q-56 0 -99 31.5t-60 92.5l81 30q8 -26 29.5 -41.5t48.5 -15.5t48.5 15.5t28.5 41.5l81 -30q-17 -60 -60 -92t-98 -32zM222 129h300v-129h-448v680h439v-129h-291v-145h254v-125h-254v-152z" />
    <glyph glyph-name="ebreve" unicode="&#x115;" horiz-adv-x="504" 
d="M260 516q-108 0 -140 107l69 35q7 -25 26 -39t45 -14q25 0 44.5 14.5t26.5 38.5l68 -35q-31 -107 -139 -107zM266 461q96 0 151.5 -59.5t55.5 -161.5q0 -31 -4 -58h-303q22 -90 131 -90q67 0 111 36l48 -85q-78 -57 -176 -57q-113 0 -181.5 66t-68.5 173q0 100 66 168
t170 68zM263 356q-37 0 -63.5 -23.5t-35.5 -67.5h183q-1 44 -24 67.5t-60 23.5z" />
    <glyph glyph-name="Edotaccent" unicode="&#x116;" horiz-adv-x="563" 
d="M296 750q-33 0 -54.5 22.5t-21.5 53.5q0 32 21 54.5t55 22.5q33 0 54.5 -22.5t21.5 -54.5q0 -31 -21.5 -53.5t-54.5 -22.5zM222 129h300v-129h-448v680h439v-129h-291v-145h254v-125h-254v-152z" />
    <glyph glyph-name="edotaccent" unicode="&#x117;" horiz-adv-x="504" 
d="M260 524q-30 0 -51 21t-21 50q0 30 20.5 50.5t51.5 20.5t51 -20.5t20 -51.5q0 -30 -20.5 -50t-50.5 -20zM266 461q96 0 151.5 -59.5t55.5 -161.5q0 -31 -4 -58h-303q22 -90 131 -90q67 0 111 36l48 -85q-78 -57 -176 -57q-113 0 -181.5 66t-68.5 173q0 100 66 168t170 68
zM263 356q-38 0 -64.5 -23.5t-34.5 -67.5h183q-1 44 -24 67.5t-60 23.5z" />
    <glyph glyph-name="Eogonek" unicode="&#x118;" horiz-adv-x="563" 
d="M510 -116l26 -89q-44 -30 -105 -30q-57 0 -86.5 26t-29.5 70q0 67 80 139h-321v680h439v-129h-291v-145h254v-125h-254v-152h300v-129q-78 -62 -78 -102q0 -26 28 -26q18 0 38 12z" />
    <glyph glyph-name="eogonek" unicode="&#x119;" horiz-adv-x="503" 
d="M261 461q99 0 155.5 -59.5t56.5 -163.5q0 -29 -4 -56h-303q22 -90 130 -90q68 0 111 35l49 -84q-3 -3 -7 -5q-108 -88 -108 -138q0 -28 28 -28q19 0 36 12l28 -76q-39 -28 -94 -28q-53 0 -80.5 26t-27.5 65q0 57 64 115h-16q-114 0 -181.5 65.5t-67.5 173.5q0 100 65 168
t166 68zM261 356q-37 0 -63 -23.5t-34 -67.5h182q0 44 -23 67.5t-62 23.5z" />
    <glyph glyph-name="Ecaron" unicode="&#x11a;" horiz-adv-x="563" 
d="M287 734l-146 115l48 60l107 -65l107 65l49 -60l-146 -115h-19zM222 129h300v-129h-448v680h439v-129h-291v-145h254v-125h-254v-152z" />
    <glyph glyph-name="ecaron" unicode="&#x11b;" horiz-adv-x="504" 
d="M268 511h-17l-130 108l44 55l94 -61l95 61l45 -55zM266 461q96 0 151.5 -59.5t55.5 -161.5q0 -31 -4 -58h-303q22 -90 131 -90q67 0 111 36l48 -85q-78 -57 -176 -57q-113 0 -181.5 66t-68.5 173q0 100 66 168t170 68zM263 356q-37 0 -63.5 -23.5t-35.5 -67.5h183
q-1 44 -24 67.5t-60 23.5z" />
    <glyph glyph-name="Gcircumflex" unicode="&#x11c;" horiz-adv-x="732" 
d="M291 731l-50 61l147 115h19l146 -116l-48 -60l-107 65zM390 391h294v-284q-110 -121 -287 -121q-158 0 -257 101t-99 253q0 153 99.5 253.5t261.5 100.5q157 0 267 -105l-77 -99q-78 72 -182 72q-98 0 -158 -61t-60 -161q0 -103 60 -163t157 -60q87 0 146 51v105h-165
v118z" />
    <glyph glyph-name="gcircumflex" unicode="&#x11d;" horiz-adv-x="572" 
d="M276 569l-95 -61l-45 55l131 107h17l130 -107l-44 -55zM427 448h89v-458q0 -108 -65 -165.5t-181 -57.5q-114 0 -203 60l42 105q66 -45 149 -45q58 0 89 25.5t31 73.5q0 40 2 61q-56 -55 -138 -55q-92 0 -150 64.5t-58 168.5t58.5 169.5t149.5 65.5q104 0 160 -78z
M277 106q50 0 78.5 32.5t28.5 86.5t-28.5 86.5t-78.5 32.5q-48 0 -76.5 -32.5t-28.5 -86.5t28.5 -86.5t76.5 -32.5z" />
    <glyph glyph-name="Gbreve" unicode="&#x11e;" horiz-adv-x="732" 
d="M399 737q-56 0 -99 31.5t-60 92.5l81 30q8 -26 29.5 -41.5t48.5 -15.5t48.5 15.5t28.5 41.5l81 -30q-17 -60 -60 -92t-98 -32zM390 391h294v-284q-110 -121 -287 -121q-158 0 -257 101t-99 253q0 153 99.5 253.5t261.5 100.5q157 0 267 -105l-77 -99q-78 72 -182 72
q-98 0 -158 -61t-60 -161q0 -103 60 -163t157 -60q87 0 146 51v105h-165v118z" />
    <glyph glyph-name="gbreve" unicode="&#x11f;" horiz-adv-x="572" 
d="M276 516q-108 0 -140 107l69 35q7 -25 26 -39t45 -14q25 0 44.5 14.5t26.5 38.5l68 -35q-31 -107 -139 -107zM427 448h89v-458q0 -108 -65 -165.5t-181 -57.5q-114 0 -203 60l42 105q66 -45 149 -45q58 0 89 25.5t31 73.5q0 40 2 61q-56 -55 -138 -55q-92 0 -150 64.5
t-58 168.5t58.5 169.5t149.5 65.5q104 0 160 -78zM277 106q50 0 78.5 32.5t28.5 86.5t-28.5 86.5t-78.5 32.5q-48 0 -76.5 -32.5t-28.5 -86.5t28.5 -86.5t76.5 -32.5z" />
    <glyph glyph-name="Gdotaccent" unicode="&#x120;" horiz-adv-x="732" 
d="M399 750q-33 0 -54.5 22.5t-21.5 53.5q0 32 21 54.5t55 22.5q33 0 54.5 -22.5t21.5 -54.5q0 -31 -21.5 -53.5t-54.5 -22.5zM390 391h294v-284q-110 -121 -287 -121q-158 0 -257 101t-99 253q0 153 99.5 253.5t261.5 100.5q157 0 267 -105l-77 -99q-78 72 -182 72
q-98 0 -158 -61t-60 -161q0 -103 60 -163t157 -60q87 0 146 51v105h-165v118z" />
    <glyph glyph-name="gdotaccent" unicode="&#x121;" horiz-adv-x="572" 
d="M276 524q-30 0 -51 21t-21 50q0 30 20.5 50.5t51.5 20.5t51 -20.5t20 -51.5q0 -30 -20.5 -50t-50.5 -20zM427 448h89v-458q0 -108 -65 -165.5t-181 -57.5q-114 0 -203 60l42 105q66 -45 149 -45q58 0 89 25.5t31 73.5q0 40 1 60q-55 -54 -137 -54q-92 0 -150 64.5
t-58 168.5t58.5 169.5t149.5 65.5q104 0 160 -78zM277 106q50 0 78.5 32.5t28.5 86.5t-28.5 86.5t-78.5 32.5q-48 0 -76.5 -32.5t-28.5 -86.5t28.5 -86.5t76.5 -32.5z" />
    <glyph glyph-name="uni0122" unicode="&#x122;" horiz-adv-x="732" 
d="M390 391h294v-284q-110 -121 -287 -121q-158 0 -257 101t-99 253q0 153 99.5 253.5t261.5 100.5q157 0 267 -105l-77 -99q-78 72 -182 72q-98 0 -158 -61t-60 -161q0 -103 60 -163t157 -60q87 0 146 51v105h-165v118zM330 -291q25 85 25 203h123q-10 -119 -60 -203h-88z
" />
    <glyph glyph-name="uni0123" unicode="&#x123;" horiz-adv-x="572" 
d="M355 718q-24 -90 -24 -196h-116q8 112 56 196h84zM427 448h89v-458q0 -108 -65 -165.5t-181 -57.5q-114 0 -203 60l42 105q66 -45 149 -45q58 0 89 25.5t31 73.5q0 40 2 61q-56 -55 -138 -55q-92 0 -150 64.5t-58 168.5t58.5 169.5t149.5 65.5q104 0 160 -78zM277 106
q50 0 78.5 32.5t28.5 86.5t-28.5 86.5t-78.5 32.5q-48 0 -76.5 -32.5t-28.5 -86.5t28.5 -86.5t76.5 -32.5z" />
    <glyph glyph-name="Hcircumflex" unicode="&#x124;" horiz-adv-x="726" 
d="M256 731l-50 61l147 115h19l146 -116l-48 -60l-107 65zM74 0v680h148v-270h282v270h148v-680h-148v274h-282v-274h-148z" />
    <glyph glyph-name="hcircumflex" unicode="&#x125;" horiz-adv-x="529" 
d="M231 772l-107 65l-107 -65l-50 61l147 115h19l146 -116zM321 461q77 0 117 -46.5t40 -129.5v-285h-136v268q0 72 -64 72q-41 0 -63 -28.5t-22 -73.5v-238h-136v721h136v-259q0 -38 -2 -65q46 64 130 64z" />
    <glyph glyph-name="Hbar" unicode="&#x126;" horiz-adv-x="748" 
d="M728 584v-74h-65v-510h-148v274h-282v-274h-148v510h-65v74h65v96h148v-96h282v96h148v-96h65zM515 408v102h-282v-102h282z" />
    <glyph glyph-name="hbar" unicode="&#x127;" horiz-adv-x="529" 
d="M322 452q77 0 116.5 -47t39.5 -127v-278h-136v262q0 69 -65 69q-39 0 -61.5 -28.5t-22.5 -73.5v-229h-136v527h-59v77h59v117h136v-117h154v-77h-154v-71q0 -39 -2 -64q48 60 131 60z" />
    <glyph glyph-name="Itilde" unicode="&#x128;" horiz-adv-x="296" 
d="M56 751l-76 42q38 102 106 102q25 0 67 -19q33 -14 44 -14q22 0 39 35l77 -41q-38 -100 -106 -100q-28 0 -57 14q-45 18 -53 18q-24 0 -41 -37zM74 0v680h148v-680h-148z" />
    <glyph glyph-name="itilde" unicode="&#x129;" horiz-adv-x="249" 
d="M49 541l-68 38q32 86 92 86q26 0 54 -14q28 -15 44 -15q19 0 32 28l68 -37q-32 -86 -91 -86q-24 0 -51 13q-32 16 -46 16q-22 0 -34 -29zM57 0v448h136v-448h-136z" />
    <glyph glyph-name="Imacron" unicode="&#x12a;" horiz-adv-x="296" 
d="M-2 766v101h297v-101h-297zM74 0v680h148v-680h-148z" />
    <glyph glyph-name="imacron" unicode="&#x12b;" horiz-adv-x="249" 
d="M7 539v95h234v-95h-234zM57 0v448h136v-448h-136z" />
    <glyph glyph-name="Ibreve" unicode="&#x12c;" horiz-adv-x="296" 
d="M148 737q-56 0 -99 31.5t-60 92.5l81 30q8 -26 29.5 -41.5t48.5 -15.5t48.5 15.5t28.5 41.5l81 -30q-17 -60 -60 -92t-98 -32zM74 0v680h148v-680h-148z" />
    <glyph glyph-name="ibreve" unicode="&#x12d;" horiz-adv-x="249" 
d="M125 516q-108 0 -140 107l69 35q7 -25 26 -39t45 -14q25 0 44.5 14.5t26.5 38.5l68 -35q-31 -107 -139 -107zM57 0v448h136v-448h-136z" />
    <glyph glyph-name="Iogonek" unicode="&#x12e;" horiz-adv-x="296" 
d="M232 -116l27 -89q-45 -30 -105 -30q-57 0 -87 26.5t-30 70.5q0 65 57 138h-20v680h148v-680q-56 -63 -56 -102q0 -26 28 -26q20 0 38 12z" />
    <glyph glyph-name="iogonek" unicode="&#x12f;" horiz-adv-x="249" 
d="M125 527q-33 0 -54.5 22t-21.5 53q0 32 21.5 54t54.5 22t54.5 -22t21.5 -54t-22 -53.5t-54 -21.5zM196 -116l27 -76q-37 -28 -93 -28q-54 0 -81 25.5t-27 64.5q0 61 61 130h-26v448h136v-448q-61 -58 -61 -102q0 -26 27 -26q19 0 37 12z" />
    <glyph glyph-name="Idotaccent" unicode="&#x130;" horiz-adv-x="296" 
d="M148 750q-33 0 -54.5 22.5t-21.5 53.5q0 32 21 54.5t55 22.5q33 0 54.5 -22.5t21.5 -54.5q0 -31 -21.5 -53.5t-54.5 -22.5zM74 0v680h148v-680h-148z" />
    <glyph glyph-name="dotlessi" unicode="&#x131;" horiz-adv-x="249" 
d="M57 0v448h136v-448h-136z" />
    <glyph glyph-name="IJ" unicode="&#x132;" horiz-adv-x="792" 
d="M74 0v680h148v-680h-148zM497 -14q-115 0 -199 64l68 110q58 -43 118 -43q96 0 96 107v456h149v-455q0 -119 -59.5 -179t-172.5 -60z" />
    <glyph glyph-name="ij" unicode="&#x133;" horiz-adv-x="503" 
d="M125 527q-36 0 -57.5 21.5t-21.5 53.5t21 53.5t58 21.5t58 -21.5t21 -53.5t-21 -53.5t-58 -21.5zM377 527q-36 0 -57.5 21.5t-21.5 53.5t21.5 53.5t57.5 21.5q37 0 58.5 -21t21.5 -54q0 -32 -21.5 -53.5t-58.5 -21.5zM57 0v448h136v-448h-136zM217 -233l-17 116
q63 4 86.5 33t23.5 94v438h136v-443q0 -116 -52 -174t-177 -64z" />
    <glyph glyph-name="Jcircumflex" unicode="&#x134;" horiz-adv-x="496" 
d="M251 731l-49 60l147 115h18l146 -115l-48 -60l-107 65zM202 -14q-117 0 -199 64l67 110q58 -43 118 -43q96 0 96 107v456h149v-455q0 -119 -59.5 -179t-171.5 -60z" />
    <glyph glyph-name="jcircumflex" unicode="&#x135;" horiz-adv-x="254" 
d="M34 508l-45 55l131 107h17l130 -107l-44 -55l-94 61zM-32 -233l-17 116q63 4 86.5 33t23.5 94v438h136v-443q0 -116 -52 -174t-177 -64z" />
    <glyph glyph-name="uni0136" unicode="&#x136;" horiz-adv-x="620" 
d="M357 345l258 -341v-4h-169l-224 294v-294h-148v680h148v-295l207 295h164v-4zM244 -291q25 85 25 203h123q-10 -119 -60 -203h-88z" />
    <glyph glyph-name="uni0137" unicode="&#x137;" horiz-adv-x="486" 
d="M307 231l174 -225v-6h-152l-136 179v-179h-136v721h136v-438l126 165h150v-6zM185 -275q24 90 24 196h116q-9 -115 -57 -196h-83z" />
    <glyph glyph-name="kgreenlandic" unicode="&#x138;" horiz-adv-x="486" 
d="M307 231l174 -225v-6h-152l-136 179v-179h-136v448h136v-165l126 165h150v-6z" />
    <glyph glyph-name="Lacute" unicode="&#x139;" horiz-adv-x="519" 
d="M96 737l-55 64l159 136l78 -90zM74 0v680h148v-543h275v-137h-423z" />
    <glyph glyph-name="lacute" unicode="&#x13a;" horiz-adv-x="250" 
d="M71 778l-55 64l159 136l78 -90zM57 0v721h136v-721h-136z" />
    <glyph glyph-name="uni013B" unicode="&#x13b;" horiz-adv-x="519" 
d="M74 0v680h148v-543h275v-137h-423zM198 -291q25 85 25 203h123q-10 -119 -60 -203h-88z" />
    <glyph glyph-name="uni013C" unicode="&#x13c;" horiz-adv-x="250" 
d="M57 0v721h136v-721h-136zM47 -275q24 90 24 196h116q-9 -115 -57 -196h-83z" />
    <glyph glyph-name="Lcaron" unicode="&#x13d;" horiz-adv-x="519" 
d="M74 0v680h148v-543h275v-137h-423zM313 490q25 76 25 190h122q-8 -112 -59 -190h-88z" />
    <glyph glyph-name="lcaron" unicode="&#x13e;" horiz-adv-x="265" 
d="M57 0v721h136v-721h-136zM236 526q19 96 21 195h124q-10 -111 -55 -195h-90z" />
    <glyph glyph-name="Ldot" unicode="&#x13f;" horiz-adv-x="519" 
d="M74 0v680h148v-543h275v-137h-423zM394 306q-31 0 -54.5 20t-23.5 57t23.5 57t54.5 20q33 0 56 -20t23 -57t-23 -57t-56 -20z" />
    <glyph glyph-name="ldot" unicode="&#x140;" horiz-adv-x="413" 
d="M57 0v721h136v-721h-136zM324 274q-31 0 -54 19.5t-23 56.5t23 56.5t54 19.5q32 0 55 -19.5t23 -56.5t-23 -56.5t-55 -19.5z" />
    <glyph glyph-name="Lslash" unicode="&#x141;" horiz-adv-x="528" 
d="M231 137h275v-137h-423v250l-56 -19l-34 96l90 31v322h148v-271l121 41l34 -96l-155 -53v-164z" />
    <glyph glyph-name="lslash" unicode="&#x142;" horiz-adv-x="327" 
d="M319 357l-88 -32v-325h-136v276l-60 -22l-29 92l89 32v343h136v-293l59 21z" />
    <glyph glyph-name="Nacute" unicode="&#x143;" horiz-adv-x="742" 
d="M489 847l-182 -110l-55 64l159 136zM522 680h146v-683h-55l-338 349q-29 29 -59 62q4 -54 4 -76v-332h-146v683h53l321 -333q37 -37 76 -79q-2 36 -2 100v309z" />
    <glyph glyph-name="nacute" unicode="&#x144;" horiz-adv-x="529" 
d="M380 611l-166 -101l-51 58l146 125zM322 461q76 0 116 -46t40 -130v-285h-136v266q0 74 -63 74q-40 0 -63 -25.5t-23 -67.5v-247h-136v448h88l27 -72q52 85 150 85z" />
    <glyph glyph-name="uni0145" unicode="&#x145;" horiz-adv-x="742" 
d="M522 680h146v-683h-55l-338 349q-29 29 -59 62q4 -54 4 -76v-332h-146v683h53l321 -333q37 -37 76 -79q-2 36 -2 100v309zM308 -291q25 85 25 203h123q-10 -119 -60 -203h-88z" />
    <glyph glyph-name="uni0146" unicode="&#x146;" horiz-adv-x="529" 
d="M322 461q76 0 116 -46t40 -130v-285h-136v266q0 74 -63 74q-40 0 -63 -25.5t-23 -67.5v-247h-136v448h88l27 -72q52 85 150 85zM189 -275q24 90 24 196h116q-9 -115 -57 -196h-83z" />
    <glyph glyph-name="Ncaron" unicode="&#x147;" horiz-adv-x="742" 
d="M371 734h-19l-146 115l48 60l107 -65l107 65l49 -60zM522 680h146v-683h-55l-338 349q-29 29 -59 62q4 -54 4 -76v-332h-146v683h53l321 -333q37 -37 76 -79q-2 36 -2 100v309z" />
    <glyph glyph-name="ncaron" unicode="&#x148;" horiz-adv-x="529" 
d="M271 511h-17l-130 108l44 55l94 -61l95 61l45 -55zM322 461q76 0 116 -46t40 -130v-285h-136v266q0 74 -63 74q-40 0 -63 -25.5t-23 -67.5v-247h-136v448h88l27 -72q52 85 150 85z" />
    <glyph glyph-name="napostrophe" unicode="&#x149;" horiz-adv-x="571" 
d="M-34 454q25 85 25 203h122q-9 -118 -59 -203h-88zM98 0v448h105l14 -69q47 82 145 82q77 0 117.5 -46t40.5 -130v-285h-137v267q0 73 -63 73q-41 0 -63.5 -28.5t-22.5 -72.5v-239h-136z" />
    <glyph glyph-name="Eng" unicode="&#x14a;" horiz-adv-x="742" 
d="M522 680h147v-667q0 -116 -60 -178.5t-173 -61.5l-19 130q49 0 77 27.5t28 80.5v76l-252 264q-25 23 -52 56q2 -28 2 -72v-335h-146v683h54l332 -346q35 -34 66 -71q-4 41 -4 80v334z" />
    <glyph glyph-name="eng" unicode="&#x14b;" horiz-adv-x="529" 
d="M280 -226l-17 114q44 1 61.5 21t17.5 64v293q0 74 -63 74q-40 0 -63 -25.5t-23 -67.5v-247h-136v448h88l26 -72q52 85 151 85q76 0 116 -46t40 -130v-307q0 -100 -50.5 -152t-147.5 -52z" />
    <glyph glyph-name="Omacron" unicode="&#x14c;" horiz-adv-x="802" 
d="M252 766v101h297v-101h-297zM401 -14q-158 0 -259 100.5t-101 253.5q0 155 100.5 254.5t259.5 99.5q160 0 260 -99.5t100 -254.5q0 -153 -100.5 -253.5t-259.5 -100.5zM401 120q94 0 151 63t57 157q0 96 -56.5 158t-151.5 62t-151.5 -62t-56.5 -158q0 -94 57 -157
t151 -63z" />
    <glyph glyph-name="omacron" unicode="&#x14d;" horiz-adv-x="552" 
d="M140 540v90h270v-90h-270zM276 -14q-109 0 -177.5 66.5t-68.5 171.5t69 171t177 66t177 -66.5t69 -170.5q0 -105 -69 -171.5t-177 -66.5zM276 104q48 0 78 33t30 87q0 53 -30 86.5t-78 33.5t-78 -33.5t-30 -86.5q0 -54 30 -87t78 -33z" />
    <glyph glyph-name="Obreve" unicode="&#x14e;" horiz-adv-x="802" 
d="M402 737q-56 0 -99 31.5t-60 92.5l81 30q8 -26 29.5 -41.5t48.5 -15.5t48.5 15.5t28.5 41.5l81 -30q-17 -60 -60 -92t-98 -32zM401 -14q-158 0 -259 100.5t-101 253.5q0 155 100.5 254.5t259.5 99.5q160 0 260 -99.5t100 -254.5q0 -153 -100.5 -253.5t-259.5 -100.5z
M401 120q94 0 151 63t57 157q0 96 -56.5 158t-151.5 62t-151.5 -62t-56.5 -158q0 -94 57 -157t151 -63z" />
    <glyph glyph-name="obreve" unicode="&#x14f;" horiz-adv-x="552" 
d="M276 516q-108 0 -140 107l69 35q7 -25 26 -39t45 -14q25 0 44.5 14.5t26.5 38.5l68 -35q-31 -107 -139 -107zM276 -14q-109 0 -177.5 66.5t-68.5 171.5t69 171t177 66t177 -66.5t69 -170.5q0 -105 -69 -171.5t-177 -66.5zM276 104q48 0 78 33t30 87q0 53 -30 86.5
t-78 33.5t-78 -33.5t-30 -86.5q0 -54 30 -87t78 -33z" />
    <glyph glyph-name="Ohungarumlaut" unicode="&#x150;" horiz-adv-x="802" 
d="M309 731l-74 44l92 155l90 -53zM476 731l-72 48l105 151l87 -59zM401 -14q-158 0 -259 100.5t-101 253.5q0 155 100.5 254.5t259.5 99.5q160 0 260 -99.5t100 -254.5q0 -153 -100.5 -253.5t-259.5 -100.5zM401 120q94 0 151 63t57 157q0 96 -56.5 158t-151.5 62
t-151.5 -62t-56.5 -158q0 -94 57 -157t151 -63z" />
    <glyph glyph-name="ohungarumlaut" unicode="&#x151;" horiz-adv-x="552" 
d="M193 502l-70 43l89 150l85 -51zM354 502l-68 47l101 146l84 -57zM276 -14q-109 0 -177.5 66.5t-68.5 171.5t69 171t177 66t177 -66.5t69 -170.5q0 -105 -69 -171.5t-177 -66.5zM276 104q48 0 78 33t30 87q0 53 -30 86.5t-78 33.5t-78 -33.5t-30 -86.5q0 -54 30 -87
t78 -33z" />
    <glyph glyph-name="OE" unicode="&#x152;" horiz-adv-x="937" 
d="M626 129h270v-129h-398q-55 -14 -109 -14q-152 0 -250 102t-98 252q0 151 97.5 252.5t250.5 101.5q60 0 109 -14h389v-129h-261v-146h228v-122h-228v-154zM485 133v414q-35 15 -84 15q-92 0 -150 -62.5t-58 -159.5q0 -96 58.5 -159t149.5 -63q49 0 84 15z" />
    <glyph glyph-name="oe" unicode="&#x153;" horiz-adv-x="833" 
d="M590 461q94 0 153 -57.5t59 -165.5q0 -29 -4 -56h-302q21 -90 125 -90q65 0 116 35l49 -84q-78 -56 -176 -56q-122 0 -179 80q-57 -80 -170 -80q-103 0 -167 66.5t-64 172.5q0 102 64.5 168.5t168.5 66.5q53 0 97.5 -21t69.5 -59q56 80 160 80zM590 357q-77 0 -94 -91
h177q2 38 -20.5 64.5t-62.5 26.5zM271 104q48 0 75 32.5t27 88.5q0 55 -27 86.5t-75 31.5t-75.5 -32t-27.5 -86q0 -56 27.5 -88.5t75.5 -32.5z" />
    <glyph glyph-name="Racute" unicode="&#x154;" horiz-adv-x="627" 
d="M435 847l-182 -110l-55 64l159 136zM443 263l165 -260v-3h-168l-142 243h-76v-243h-148v680h273q107 0 173.5 -62t66.5 -157q0 -68 -38.5 -120.5t-105.5 -77.5zM222 362h108q50 0 78.5 26t28.5 70q0 42 -29 69.5t-77 27.5h-109v-193z" />
    <glyph glyph-name="racute" unicode="&#x155;" horiz-adv-x="384" 
d="M330 611l-166 -101l-51 58l146 125zM303 458q45 0 79 -21l-33 -113q-27 11 -60 11q-44 0 -70 -27t-26 -75v-233h-136v448h88l27 -70q40 80 131 80z" />
    <glyph glyph-name="uni0156" unicode="&#x156;" horiz-adv-x="627" 
d="M443 263l165 -260v-3h-168l-142 243h-76v-243h-148v680h273q107 0 173.5 -62t66.5 -157q0 -68 -38.5 -120.5t-105.5 -77.5zM222 362h108q50 0 78.5 26t28.5 70q0 42 -29 69.5t-77 27.5h-109v-193zM245 -291q25 85 25 203h123q-10 -119 -60 -203h-88z" />
    <glyph glyph-name="uni0157" unicode="&#x157;" horiz-adv-x="384" 
d="M303 458q45 0 79 -21l-33 -113q-27 11 -60 11q-44 0 -70 -27t-26 -75v-233h-136v448h88l27 -70q40 80 131 80zM42 -275q24 90 24 196h116q-9 -115 -57 -196h-83z" />
    <glyph glyph-name="Rcaron" unicode="&#x158;" horiz-adv-x="627" 
d="M318 734h-19l-146 115l48 60l107 -65l107 65l49 -60zM443 263l165 -260v-3h-168l-142 243h-76v-243h-148v680h273q107 0 173.5 -62t66.5 -157q0 -68 -38.5 -120.5t-105.5 -77.5zM222 362h108q50 0 78.5 26t28.5 70q0 42 -29 69.5t-77 27.5h-109v-193z" />
    <glyph glyph-name="rcaron" unicode="&#x159;" horiz-adv-x="384" 
d="M221 511h-17l-130 108l44 55l94 -61l95 61l45 -55zM303 458q45 0 79 -21l-33 -113q-27 11 -60 11q-44 0 -70 -27t-26 -75v-233h-136v448h88l27 -70q40 80 131 80z" />
    <glyph glyph-name="Sacute" unicode="&#x15a;" horiz-adv-x="578" 
d="M250 737l-55 64l159 136l78 -90zM294 -14q-145 0 -258 84l66 114q84 -68 186 -68q47 0 77.5 18.5t30.5 52.5q0 35 -34 56t-102 43q-200 62 -200 211q0 91 69 144t171 53q119 0 228 -69l-62 -109q-84 49 -160 49q-42 0 -69 -16.5t-27 -45.5q0 -33 33.5 -53.5t93.5 -39.5
q100 -32 154.5 -83t54.5 -132q0 -96 -71 -152.5t-181 -56.5z" />
    <glyph glyph-name="sacute" unicode="&#x15b;" horiz-adv-x="400" 
d="M158 510l-51 58l146 125l71 -82zM202 -11q-100 0 -179 50l47 90q59 -36 119 -36q25 0 39.5 9.5t14.5 26.5q0 18 -19 30t-59 27q-60 22 -90.5 54.5t-30.5 83.5q0 63 47 98t119 35q80 0 153 -40l-43 -88q-52 26 -97 26q-52 0 -52 -31q0 -17 18 -29t58 -27q130 -46 130 -139
q0 -65 -47.5 -102.5t-127.5 -37.5z" />
    <glyph glyph-name="Scircumflex" unicode="&#x15c;" horiz-adv-x="578" 
d="M198 731l-50 61l147 115h19l146 -116l-48 -60l-107 65zM294 -14q-145 0 -258 84l66 114q84 -68 186 -68q47 0 77.5 18.5t30.5 52.5q0 35 -34 56t-102 43q-200 62 -200 211q0 91 69 144t171 53q119 0 228 -69l-62 -109q-84 49 -160 49q-42 0 -69 -16.5t-27 -45.5
q0 -33 33.5 -53.5t93.5 -39.5q100 -32 154.5 -83t54.5 -132q0 -96 -71 -152.5t-181 -56.5z" />
    <glyph glyph-name="scircumflex" unicode="&#x15d;" horiz-adv-x="400" 
d="M112 508l-45 55l131 107h17l130 -107l-44 -55l-94 61zM202 -11q-100 0 -179 50l47 90q59 -36 119 -36q25 0 39.5 9.5t14.5 26.5q0 18 -19 30t-59 27q-60 22 -90.5 54.5t-30.5 83.5q0 63 47 98t119 35q80 0 153 -40l-43 -88q-52 26 -97 26q-52 0 -52 -31q0 -17 18 -29
t58 -27q130 -46 130 -139q0 -65 -47.5 -102.5t-127.5 -37.5z" />
    <glyph glyph-name="Scedilla" unicode="&#x15e;" horiz-adv-x="578" 
d="M546 195q0 -82 -53 -136t-141 -68l-17 -42q37 -5 62.5 -27t25.5 -58q0 -47 -37.5 -73.5t-99.5 -26.5q-67 0 -116 29l31 74q31 -21 69 -21q46 0 46 29q0 41 -88 41l28 72q-121 9 -220 82l66 114q84 -68 186 -68q47 0 77.5 18.5t30.5 52.5q0 35 -34 56t-102 43
q-200 62 -200 211q0 91 69 144t171 53q119 0 228 -69l-62 -109q-84 49 -160 49q-42 0 -69 -16.5t-27 -45.5q0 -33 33.5 -53.5t93.5 -39.5q100 -32 154.5 -83t54.5 -132z" />
    <glyph glyph-name="scedilla" unicode="&#x15f;" horiz-adv-x="400" 
d="M377 129q0 -56 -35.5 -92t-97.5 -45l-16 -40q81 -16 81 -82q0 -41 -33.5 -65t-88.5 -24q-60 0 -104 27l27 65q31 -19 63 -19q42 0 42 28q0 37 -81 35l28 74q-74 7 -139 48l47 90q59 -36 119 -36q25 0 39.5 9.5t14.5 26.5q0 18 -19 30t-59 27q-60 22 -90.5 54.5
t-30.5 83.5q0 63 47 98t119 35q80 0 153 -40l-43 -88q-52 26 -97 26q-52 0 -52 -31q0 -17 18 -29t58 -27q130 -46 130 -139z" />
    <glyph glyph-name="Scaron" unicode="&#x160;" horiz-adv-x="578" 
d="M295 734l-146 115l48 60l107 -65l107 65l49 -60l-146 -115h-19zM294 -14q-145 0 -258 84l66 114q84 -68 186 -68q47 0 77.5 18.5t30.5 52.5q0 35 -34 56t-102 43q-200 62 -200 211q0 91 69 144t171 53q119 0 228 -69l-62 -109q-84 49 -160 49q-42 0 -69 -16.5t-27 -45.5
q0 -33 33.5 -53.5t93.5 -39.5q100 -32 154.5 -83t54.5 -132q0 -96 -71 -152.5t-181 -56.5z" />
    <glyph glyph-name="scaron" unicode="&#x161;" horiz-adv-x="400" 
d="M198 511l-130 108l44 55l94 -61l95 61l45 -55l-131 -108h-17zM202 -11q-100 0 -179 50l47 90q59 -36 119 -36q25 0 39.5 9.5t14.5 26.5q0 18 -19 30t-59 27q-60 22 -90.5 54.5t-30.5 83.5q0 63 47 98t119 35q80 0 153 -40l-43 -88q-52 26 -97 26q-52 0 -52 -31
q0 -17 18 -29t58 -27q130 -46 130 -139q0 -65 -47.5 -102.5t-127.5 -37.5z" />
    <glyph glyph-name="uni0162" unicode="&#x162;" horiz-adv-x="554" 
d="M351 0h-24l-21 -51q38 -6 63.5 -28t25.5 -58q0 -47 -37.5 -73t-100.5 -26q-67 0 -116 29l31 74q32 -21 70 -21q45 0 45 29q0 20 -25.5 30.5t-62.5 10.5l33 84h-30v543h-183v137h516v-137h-184v-543z" />
    <glyph glyph-name="uni0163" unicode="&#x163;" horiz-adv-x="385" 
d="M259 -48q82 -16 82 -81q0 -41 -33.5 -65t-88.5 -24q-58 0 -105 26l28 65q29 -18 63 -18q42 0 42 27q0 36 -81 36l29 75q-49 12 -77 49.5t-28 100.5v191l-74 7v107h74l6 141h131v-141h129v-114h-129v-172q0 -50 45 -50q34 0 67 20l40 -102q-53 -31 -104 -38z" />
    <glyph glyph-name="Tcaron" unicode="&#x164;" horiz-adv-x="554" 
d="M287 734h-19l-146 115l48 60l107 -65l107 65l49 -60zM535 680v-137h-184v-543h-149v543h-183v137h516z" />
    <glyph glyph-name="tcaron" unicode="&#x165;" horiz-adv-x="383" 
d="M279 504q20 74 20 183h116q-9 -107 -52 -183h-84zM235 -11q-66 0 -105.5 39.5t-39.5 114.5v190l-74 7v108h74l6 141h132v-141h129v-115h-129v-171q0 -50 44 -50q32 0 65 20l39 -102q-68 -41 -141 -41z" />
    <glyph glyph-name="Tbar" unicode="&#x166;" horiz-adv-x="554" 
d="M535 543h-184v-179h111v-101h-111v-263h-149v263h-111v101h111v179h-183v137h516v-137z" />
    <glyph glyph-name="tbar" unicode="&#x167;" horiz-adv-x="383" 
d="M339 126l37 -96q-65 -41 -141 -41q-66 0 -105.5 39.5t-39.5 114.5v52h-41v74h41v76l-74 7v96h74l6 141h132v-141h129v-103h-129v-76h97v-74h-97v-42q0 -49 44 -49q32 0 67 22z" />
    <glyph glyph-name="Utilde" unicode="&#x168;" horiz-adv-x="683" 
d="M251 751l-76 42q38 102 106 102q25 0 67 -19q33 -14 44 -14q22 0 39 35l77 -41q-38 -100 -106 -100q-28 0 -57 14q-45 18 -53 18q-24 0 -41 -37zM342 -14q-127 0 -203.5 68.5t-76.5 188.5v437h149v-424q0 -66 35 -101t96 -35t96 35t35 101v424h148v-437
q0 -120 -76.5 -188.5t-202.5 -68.5z" />
    <glyph glyph-name="utilde" unicode="&#x169;" horiz-adv-x="527" 
d="M184 531l-68 38q32 86 92 86q26 0 54 -14q30 -15 44 -15q20 0 33 28l68 -37q-32 -86 -92 -86q-24 0 -51 13q-32 16 -46 16q-21 0 -34 -29zM334 448h137v-448h-92l-28 67q-51 -77 -141 -77q-78 0 -118.5 47t-40.5 130v281h136v-263q0 -74 64 -74q40 0 61.5 28.5t21.5 71.5
v237z" />
    <glyph glyph-name="Umacron" unicode="&#x16a;" horiz-adv-x="683" 
d="M193 766v101h297v-101h-297zM342 -14q-127 0 -203.5 68.5t-76.5 188.5v437h149v-424q0 -66 35 -101t96 -35t96 35t35 101v424h148v-437q0 -120 -76.5 -188.5t-202.5 -68.5z" />
    <glyph glyph-name="umacron" unicode="&#x16b;" horiz-adv-x="527" 
d="M126 540v90h270v-90h-270zM334 448h137v-448h-92l-28 67q-51 -77 -141 -77q-78 0 -118.5 47t-40.5 130v281h136v-263q0 -74 64 -74q40 0 61.5 28.5t21.5 71.5v237z" />
    <glyph glyph-name="Ubreve" unicode="&#x16c;" horiz-adv-x="683" 
d="M343 737q-56 0 -99 31.5t-60 92.5l81 30q8 -26 29.5 -41.5t48.5 -15.5t48.5 15.5t28.5 41.5l81 -30q-17 -60 -60 -92t-98 -32zM342 -14q-127 0 -203.5 68.5t-76.5 188.5v437h149v-424q0 -66 35 -101t96 -35t96 35t35 101v424h148v-437q0 -120 -76.5 -188.5t-202.5 -68.5z
" />
    <glyph glyph-name="ubreve" unicode="&#x16d;" horiz-adv-x="527" 
d="M262 516q-108 0 -140 107l69 35q7 -25 26 -39t45 -14q25 0 44.5 14.5t26.5 38.5l68 -35q-31 -107 -139 -107zM334 448h137v-448h-92l-28 67q-51 -77 -141 -77q-78 0 -118.5 47t-40.5 130v281h136v-263q0 -74 64 -74q40 0 61.5 28.5t21.5 71.5v237z" />
    <glyph glyph-name="Uring" unicode="&#x16e;" horiz-adv-x="683" 
d="M343 718q-54 0 -89.5 31.5t-35.5 83.5t35 83.5t88 31.5q54 0 89 -31.5t35 -83.5t-34.5 -83.5t-87.5 -31.5zM342 791q19 0 30.5 11.5t11.5 30.5q0 20 -12 31.5t-30 11.5q-19 0 -30.5 -12t-11.5 -31t12 -30.5t30 -11.5zM342 -14q-127 0 -203.5 68.5t-76.5 188.5v437h149
v-424q0 -66 35 -101t96 -35t96 35t35 101v424h148v-437q0 -120 -76.5 -188.5t-202.5 -68.5z" />
    <glyph glyph-name="uring" unicode="&#x16f;" horiz-adv-x="527" 
d="M261 497q-49 0 -81 28.5t-32 75.5q0 48 31.5 76.5t80.5 28.5q50 0 82 -28.5t32 -76.5q0 -47 -31.5 -75.5t-81.5 -28.5zM261 562q17 0 28 10.5t11 28.5q0 19 -11 29.5t-28 10.5t-28 -10.5t-11 -29.5q0 -18 11 -28.5t28 -10.5zM334 448h137v-448h-92l-28 67
q-51 -77 -141 -77q-78 0 -118.5 47t-40.5 130v281h136v-263q0 -74 64 -74q40 0 61.5 28.5t21.5 71.5v237z" />
    <glyph glyph-name="Uhungarumlaut" unicode="&#x170;" horiz-adv-x="683" 
d="M250 731l-74 44l92 155l90 -53zM417 731l-72 48l105 151l87 -59zM342 -14q-127 0 -203.5 68.5t-76.5 188.5v437h149v-424q0 -66 35 -101t96 -35t96 35t35 101v424h148v-437q0 -120 -76.5 -188.5t-202.5 -68.5z" />
    <glyph glyph-name="uhungarumlaut" unicode="&#x171;" horiz-adv-x="527" 
d="M178 502l-70 43l89 150l85 -51zM339 502l-68 47l101 146l84 -57zM334 448h137v-448h-92l-28 67q-51 -77 -141 -77q-78 0 -118.5 47t-40.5 130v281h136v-263q0 -74 64 -74q40 0 61.5 28.5t21.5 71.5v237z" />
    <glyph glyph-name="Uogonek" unicode="&#x172;" horiz-adv-x="683" 
d="M473 680h148v-437q0 -133 -92 -201q-102 -89 -102 -144q0 -26 28 -26q19 0 37 12l27 -89q-43 -30 -105 -30q-57 0 -87 26.5t-30 70.5q0 59 54 124h-9q-127 0 -203.5 68.5t-76.5 188.5v437h149v-424q0 -66 35 -101t96 -35t96 35t35 101v424z" />
    <glyph glyph-name="uogonek" unicode="&#x173;" horiz-adv-x="527" 
d="M461 -116l27 -76q-39 -28 -93 -28t-81 26.5t-27 65.5q0 70 87 140l-23 55q-51 -77 -141 -77q-78 0 -118.5 47t-40.5 130v281h136v-263q0 -74 64 -74q40 0 61.5 28.5t21.5 71.5v237h137v-448q-75 -59 -75 -103q0 -25 28 -25q19 0 37 12z" />
    <glyph glyph-name="Wcircumflex" unicode="&#x174;" horiz-adv-x="967" 
d="M484 796l-107 -65l-50 61l147 115h19l146 -116l-48 -60zM803 680h155v-3l-243 -680h-43l-160 323q-15 29 -29 68q-13 -39 -29 -68l-159 -323h-44l-242 680v3h158l104 -311q21 -64 27 -93q16 45 39 92l128 267h36l126 -258q29 -61 43 -97q8 30 30 94z" />
    <glyph glyph-name="wcircumflex" unicode="&#x175;" horiz-adv-x="685" 
d="M343 569l-95 -61l-45 55l131 107h17l130 -107l-44 -55zM533 448h144v-3l-176 -448h-42l-116 220l-117 -220h-42l-175 448v3h145l60 -170q8 -21 14 -47q10 22 25 49l76 144h28l75 -143q16 -28 26 -54q8 31 16 53z" />
    <glyph glyph-name="Ycircumflex" unicode="&#x176;" horiz-adv-x="657" 
d="M328 796l-107 -65l-50 61l147 115h19l146 -116l-48 -60zM479 680h167v-3l-244 -389v-288h-148v288l-243 389v3h167l104 -175q26 -45 47 -91q17 42 45 91z" />
    <glyph glyph-name="ycircumflex" unicode="&#x177;" horiz-adv-x="509" 
d="M256 569l-95 -61l-45 55l131 107h17l130 -107l-44 -55zM359 448h144v-3l-257 -665h-146v3l98 225l-191 437v3h149l78 -199q18 -47 29 -89q8 38 25 88z" />
    <glyph glyph-name="Ydieresis" unicode="&#x178;" horiz-adv-x="657" 
d="M227 754q-31 0 -51.5 21t-20.5 51t20.5 51.5t51.5 21.5t52 -21.5t21 -50.5q0 -30 -20.5 -51.5t-52.5 -21.5zM428 754q-31 0 -51.5 21.5t-20.5 50.5q0 30 20.5 51.5t51.5 21.5t51.5 -21.5t20.5 -51.5q0 -29 -20.5 -50.5t-51.5 -21.5zM479 680h167v-3l-244 -389v-288h-148
v288l-243 389v3h167l104 -175q27 -46 47 -92q15 39 45 92z" />
    <glyph glyph-name="Zacute" unicode="&#x179;" horiz-adv-x="578" 
d="M237 737l-55 64l159 136l78 -90zM31 0v44l259 430q37 61 43 70q-24 -1 -72 -1h-214v137h498v-44l-265 -439q-6 -11 -37 -61q23 1 64 1h239v-137h-515z" />
    <glyph glyph-name="zacute" unicode="&#x17a;" horiz-adv-x="421" 
d="M330 611l-166 -101l-51 58l146 125zM279 115h116v-115h-367v38l145 244q9 18 31 52q-25 -1 -54 -1h-114v115h356v-38l-139 -236q-4 -7 -11 -19t-13 -22t-12 -19q24 1 62 1z" />
    <glyph glyph-name="Zdotaccent" unicode="&#x17b;" horiz-adv-x="578" 
d="M292 750q-33 0 -54.5 22.5t-21.5 53.5q0 32 21 54.5t55 22.5q33 0 54.5 -22.5t21.5 -54.5q0 -31 -21.5 -53.5t-54.5 -22.5zM31 0v44l259 430q37 61 43 70q-24 -1 -72 -1h-214v137h498v-44l-265 -439q-6 -11 -37 -61q23 1 64 1h239v-137h-515z" />
    <glyph glyph-name="zdotaccent" unicode="&#x17c;" horiz-adv-x="421" 
d="M214 524q-30 0 -51 21t-21 50q0 30 20.5 50.5t51.5 20.5t51 -20.5t20 -51.5q0 -30 -20.5 -50t-50.5 -20zM279 115h116v-115h-367v38l145 244q11 21 30 52q-24 -1 -53 -1h-114v115h356v-38l-139 -236q-27 -45 -37 -60q24 1 63 1z" />
    <glyph glyph-name="Zcaron" unicode="&#x17d;" horiz-adv-x="578" 
d="M283 734l-146 115l48 60l107 -65l107 65l49 -60l-146 -115h-19zM31 0v44l259 430q37 61 43 70q-24 -1 -72 -1h-214v137h498v-44l-265 -439q-6 -11 -37 -61q23 1 64 1h239v-137h-515z" />
    <glyph glyph-name="zcaron" unicode="&#x17e;" horiz-adv-x="421" 
d="M222 511h-17l-130 108l44 55l94 -61l95 61l45 -55zM279 115h116v-115h-367v38l145 244q9 18 31 52q-25 -1 -54 -1h-114v115h356v-38l-139 -236q-4 -7 -11 -19t-13 -22t-12 -19q24 1 62 1z" />
    <glyph glyph-name="florin" unicode="&#x192;" horiz-adv-x="510" 
d="M414 545q-63 0 -72 -81l-7 -64h112l-13 -125h-111l-27 -257q-10 -95 -63.5 -143t-132.5 -48q-75 0 -134 46l56 109q27 -20 59 -20q63 0 72 81l24 232l-104 3l10 122h107l9 89q9 92 63 141.5t133 49.5q75 0 134 -46l-56 -109q-27 20 -59 20z" />
    <glyph glyph-name="AEacute" unicode="&#x1fc;" horiz-adv-x="905" 
d="M703 847l-182 -110l-55 64l159 136zM581 129h283v-129h-424v108h-218l-69 -108h-167v4l452 676h416v-129h-273v-145h239v-122h-239v-155zM286 216h154v153q0 66 1 101q-15 -31 -45 -81z" />
    <glyph glyph-name="aeacute" unicode="&#x1fd;" horiz-adv-x="748" 
d="M491 611l-166 -101l-51 58l146 125zM523 458q92 0 143 -60t51 -161q0 -25 -3 -52h-290q17 -95 124 -95q61 0 106 35l48 -82q-75 -56 -173 -56q-117 0 -169 94q-61 -93 -182 -93q-67 0 -107.5 34t-40.5 96q0 53 34 88.5t83.5 50t111.5 14.5q23 0 37 -2v20q0 58 -76 58
q-66 0 -136 -36l-36 98q98 49 186 49q99 0 136 -66q55 66 153 66zM424 268h167q0 42 -19.5 64.5t-55.5 22.5q-78 0 -92 -87zM212 84q37 0 61.5 27t25.5 80q-14 2 -41 2q-98 0 -98 -63q0 -22 14 -34t38 -12z" />
    <glyph glyph-name="Oslashacute" unicode="&#x1fe;" horiz-adv-x="802" 
d="M528 847l-182 -110l-55 64l159 136zM642 611q119 -100 119 -271q0 -153 -100.5 -253.5t-259.5 -100.5q-92 0 -168 37l-54 -78l-70 50l52 74q-120 101 -120 271q0 155 100.5 254.5t259.5 99.5q92 0 170 -36l67 96l70 -49zM401 563q-95 0 -151.5 -62.5t-56.5 -160.5
q0 -94 54 -156l248 359q-42 20 -94 20zM401 118q95 0 151.5 63.5t56.5 158.5t-53 157l-247 -359q40 -20 92 -20z" />
    <glyph glyph-name="oslashacute" unicode="&#x1ff;" horiz-adv-x="552" 
d="M394 611l-166 -101l-51 58l146 125zM433 412q89 -68 89 -188q0 -105 -69 -171.5t-177 -66.5q-65 0 -118 25l-35 -51l-39 26l34 50q-88 67 -88 188q0 105 69 171t177 66q62 0 116 -24l37 54l40 -26zM276 346q-50 0 -80 -33.5t-30 -88.5q0 -52 26 -84l133 196
q-25 10 -49 10zM276 102q49 0 79.5 33.5t30.5 88.5q0 52 -27 85l-133 -196q22 -11 50 -11z" />
    <glyph glyph-name="uni0218" unicode="&#x218;" horiz-adv-x="578" 
d="M294 -14q-145 0 -258 84l66 114q84 -68 186 -68q47 0 77.5 18.5t30.5 52.5q0 35 -34 56t-102 43q-200 62 -200 211q0 91 69 144t171 53q119 0 228 -69l-62 -109q-84 49 -160 49q-42 0 -69 -16.5t-27 -45.5q0 -33 33.5 -53.5t93.5 -39.5q100 -32 154.5 -83t54.5 -132
q0 -96 -71 -152.5t-181 -56.5zM216 -291q25 85 25 203h123q-10 -119 -60 -203h-88z" />
    <glyph glyph-name="uni0219" unicode="&#x219;" horiz-adv-x="400" 
d="M202 -11q-100 0 -179 50l47 90q59 -36 119 -36q25 0 39.5 9.5t14.5 26.5q0 18 -19 30t-59 27q-60 22 -90.5 54.5t-30.5 83.5q0 63 47 98t119 35q80 0 153 -40l-43 -88q-52 26 -97 26q-52 0 -52 -31q0 -17 18 -29t58 -27q130 -46 130 -139q0 -65 -47.5 -102.5
t-127.5 -37.5zM125 -275q24 90 24 196h116q-9 -115 -57 -196h-83z" />
    <glyph glyph-name="uni021A" unicode="&#x21a;" horiz-adv-x="554" 
d="M535 680v-137h-184v-543h-149v543h-183v137h516zM192 -291q25 85 25 203h123q-10 -119 -60 -203h-88z" />
    <glyph glyph-name="uni021B" unicode="&#x21b;" horiz-adv-x="385" 
d="M236 -11q-66 0 -106 39.5t-40 114.5v191l-74 7v107h74l6 141h131v-141h129v-114h-129v-172q0 -50 45 -50q34 0 67 20l40 -102q-68 -41 -143 -41zM156 -274q24 90 24 196h116q-9 -115 -57 -196h-83z" />
    <glyph glyph-name="uni0237" unicode="&#x237;" horiz-adv-x="254" 
d="M-32 -233l-17 116q63 4 86.5 33t23.5 94v438h136v-443q0 -116 -52 -174t-177 -64z" />
    <glyph glyph-name="circumflex" unicode="&#x2c6;" horiz-adv-x="416" 
d="M115 508l-45 55l131 107h17l130 -107l-44 -55l-94 61z" />
    <glyph glyph-name="caron" unicode="&#x2c7;" horiz-adv-x="416" 
d="M201 511l-130 108l44 55l94 -61l95 61l45 -55l-131 -108h-17z" />
    <glyph glyph-name="breve" unicode="&#x2d8;" horiz-adv-x="410" 
d="M205 516q-108 0 -140 107l69 35q7 -25 26 -39t45 -14q25 0 44.5 14.5t26.5 38.5l68 -35q-31 -107 -139 -107z" />
    <glyph glyph-name="dotaccent" unicode="&#x2d9;" horiz-adv-x="248" 
d="M124 524q-30 0 -51 21t-21 50q0 30 20.5 50.5t51.5 20.5t51 -20.5t20 -51.5q0 -30 -20.5 -50t-50.5 -20z" />
    <glyph glyph-name="ring" unicode="&#x2da;" horiz-adv-x="337" 
d="M170 497q-49 0 -81 28.5t-32 75.5q0 48 31.5 76.5t80.5 28.5q50 0 82 -28.5t32 -76.5q0 -47 -31.5 -75.5t-81.5 -28.5zM170 562q17 0 28 10.5t11 28.5q0 19 -10.5 29.5t-28.5 10.5t-28.5 -10.5t-10.5 -29.5q0 -18 11 -28.5t28 -10.5z" />
    <glyph glyph-name="ogonek" unicode="&#x2db;" horiz-adv-x="285" 
d="M148 -220q-54 0 -81 26.5t-27 65.5q0 81 116 162l68 -34q-75 -59 -75 -103q0 -25 28 -25q19 0 37 12l27 -76q-39 -28 -93 -28z" />
    <glyph glyph-name="tilde" unicode="&#x2dc;" horiz-adv-x="439" 
d="M143 531l-68 38q32 86 92 86q26 0 54 -14q30 -15 44 -15q20 0 33 28l68 -37q-32 -86 -92 -86q-24 0 -51 13q-32 16 -46 16q-21 0 -34 -29z" />
    <glyph glyph-name="hungarumlaut" unicode="&#x2dd;" horiz-adv-x="448" 
d="M127 502l-70 43l89 150l85 -51zM288 502l-68 47l101 146l84 -57z" />
    <glyph glyph-name="gravecomb" unicode="&#x300;" 
d="M-104 509l-168 102l72 83l147 -127z" />
    <glyph glyph-name="acutecomb" unicode="&#x301;" 
d="M-224 510l-51 58l146 125l71 -82z" />
    <glyph glyph-name="uni0302" unicode="&#x302;" 
d="M-302 508l-45 55l131 107h17l130 -107l-44 -55l-94 61z" />
    <glyph glyph-name="tildecomb" unicode="&#x303;" 
d="M-298 531l-68 38q32 86 92 86q26 0 54 -14q30 -15 44 -15q20 0 33 28l68 -37q-32 -86 -92 -86q-24 0 -51 13q-32 16 -46 16q-21 0 -34 -29z" />
    <glyph glyph-name="uni0304" unicode="&#x304;" 
d="M-337 540v90h270v-90h-270z" />
    <glyph glyph-name="uni0306" unicode="&#x306;" 
d="M-206 516q-108 0 -140 107l69 35q7 -25 26 -39t45 -14q25 0 44.5 14.5t26.5 38.5l68 -35q-31 -107 -139 -107z" />
    <glyph glyph-name="uni0307" unicode="&#x307;" 
d="M-126 524q-30 0 -51 21t-21 50q0 30 20.5 50.5t51.5 20.5t51 -20.5t20 -51.5q0 -30 -20.5 -50t-50.5 -20z" />
    <glyph glyph-name="uni0308" unicode="&#x308;" 
d="M-306 532q-27 0 -46 19t-19 45q0 27 18.5 46.5t46.5 19.5t46.5 -19.5t18.5 -45.5t-18.5 -45.5t-46.5 -19.5zM-134 532q-28 0 -46.5 19t-18.5 46q0 26 18.5 45.5t46.5 19.5t46.5 -19.5t18.5 -45.5q0 -27 -18.5 -46t-46.5 -19z" />
    <glyph glyph-name="uni030A" unicode="&#x30a;" 
d="M-169 497q-49 0 -81 28.5t-32 75.5q0 48 31.5 76.5t80.5 28.5q50 0 82 -28.5t32 -76.5q0 -47 -31.5 -75.5t-81.5 -28.5zM-169 562q17 0 28 10.5t11 28.5q0 19 -11 29.5t-28 10.5t-28 -10.5t-11 -29.5q0 -18 11 -28.5t28 -10.5z" />
    <glyph glyph-name="uni030B" unicode="&#x30b;" 
d="M-323 502l-70 43l89 150l85 -51zM-162 502l-68 47l101 146l84 -57z" />
    <glyph glyph-name="uni030C" unicode="&#x30c;" 
d="M-217 511l-130 108l44 55l94 -61l95 61l45 -55l-131 -108h-17z" />
    <glyph glyph-name="uni0312" unicode="&#x312;" 
d="M-191 522q8 112 56 196h84q-24 -90 -24 -196h-116z" />
    <glyph glyph-name="uni0326" unicode="&#x326;" 
d="M-191 -275q24 90 24 196h116q-9 -115 -57 -196h-83z" />
    <glyph glyph-name="uni0327" unicode="&#x327;" 
d="M-183 -219q-60 0 -104 27l27 65q31 -19 63 -19q42 0 42 28q0 37 -81 35l34 89h81l-21 -54q81 -16 81 -82q0 -41 -33.5 -65t-88.5 -24z" />
    <glyph glyph-name="uni0328" unicode="&#x328;" 
d="M-139 -220q-54 0 -81 26.5t-27 65.5q0 81 116 162l68 -34q-75 -59 -75 -103q0 -25 28 -25q19 0 37 12l27 -76q-39 -28 -93 -28z" />
    <glyph glyph-name="pi" unicode="&#x3c0;" horiz-adv-x="596" 
d="M96 -1v334h-74v115h556v-115h-75v-334h-130v334h-147v-334h-130z" />
    <glyph glyph-name="uni0400" unicode="&#x400;" horiz-adv-x="563" 
d="M343 737l-182 110l78 90l160 -136zM222 129h300v-129h-448v680h439v-129h-291v-145h254v-125h-254v-152z" />
    <glyph glyph-name="uni0401" unicode="&#x401;" horiz-adv-x="563" 
d="M195 754q-31 0 -51.5 21t-20.5 51t20.5 51.5t51.5 21.5t52 -21.5t21 -50.5q0 -30 -20.5 -51.5t-52.5 -21.5zM396 754q-31 0 -51.5 21.5t-20.5 50.5q0 30 20.5 51.5t51.5 21.5t51.5 -21.5t20.5 -51.5q0 -29 -20.5 -50.5t-51.5 -21.5zM222 129h300v-129h-448v680h439v-129
h-291v-145h254v-125h-254v-152z" />
    <glyph glyph-name="uni0402" unicode="&#x402;" horiz-adv-x="683" 
d="M448 420q96 0 150 -54.5t54 -154.5q0 -83 -51 -147t-142 -77l-22 122q69 21 69 102q0 89 -85 89q-43 0 -80 -15v-285h-149v543h-173v137h526v-137h-204v-139q48 16 107 16z" />
    <glyph glyph-name="uni0403" unicode="&#x403;" horiz-adv-x="529" 
d="M249 737l-55 64l159 136l78 -90zM74 0v680h438v-137h-290v-543h-148z" />
    <glyph glyph-name="uni0404" unicode="&#x404;" horiz-adv-x="691" 
d="M588 202l85 -101q-62 -58 -128 -86t-151 -28q-156 0 -254.5 102t-98.5 251q0 154 100.5 253.5t255.5 99.5q80 0 139 -22t120 -72l-75 -103q-74 63 -175 63q-79 0 -134.5 -42t-73.5 -114h251v-126h-251q17 -71 70.5 -113.5t126.5 -42.5q114 0 193 81z" />
    <glyph glyph-name="uni0405" unicode="&#x405;" horiz-adv-x="578" 
d="M294 -14q-145 0 -258 84l66 114q84 -68 186 -68q47 0 77.5 18.5t30.5 52.5q0 35 -34 56t-102 43q-200 62 -200 211q0 91 69 144t171 53q119 0 228 -69l-62 -109q-84 49 -160 49q-42 0 -69 -16.5t-27 -45.5q0 -33 33.5 -53.5t93.5 -39.5q100 -32 154.5 -83t54.5 -132
q0 -96 -71 -152.5t-181 -56.5z" />
    <glyph glyph-name="uni0406" unicode="&#x406;" horiz-adv-x="296" 
d="M74 0v680h148v-680h-148z" />
    <glyph glyph-name="uni0407" unicode="&#x407;" horiz-adv-x="296" 
d="M47 750q-31 0 -51.5 21t-20.5 50q0 30 20.5 51.5t51.5 21.5q32 0 52.5 -21t20.5 -51q0 -29 -21 -50.5t-52 -21.5zM248 750q-31 0 -51.5 21t-20.5 51q0 29 20.5 50.5t51.5 21.5t51.5 -21.5t20.5 -50.5q0 -30 -20.5 -51t-51.5 -21zM74 0v680h148v-680h-148z" />
    <glyph glyph-name="uni0408" unicode="&#x408;" horiz-adv-x="495" 
d="M202 -14q-117 0 -199 64l67 110q58 -43 118 -43q96 0 96 107v456h149v-455q0 -119 -59.5 -179t-171.5 -60z" />
    <glyph glyph-name="uni0409" unicode="&#x409;" horiz-adv-x="986" 
d="M736 433q97 0 162 -61.5t65 -155.5t-65 -155t-162 -61h-270v543h-150l-27 -242q-19 -170 -85 -239.5t-182 -70.5l-17 124q69 3 99 61.5t47 203.5l34 300h430v-247h121zM716 125q44 0 71.5 24.5t27.5 66.5t-27.5 67t-71.5 25h-101v-183h101z" />
    <glyph glyph-name="uni040A" unicode="&#x40a;" horiz-adv-x="984" 
d="M735 424q98 0 162.5 -60.5t64.5 -151.5q0 -92 -64.5 -152t-162.5 -60h-270v293h-243v-293h-148v680h148v-256h243v256h149v-256h121zM715 125q43 0 71 25t28 62t-28 62t-71 25h-101v-174h101z" />
    <glyph glyph-name="uni040B" unicode="&#x40b;" horiz-adv-x="701" 
d="M461 421q84 0 135.5 -50.5t51.5 -135.5v-235h-148v226q0 32 -20 50t-57 18q-42 0 -82 -15v-279h-149v543h-173v137h526v-137h-204v-139q58 17 120 17z" />
    <glyph glyph-name="uni040C" unicode="&#x40c;" horiz-adv-x="620" 
d="M482 847l-182 -110l-55 64l159 136zM357 345l258 -341v-4h-169l-224 294v-294h-148v680h148v-295l207 295h164v-4z" />
    <glyph glyph-name="uni040D" unicode="&#x40d;" horiz-adv-x="741" 
d="M497 801l-56 -64l-182 110l78 90zM624 683h44v-683h-149v315q0 54 4 101q-39 -45 -78 -84l-328 -335h-43v683h148v-318q0 -48 -3 -94q34 40 75 81z" />
    <glyph glyph-name="uni040E" unicode="&#x40e;" horiz-adv-x="637" 
d="M322 733q-61 0 -110 28.5t-77 80.5l83 55q38 -57 104 -57q67 0 106 58l81 -56q-27 -52 -76 -80.5t-111 -28.5zM480 680h158l-209 -456q-59 -130 -122 -177.5t-193 -54.5l-14 126q118 7 166 68l-265 494h162l175 -343z" />
    <glyph glyph-name="uni040F" unicode="&#x40f;" horiz-adv-x="705" 
d="M631 680v-680h-210v-152h-137v152h-210v680h148v-543h261v543h148z" />
    <glyph glyph-name="uni0410" unicode="&#x410;" horiz-adv-x="690" 
d="M368 683l322 -680v-3h-156l-46 106h-285l-47 -106h-156v3l323 680h45zM345 453q-23 -68 -48 -125l-50 -112h196l-50 112q-28 68 -48 125z" />
    <glyph glyph-name="uni0411" unicode="&#x411;" horiz-adv-x="620" 
d="M74 0v680h458v-131h-310v-131h137q109 0 170.5 -63.5t61.5 -145.5q0 -84 -61.5 -146.5t-170.5 -62.5h-285zM222 119h115q50 0 77.5 24t27.5 66q0 41 -27.5 65.5t-77.5 24.5h-115v-180z" />
    <glyph glyph-name="uni0412" unicode="&#x412;" horiz-adv-x="624" 
d="M479 353q50 -21 79 -65t29 -102q0 -84 -59.5 -135t-154.5 -51h-299v680h279q94 0 151.5 -49t57.5 -130q0 -99 -83 -148zM221 563v-158h103q43 0 66 21.5t23 59.5q0 36 -24.5 56.5t-65.5 20.5h-102zM343 117q44 0 69.5 23.5t25.5 63.5q0 39 -25.5 62.5t-67.5 23.5h-124
v-173h122z" />
    <glyph glyph-name="uni0413" unicode="&#x413;" horiz-adv-x="529" 
d="M74 0v680h438v-137h-290v-543h-148z" />
    <glyph glyph-name="uni0414" unicode="&#x414;" horiz-adv-x="723" 
d="M622 137h84v-289h-137v152h-427v-152h-136v289h80q44 85 57 206l35 337h444v-543zM287 320q-10 -100 -46 -183h235v406h-166z" />
    <glyph glyph-name="uni0415" unicode="&#x415;" horiz-adv-x="563" 
d="M222 129h300v-129h-448v680h439v-129h-291v-145h254v-125h-254v-152z" />
    <glyph glyph-name="uni0416" unicode="&#x416;" horiz-adv-x="901" 
d="M655 347l242 -343v-4h-172l-200 298v-298h-149v297l-199 -297h-173v4l243 342l-226 330v4h166l189 -295v295h149v-295l190 295h165v-4z" />
    <glyph glyph-name="uni0417" unicode="&#x417;" horiz-adv-x="569" 
d="M286 -13q-161 0 -264 92l66 107q78 -68 187 -68q46 0 77.5 23.5t31.5 64.5t-28 62.5t-78 21.5h-88v118h82q38 0 60 20.5t22 54.5q0 37 -27.5 58t-73.5 21q-75 0 -146 -51l-61 103q106 79 226 79q97 0 164 -53.5t67 -135.5q0 -50 -26.5 -89.5t-66.5 -56.5q57 -19 89.5 -63
t32.5 -106q0 -84 -68.5 -143t-177.5 -59z" />
    <glyph glyph-name="uni0418" unicode="&#x418;" horiz-adv-x="741" 
d="M624 683h44v-683h-149v315q0 54 4 101q-39 -45 -78 -84l-328 -335h-43v683h148v-318q0 -48 -3 -94q34 40 75 81z" />
    <glyph glyph-name="uni0419" unicode="&#x419;" horiz-adv-x="741" 
d="M393 733q-61 0 -110 28.5t-77 80.5l83 55q38 -57 104 -57q67 0 106 58l81 -56q-27 -52 -76 -80.5t-111 -28.5zM624 683h44v-683h-149v315q0 54 4 101q-39 -45 -78 -84l-328 -335h-43v683h148v-318q0 -48 -3 -94q34 40 75 81z" />
    <glyph glyph-name="uni041A" unicode="&#x41a;" horiz-adv-x="620" 
d="M357 345l258 -341v-4h-169l-224 294v-294h-148v680h148v-295l207 295h164v-4z" />
    <glyph glyph-name="uni041B" unicode="&#x41b;" horiz-adv-x="712" 
d="M24 -10l-19 124q71 5 100 58.5t45 194.5l35 313h454v-680h-149v543h-175l-28 -242q-19 -168 -81.5 -236.5t-181.5 -74.5z" />
    <glyph glyph-name="uni041C" unicode="&#x41c;" horiz-adv-x="850" 
d="M715 684l102 -684h-146l-46 315q-6 37 -9 67q-14 -24 -41 -63l-136 -198h-29l-135 198q-28 41 -42 67q-3 -31 -9 -72l-45 -314h-146l102 684h44l203 -298q23 -34 43 -69q20 35 43 69l203 298h44z" />
    <glyph glyph-name="uni041D" unicode="&#x41d;" horiz-adv-x="726" 
d="M74 0v680h148v-270h282v270h148v-680h-148v274h-282v-274h-148z" />
    <glyph glyph-name="uni041E" unicode="&#x41e;" horiz-adv-x="802" 
d="M401 -14q-158 0 -259 100.5t-101 253.5q0 155 100.5 254.5t259.5 99.5q160 0 260 -99.5t100 -254.5q0 -153 -100.5 -253.5t-259.5 -100.5zM401 120q94 0 151 63t57 157q0 96 -56.5 158t-151.5 62t-151.5 -62t-56.5 -158q0 -94 57 -157t151 -63z" />
    <glyph glyph-name="uni041F" unicode="&#x41f;" horiz-adv-x="707" 
d="M74 0v680h560v-680h-149v543h-263v-543h-148z" />
    <glyph glyph-name="uni0420" unicode="&#x420;" horiz-adv-x="601" 
d="M74 0v680h268q106 0 170.5 -65.5t64.5 -160.5t-63.5 -158.5t-172.5 -63.5h-119v-232h-148zM222 356h98q53 0 80.5 28t27.5 70q0 44 -28.5 72t-77.5 28h-100v-198z" />
    <glyph glyph-name="uni0421" unicode="&#x421;" horiz-adv-x="690" 
d="M394 -14q-157 0 -255 102t-98 252q0 154 101 254t257 100q146 0 257 -94l-74 -104q-74 64 -177 64q-95 0 -153.5 -61t-58.5 -159q0 -96 57 -158t148 -62q114 0 185 85l89 -99q-112 -120 -278 -120z" />
    <glyph glyph-name="uni0422" unicode="&#x422;" horiz-adv-x="554" 
d="M535 680v-137h-184v-543h-149v543h-183v137h516z" />
    <glyph glyph-name="uni0423" unicode="&#x423;" horiz-adv-x="637" 
d="M480 680h158l-209 -456q-59 -130 -122 -177.5t-193 -54.5l-14 126q118 7 166 68l-265 494h162l175 -343z" />
    <glyph glyph-name="uni0424" unicode="&#x424;" horiz-adv-x="843" 
d="M812 350q0 -122 -83 -204t-237 -98v-107h-142v107q-152 16 -235.5 98t-83.5 204t83 204t236 98v107h142v-107q154 -16 237 -98t83 -204zM180 350q0 -70 43.5 -115.5t130.5 -57.5v347q-87 -13 -130.5 -58.5t-43.5 -115.5zM489 178q87 12 130.5 57t43.5 115t-43.5 115.5
t-130.5 57.5v-345z" />
    <glyph glyph-name="uni0425" unicode="&#x425;" horiz-adv-x="660" 
d="M7 0v2l232 349l-213 327v2h170l82 -131q30 -47 53 -91q21 43 53 93l81 129h169v-2l-214 -327l233 -349v-2h-172l-99 154q-30 48 -52 89q-22 -41 -52 -89l-100 -154h-171z" />
    <glyph glyph-name="uni0426" unicode="&#x426;" horiz-adv-x="734" 
d="M631 137h85v-289h-137v152h-505v680h148v-543h261v543h148v-543z" />
    <glyph glyph-name="uni0427" unicode="&#x427;" horiz-adv-x="657" 
d="M435 680h148v-680h-148v239q-69 -22 -147 -22q-111 0 -176 58t-65 172v233h148v-216q0 -113 116 -113q63 0 124 27v302z" />
    <glyph glyph-name="uni0428" unicode="&#x428;" horiz-adv-x="1005" 
d="M783 680h148v-680h-857v680h148v-543h208v543h146v-543h207v543z" />
    <glyph glyph-name="uni0429" unicode="&#x429;" horiz-adv-x="1034" 
d="M931 137h85v-289h-137v152h-805v680h148v-543h208v543h146v-543h207v543h148v-543z" />
    <glyph glyph-name="uni042A" unicode="&#x42a;" horiz-adv-x="722" 
d="M472 433q97 0 162 -61.5t65 -155.5t-65 -155t-162 -61h-288v543h-166v137h314v-247h140zM452 125q44 0 71.5 24.5t27.5 66.5t-27.5 67t-71.5 25h-120v-183h120z" />
    <glyph glyph-name="uni042B" unicode="&#x42b;" horiz-adv-x="903" 
d="M74 0v680h148v-247h140q97 0 162 -61.5t65 -155.5t-65 -155t-162 -61h-288zM681 0v680h148v-680h-148zM222 125h120q44 0 71.5 24.5t27.5 66.5t-27.5 67t-71.5 25h-120v-183z" />
    <glyph glyph-name="uni042C" unicode="&#x42c;" horiz-adv-x="611" 
d="M362 433q97 0 162 -61.5t65 -155.5t-65 -155t-162 -61h-288v680h148v-247h140zM342 125q44 0 71.5 24.5t27.5 66.5t-27.5 67t-71.5 25h-120v-183h120z" />
    <glyph glyph-name="uni042D" unicode="&#x42d;" horiz-adv-x="692" 
d="M297 693q154 0 254 -99.5t100 -253.5q0 -149 -98.5 -251t-254.5 -102q-158 0 -278 114l84 101q79 -81 188 -81q78 0 132 42.5t71 114.5h-259v125h259q-17 72 -72 114t-134 42q-99 0 -179 -62l-72 103q109 93 259 93z" />
    <glyph glyph-name="uni042E" unicode="&#x42e;" horiz-adv-x="1058" 
d="M663 693q156 0 255 -99t99 -254q0 -152 -99.5 -252.5t-254.5 -100.5q-136 0 -231.5 79.5t-116.5 206.5h-93v-273h-148v680h148v-271h93q22 128 117 206t231 78zM663 121q91 0 146.5 62.5t55.5 156.5q0 96 -55 157.5t-147 61.5t-147 -61.5t-55 -157.5q0 -94 56 -156.5
t146 -62.5z" />
    <glyph glyph-name="uni042F" unicode="&#x42f;" horiz-adv-x="635" 
d="M280 680h281v-680h-148v247h-84l-151 -247h-163v5l166 257q-65 24 -100.5 79.5t-35.5 118.5q0 92 63.5 156t171.5 64zM413 363v192h-114q-50 0 -79 -27t-29 -69t29 -69t79 -27h114z" />
    <glyph glyph-name="uni0430" unicode="&#x430;" horiz-adv-x="487" 
d="M244 458q93 0 143.5 -43.5t50.5 -129.5v-285h-89l-25 63q-55 -73 -156 -73q-61 0 -99.5 33t-38.5 92q0 76 61 117t167 41q20 0 42 -2v18q0 58 -80 58q-59 0 -135 -36l-37 98q104 49 196 49zM213 83q39 0 65.5 29t27.5 81q-22 3 -45 3q-47 0 -74 -17t-27 -49q0 -47 53 -47
z" />
    <glyph glyph-name="uni0431" unicode="&#x431;" horiz-adv-x="566" 
d="M332 449q89 0 146.5 -60t57.5 -164q0 -111 -68 -174.5t-177 -63.5q-118 0 -183.5 78t-65.5 216v42q0 91 35.5 171.5t101.5 124.5q57 39 147.5 66t125.5 49l45 -119q-49 -33 -127 -55t-112 -43q-75 -43 -88 -147q60 79 162 79zM291 103q49 0 77 32.5t28 84.5q0 50 -28 82
t-76 32q-45 0 -74 -32.5t-29 -84.5t28.5 -83t73.5 -31z" />
    <glyph glyph-name="uni0432" unicode="&#x432;" horiz-adv-x="488" 
d="M388 230q71 -28 71 -106q0 -58 -40.5 -91t-108.5 -33h-253v448h237q66 0 105.5 -32.5t39.5 -88.5q0 -64 -51 -97zM258 359h-70v-92h70q26 0 39.5 13t13.5 34q0 45 -53 45zM267 89q56 0 56 48q0 22 -14 35t-42 13h-79v-96h79z" />
    <glyph glyph-name="uni0433" unicode="&#x433;" horiz-adv-x="389" 
d="M57 0v448h311v-115h-173v-333h-138z" />
    <glyph glyph-name="uni0434" unicode="&#x434;" horiz-adv-x="556" 
d="M473 110h64v-221h-122v111h-279v-111h-122v221h55q29 45 37 129l18 209h349v-338zM242 341l-11 -123q-7 -71 -26 -110h140v233h-103z" />
    <glyph glyph-name="uni0435" unicode="&#x435;" horiz-adv-x="504" 
d="M266 461q96 0 151.5 -59.5t55.5 -161.5q0 -31 -4 -58h-303q22 -90 131 -90q67 0 111 36l48 -85q-78 -57 -176 -57q-113 0 -181.5 66t-68.5 173q0 100 66 168t170 68zM263 356q-38 0 -64.5 -23.5t-34.5 -67.5h183q-1 44 -24 67.5t-60 23.5z" />
    <glyph glyph-name="uni0436" unicode="&#x436;" horiz-adv-x="692" 
d="M531 231l155 -225v-6h-148l-124 193v-193h-135l-1 195l-125 -195h-147v6l152 225l-140 211v6h147l113 -182l-1 182h137v-182l111 182h148v-6z" />
    <glyph glyph-name="uni0437" unicode="&#x437;" horiz-adv-x="425" 
d="M204 -11q-111 0 -186 47l41 92q58 -35 125 -35q75 0 75 47q0 42 -55 42h-84v92h70q49 0 49 39q0 17 -16.5 28t-46.5 11q-47 0 -101 -26l-36 92q80 40 161 40q76 0 124.5 -34t48.5 -95q0 -30 -15.5 -56t-42.5 -37q81 -24 81 -108q0 -62 -51.5 -100.5t-140.5 -38.5z" />
    <glyph glyph-name="uni0438" unicode="&#x438;" horiz-adv-x="523" 
d="M413 449h54v-449h-134v170q0 36 2 54q-12 -14 -38 -40l-187 -185h-53v449h133v-169q0 -35 -2 -52q14 16 42 44z" />
    <glyph glyph-name="uni0439" unicode="&#x439;" horiz-adv-x="523" 
d="M267 519q-52 0 -93.5 24t-64.5 69l71 52q31 -51 87 -51t87 51l72 -52q-23 -45 -65 -69t-94 -24zM413 449h54v-449h-134v170q0 36 2 54q-12 -14 -38 -40l-187 -185h-53v449h133v-169q0 -35 -2 -52q14 16 42 44z" />
    <glyph glyph-name="uni043A" unicode="&#x43a;" horiz-adv-x="486" 
d="M307 231l174 -225v-6h-152l-136 179v-179h-136v448h136v-165l126 165h150v-6z" />
    <glyph glyph-name="uni043B" unicode="&#x43b;" horiz-adv-x="530" 
d="M22 -8l-16 116q52 5 73.5 33.5t27.5 93.5l20 213h346v-448h-136v333h-91l-10 -116q-11 -116 -60.5 -168.5t-153.5 -56.5z" />
    <glyph glyph-name="uni043C" unicode="&#x43c;" horiz-adv-x="620" 
d="M545 449l40 -449h-146l-12 162l-3 38q-13 -19 -32 -39l-67 -79h-30l-63 76q-24 28 -34 42l-3 -42l-14 -158h-146l43 449h50l145 -162q17 -18 37 -45q2 2 38 44l147 163h50z" />
    <glyph glyph-name="uni043D" unicode="&#x43d;" horiz-adv-x="530" 
d="M338 448h136v-448h-136v169h-145v-169h-136v448h136v-165h145v165z" />
    <glyph glyph-name="uni043E" unicode="&#x43e;" horiz-adv-x="552" 
d="M276 -14q-109 0 -177.5 66.5t-68.5 171.5t69 171t177 66t177 -66.5t69 -170.5q0 -105 -69 -171.5t-177 -66.5zM276 104q48 0 78 33t30 87q0 53 -30 86.5t-78 33.5t-78 -33.5t-30 -86.5q0 -54 30 -87t78 -33z" />
    <glyph glyph-name="uni043F" unicode="&#x43f;" horiz-adv-x="530" 
d="M57 0v448h417v-448h-137v330h-144v-330h-136z" />
    <glyph glyph-name="uni0440" unicode="&#x440;" horiz-adv-x="572" 
d="M329 459q91 0 150 -66t59 -166q0 -106 -58 -172.5t-150 -66.5q-85 0 -139 56q2 -60 2 -94v-170h-136v668h88l26 -70q57 81 158 81zM296 104q47 0 75.5 33t28.5 87t-28.5 86.5t-75.5 32.5q-49 0 -79 -32.5t-30 -85.5q0 -54 30.5 -87.5t78.5 -33.5z" />
    <glyph glyph-name="uni0441" unicode="&#x441;" horiz-adv-x="464" 
d="M268 -14q-97 0 -167.5 63t-70.5 175q0 107 69 172t171 65t171 -60l-61 -90q-41 34 -95 34q-51 0 -84 -33t-33 -88q0 -56 33 -88.5t82 -32.5q57 0 102 42l68 -87q-76 -72 -185 -72z" />
    <glyph glyph-name="uni0442" unicode="&#x442;" horiz-adv-x="412" 
d="M137 0v333h-121v115h381v-115h-122v-333h-138z" />
    <glyph glyph-name="uni0443" unicode="&#x443;" horiz-adv-x="509" 
d="M359 448h144v-3l-168 -449q-43 -114 -99 -164t-169 -60l-19 111q63 7 97 33t57 77l1 2l-196 450v3h149l67 -172q24 -66 40 -118q13 51 36 118z" />
    <glyph glyph-name="uni0444" unicode="&#x444;" horiz-adv-x="686" 
d="M656 224q0 -101 -66.5 -166t-178.5 -70v-211h-136v210q-115 6 -180 70.5t-65 166.5t65.5 166.5t179.5 70.5v238h136v-239q112 -5 178.5 -70t66.5 -166zM407 98q55 5 85.5 37.5t30.5 88.5t-30.5 88t-85.5 37v-251zM163 224q0 -56 30 -88.5t85 -37.5v251q-55 -5 -85 -37
t-30 -88z" />
    <glyph glyph-name="uni0445" unicode="&#x445;" horiz-adv-x="485" 
d="M12 0v3l141 228l-129 214v3h148l47 -85q15 -30 24 -50q4 10 25 51l46 84h147v-3l-129 -214l141 -228v-3h-151l-52 94q-12 21 -27 57q-20 -41 -29 -57l-53 -94h-149z" />
    <glyph glyph-name="uni0446" unicode="&#x446;" horiz-adv-x="555" 
d="M472 114h64v-225h-122v111h-357v448h136v-334h142v334h137v-334z" />
    <glyph glyph-name="uni0447" unicode="&#x447;" horiz-adv-x="495" 
d="M302 448h136v-448h-136v158q-52 -29 -111 -29q-156 0 -156 159v160h136v-144q0 -34 15.5 -48t49.5 -14q36 0 66 15v191z" />
    <glyph glyph-name="uni0448" unicode="&#x448;" horiz-adv-x="754" 
d="M564 448h134v-448h-641v448h133v-334h120v334h134v-334h120v334z" />
    <glyph glyph-name="uni0449" unicode="&#x449;" horiz-adv-x="781" 
d="M698 114h64v-225h-122v111h-583v448h133v-334h120v334h134v-334h120v334h134v-334z" />
    <glyph glyph-name="uni044A" unicode="&#x44a;" horiz-adv-x="551" 
d="M362 313q76 0 122 -42.5t46 -113.5q0 -73 -45.5 -115t-122.5 -42h-237v333h-111v115h249v-135h99zM326 97q33 0 51 15.5t18 44.5q0 59 -69 59h-63v-119h63z" />
    <glyph glyph-name="uni044B" unicode="&#x44b;" horiz-adv-x="724" 
d="M294 313q76 0 122 -42.5t46 -113.5q0 -73 -45.5 -115t-122.5 -42h-237v448h138v-135h99zM531 448h136v-448h-136v448zM257 97q34 0 52 15.5t18 44.5q0 59 -70 59h-62v-119h62z" />
    <glyph glyph-name="uni044C" unicode="&#x44c;" horiz-adv-x="483" 
d="M294 313q76 0 122 -42.5t46 -113.5q0 -73 -45.5 -115t-122.5 -42h-237v448h138v-135h99zM257 97q34 0 52 15.5t18 44.5q0 59 -70 59h-62v-119h62z" />
    <glyph glyph-name="uni044D" unicode="&#x44d;" horiz-adv-x="468" 
d="M198 461q102 0 170.5 -65t68.5 -171q0 -110 -70 -174t-170 -64q-109 0 -183 73l64 81q48 -45 106 -45q43 0 73.5 23t41.5 63h-169v88h169q-12 40 -42.5 61.5t-71.5 21.5q-50 0 -98 -38l-60 82q75 64 171 64z" />
    <glyph glyph-name="uni044E" unicode="&#x44e;" horiz-adv-x="767" 
d="M493 461q108 0 175.5 -66t67.5 -171t-67.5 -171.5t-175.5 -66.5q-92 0 -155 50t-80 133h-65v-169h-136v448h136v-165h66q18 81 80.5 129.5t153.5 48.5zM493 104q47 0 76 33t29 87t-29 86.5t-76 32.5t-76 -33t-29 -86q0 -54 29 -87t76 -33z" />
    <glyph glyph-name="uni044F" unicode="&#x44f;" horiz-adv-x="507" 
d="M214 448h236v-448h-135v143h-61l-90 -143h-147v5l108 158q-78 39 -78 133q0 68 45 110t122 42zM242 235h73v113h-73q-30 0 -46 -15t-16 -42q0 -26 16 -41t46 -15z" />
    <glyph glyph-name="uni0450" unicode="&#x450;" horiz-adv-x="504" 
d="M312 509l-168 102l72 83l147 -127zM266 461q96 0 151.5 -59.5t55.5 -161.5q0 -31 -4 -58h-303q22 -90 131 -90q67 0 111 36l48 -85q-78 -57 -176 -57q-113 0 -181.5 66t-68.5 173q0 100 66 168t170 68zM263 356q-38 0 -64.5 -23.5t-34.5 -67.5h183q-1 44 -24 67.5
t-60 23.5z" />
    <glyph glyph-name="uni0451" unicode="&#x451;" horiz-adv-x="504" 
d="M174 532q-27 0 -46 19t-19 45q0 27 18.5 46.5t46.5 19.5t46.5 -19.5t18.5 -45.5t-18.5 -45.5t-46.5 -19.5zM346 532q-28 0 -46.5 19t-18.5 46q0 26 18.5 45.5t46.5 19.5t46.5 -19.5t18.5 -45.5q0 -27 -18.5 -46t-46.5 -19zM266 461q96 0 151.5 -59.5t55.5 -161.5
q0 -31 -4 -58h-303q22 -90 131 -90q67 0 111 36l48 -85q-78 -57 -176 -57q-113 0 -181.5 66t-68.5 173q0 100 66 168t170 68zM263 356q-38 0 -64.5 -23.5t-34.5 -67.5h183q-1 44 -24 67.5t-60 23.5z" />
    <glyph glyph-name="uni0452" unicode="&#x452;" horiz-adv-x="529" 
d="M320 446q77 0 117.5 -47t40.5 -127v-303q0 -102 -53 -152t-149 -50l-13 113q44 2 61 21.5t17 64.5l1 290q0 31 -16 50t-48 19q-41 0 -63 -28.5t-22 -73.5v-223h-136v527h-59v73h59v99h136v-99h151v-73h-151v-79q0 -38 -2 -64q45 62 129 62z" />
    <glyph glyph-name="uni0453" unicode="&#x453;" horiz-adv-x="389" 
d="M171 510l-51 58l146 125l71 -82zM57 0v448h311v-115h-173v-333h-138z" />
    <glyph glyph-name="uni0454" unicode="&#x454;" horiz-adv-x="463" 
d="M389 139l63 -81q-75 -71 -184 -71q-96 0 -167 63t-71 174q0 106 68.5 171.5t170.5 65.5q94 0 166 -61l-60 -83q-44 35 -95 35q-39 0 -69 -21.5t-43 -60.5h161v-88h-162q11 -41 42.5 -63t72.5 -22q59 0 107 42z" />
    <glyph glyph-name="uni0455" unicode="&#x455;" horiz-adv-x="400" 
d="M202 -11q-100 0 -179 50l47 90q59 -36 119 -36q25 0 39.5 9.5t14.5 26.5q0 18 -19 30t-59 27q-60 22 -90.5 54.5t-30.5 83.5q0 63 47 98t119 35q80 0 153 -40l-43 -88q-52 26 -97 26q-52 0 -52 -31q0 -17 18 -29t58 -27q130 -46 130 -139q0 -65 -47.5 -102.5
t-127.5 -37.5z" />
    <glyph glyph-name="uni0456" unicode="&#x456;" horiz-adv-x="249" 
d="M125 527q-36 0 -57.5 21.5t-21.5 53.5t21 53.5t58 21.5t58 -21.5t21 -53.5t-21 -53.5t-58 -21.5zM57 0v448h136v-448h-136z" />
    <glyph glyph-name="uni0457" unicode="&#x457;" horiz-adv-x="249" 
d="M43 530q-28 0 -45.5 18.5t-17.5 46.5t17.5 47.5t45.5 19.5t46 -19.5t18 -47.5q0 -27 -18 -46t-46 -19zM205 530q-28 0 -46 19t-18 46q0 28 18.5 47.5t45.5 19.5q28 0 46 -19.5t18 -47.5q0 -27 -18 -46t-46 -19zM57 0v448h136v-448h-136z" />
    <glyph glyph-name="uni0458" unicode="&#x458;" horiz-adv-x="254" 
d="M128 527q-36 0 -57.5 21.5t-21.5 53.5t21.5 53.5t57.5 21.5q37 0 58.5 -21t21.5 -54q0 -32 -21.5 -53.5t-58.5 -21.5zM-32 -233l-17 116q63 4 86.5 33t23.5 94v438h136v-443q0 -116 -52 -174t-177 -64z" />
    <glyph glyph-name="uni0459" unicode="&#x459;" horiz-adv-x="737" 
d="M557 294q72 0 116 -39t44 -107q0 -71 -44 -109.5t-116 -38.5h-228v333h-84l-13 -137q-21 -197 -210 -204l-16 114q90 6 102 133l19 209h338v-154h92zM524 94q59 0 59 54q0 51 -59 51h-59v-105h59z" />
    <glyph glyph-name="uni045A" unicode="&#x45a;" horiz-adv-x="736" 
d="M556 294q72 0 115.5 -37.5t43.5 -108.5t-44 -109.5t-115 -38.5h-229v188h-134v-188h-136v448h136v-153h134v153h136v-154h93zM522 96q59 0 59 52q0 50 -59 50h-59v-102h59z" />
    <glyph glyph-name="uni045B" unicode="&#x45b;" horiz-adv-x="529" 
d="M321 446q77 0 117 -47t40 -128v-271h-136v256q0 31 -16 50t-48 19q-41 0 -63 -28.5t-22 -73.5v-223h-136v527h-59v73h59v99h136v-99h154v-73h-154v-79q0 -38 -2 -64q45 62 130 62z" />
    <glyph glyph-name="uni045C" unicode="&#x45c;" horiz-adv-x="486" 
d="M402 611l-166 -101l-51 58l146 125zM307 231l174 -225v-6h-152l-136 179v-179h-136v448h136v-165l126 165h150v-6z" />
    <glyph glyph-name="uni045D" unicode="&#x45d;" horiz-adv-x="523" 
d="M366 571l-51 -58l-168 101l72 83zM413 449h54v-449h-134v170q0 36 2 54q-12 -14 -38 -40l-187 -185h-53v449h133v-169q0 -35 -2 -52q14 16 42 44z" />
    <glyph glyph-name="uni045E" unicode="&#x45e;" horiz-adv-x="509" 
d="M254 519q-52 0 -93.5 24t-64.5 69l71 52q31 -51 87 -51t87 51l72 -52q-23 -45 -65 -69t-94 -24zM359 448h144v-3l-168 -449q-43 -114 -99 -164t-169 -60l-19 111q63 7 97 33t57 77l1 2l-196 450v3h149l67 -172q24 -66 40 -118q13 51 36 118z" />
    <glyph glyph-name="uni045F" unicode="&#x45f;" horiz-adv-x="528" 
d="M472 448v-448h-147v-111h-122v111h-146v448h136v-334h142v334h137z" />
    <glyph glyph-name="uni0490" unicode="&#x490;" horiz-adv-x="529" 
d="M74 0v680h304v152h133v-289h-289v-543h-148z" />
    <glyph glyph-name="uni0491" unicode="&#x491;" horiz-adv-x="389" 
d="M57 0v448h190v105h121v-220h-173v-333h-138z" />
    <glyph glyph-name="Wgrave" unicode="&#x1e80;" horiz-adv-x="967" 
d="M531 737l-182 110l78 90l160 -136zM803 680h155v-3l-243 -680h-43l-160 323q-17 36 -29 68q-12 -35 -29 -68l-159 -323h-44l-242 680v3h158l104 -311q21 -64 27 -92q14 41 39 91l128 267h36l126 -258q24 -50 43 -97q8 30 30 94z" />
    <glyph glyph-name="wgrave" unicode="&#x1e81;" horiz-adv-x="685" 
d="M395 509l-168 102l72 83l147 -127zM533 448h144v-3l-176 -448h-42l-116 220l-117 -220h-42l-175 448v3h145l60 -170q7 -18 14 -47q8 16 25 49l76 144h28l75 -143q15 -27 26 -53q8 31 16 52z" />
    <glyph glyph-name="Wacute" unicode="&#x1e82;" horiz-adv-x="967" 
d="M611 847l-182 -110l-55 64l159 136zM803 680h155v-3l-243 -680h-43l-160 323q-15 29 -29 68q-13 -39 -29 -68l-159 -323h-44l-242 680v3h158l104 -311q21 -64 27 -93q16 45 39 92l128 267h36l126 -258q29 -61 43 -97q8 30 30 94z" />
    <glyph glyph-name="wacute" unicode="&#x1e83;" horiz-adv-x="685" 
d="M460 611l-166 -101l-51 58l146 125zM533 448h144v-3l-176 -448h-42l-116 220l-117 -220h-42l-175 448v3h145l60 -170q8 -21 14 -47q10 22 25 49l76 144h28l75 -143q16 -28 26 -54q8 31 16 53z" />
    <glyph glyph-name="Wdieresis" unicode="&#x1e84;" horiz-adv-x="967" 
d="M383 754q-31 0 -51.5 21t-20.5 51t20.5 51.5t51.5 21.5t52 -21.5t21 -50.5q0 -30 -20.5 -51.5t-52.5 -21.5zM584 754q-31 0 -51.5 21.5t-20.5 50.5q0 30 20.5 51.5t51.5 21.5t51.5 -21.5t20.5 -51.5q0 -29 -20.5 -50.5t-51.5 -21.5zM803 680h155v-3l-243 -680h-43
l-160 323q-17 36 -29 68q-12 -35 -29 -68l-159 -323h-44l-242 680v3h158l104 -311q21 -64 27 -92q14 41 39 91l128 267h36l126 -258q24 -50 43 -97q8 30 30 94z" />
    <glyph glyph-name="wdieresis" unicode="&#x1e85;" horiz-adv-x="685" 
d="M256 532q-27 0 -46 19t-19 45q0 27 18.5 46.5t46.5 19.5t46.5 -19.5t18.5 -45.5t-18.5 -45.5t-46.5 -19.5zM428 532q-28 0 -46.5 19t-18.5 46q0 26 18.5 45.5t46.5 19.5t46.5 -19.5t18.5 -45.5q0 -27 -18.5 -46t-46.5 -19zM533 448h144v-3l-176 -448h-42l-116 220
l-117 -220h-42l-175 448v3h145l60 -170q7 -18 14 -47q8 16 25 49l76 144h28l75 -143q15 -27 26 -53q8 31 16 52z" />
    <glyph glyph-name="uni1E9E" unicode="&#x1e9e;" horiz-adv-x="665" 
d="M473 419q73 -13 116.5 -67t43.5 -130q0 -99 -62.5 -160.5t-162.5 -61.5h-112v119h82q50 0 80 28t30 74t-30 74t-80 28h-58v62l103 176h-102q-51 0 -79.5 -31.5t-28.5 -89.5v-440h-144v439q0 115 67 178t187 63h269v-53z" />
    <glyph glyph-name="Ygrave" unicode="&#x1ef2;" horiz-adv-x="657" 
d="M376 737l-182 110l78 90l160 -136zM479 680h167v-3l-244 -389v-288h-148v288l-243 389v3h167l104 -175q27 -46 47 -92q15 39 45 92z" />
    <glyph glyph-name="ygrave" unicode="&#x1ef3;" horiz-adv-x="509" 
d="M308 509l-168 102l72 83l147 -127zM359 448h144v-3l-257 -665h-146v3l98 225l-191 437v3h149l78 -199q19 -49 28 -89q10 42 26 88z" />
    <glyph glyph-name="endash" unicode="&#x2013;" horiz-adv-x="519" 
d="M48 173v107h422v-107h-422z" />
    <glyph glyph-name="emdash" unicode="&#x2014;" horiz-adv-x="681" 
d="M48 173v106h584v-106h-584z" />
    <glyph glyph-name="quoteleft" unicode="&#x2018;" horiz-adv-x="219" 
d="M111 569q29 0 51.5 -21t22.5 -57t-23.5 -57t-51.5 -21q-33 0 -55 25.5t-22 69.5q0 56 28.5 110t79.5 95l34 -34q-56 -53 -69 -110h5z" />
    <glyph glyph-name="quoteright" unicode="&#x2019;" horiz-adv-x="219" 
d="M113 706q34 0 56.5 -25.5t22.5 -68.5q0 -118 -109 -206l-34 34q57 54 70 111h-6q-28 0 -51 21t-23 57t23 56.5t51 20.5z" />
    <glyph glyph-name="quotesinglbase" unicode="&#x201a;" horiz-adv-x="262" 
d="M129 142q36 0 57.5 -24.5t21.5 -70.5q0 -115 -116 -205l-29 35q59 55 72 110h-6q-29 0 -51.5 21t-22.5 56q0 38 22.5 58t51.5 20z" />
    <glyph glyph-name="quotedblleft" unicode="&#x201c;" horiz-adv-x="405" 
d="M112 569q28 0 50.5 -21t22.5 -57t-23 -57t-51 -21q-33 0 -55.5 26t-22.5 69q0 56 29 109.5t80 95.5l33 -33q-56 -54 -69 -111h6zM296 569q29 0 51.5 -21t22.5 -57t-23 -57t-51 -21q-33 0 -55.5 25.5t-22.5 69.5q0 56 28.5 110t79.5 95l34 -33q-57 -56 -70 -111h6z" />
    <glyph glyph-name="quotedblright" unicode="&#x201d;" horiz-adv-x="405" 
d="M114 706q33 0 55.5 -25.5t22.5 -68.5q0 -116 -109 -206l-32 34q56 53 68 111h-5q-29 0 -52 21t-23 57t23.5 56.5t51.5 20.5zM298 706q34 0 56.5 -25.5t22.5 -68.5q0 -115 -109 -206l-33 34q56 54 69 111h-6q-28 0 -50.5 21t-22.5 57t22.5 56.5t50.5 20.5z" />
    <glyph glyph-name="quotedblbase" unicode="&#x201e;" horiz-adv-x="447" 
d="M129 142q36 0 57.5 -24.5t21.5 -70.5q0 -115 -116 -205l-29 35q59 55 72 110h-6q-29 0 -51.5 21t-22.5 56q0 38 22.5 58t51.5 20zM314 142q35 0 57 -24.5t22 -70.5q0 -113 -116 -205l-29 35q58 54 71 110h-5q-29 0 -52 21t-23 56q0 37 23 57.5t52 20.5z" />
    <glyph glyph-name="dagger" unicode="&#x2020;" horiz-adv-x="581" 
d="M230 -294v576h-188v111h188v288h121v-288h188v-111h-188v-576h-121z" />
    <glyph glyph-name="daggerdbl" unicode="&#x2021;" horiz-adv-x="581" 
d="M230 -294v289h-188v110h188v177h-188v111h188v288h121v-288h188v-111h-188v-177h188v-110h-188v-289h-121z" />
    <glyph glyph-name="bullet" unicode="&#x2022;" horiz-adv-x="330" 
d="M165 241q-46 0 -78.5 28.5t-32.5 80.5t32.5 80.5t78.5 28.5t78.5 -28.5t32.5 -80.5t-32.5 -80.5t-78.5 -28.5z" />
    <glyph glyph-name="ellipsis" unicode="&#x2026;" horiz-adv-x="736" 
d="M137 -13q-34 0 -58.5 21t-24.5 60q0 40 24.5 61t58.5 21q35 0 59.5 -21t24.5 -61q0 -39 -24.5 -60t-59.5 -21zM368 -13q-34 0 -58.5 21t-24.5 60q0 40 24.5 61t58.5 21q35 0 59.5 -21t24.5 -61q0 -39 -24.5 -60t-59.5 -21zM599 -13q-35 0 -59.5 21t-24.5 60q0 40 24.5 61
t59.5 21t59 -21t24 -61q0 -39 -24.5 -60t-58.5 -21z" />
    <glyph glyph-name="perthousand" unicode="&#x2030;" horiz-adv-x="1143" 
d="M186 379q-75 0 -118.5 45.5t-43.5 111.5t43.5 111.5t118.5 45.5q74 0 118 -45.5t44 -111.5q0 -65 -44 -111t-118 -46zM138 0l392 680h119l-391 -680h-120zM186 471q29 0 43 19t14 46t-14 46.5t-43 19.5q-30 0 -44 -19.5t-14 -46.5t14 -46t44 -19zM595 -13
q-75 0 -118.5 45.5t-43.5 111.5t43.5 111.5t118.5 45.5q74 0 118 -45.5t44 -111.5t-44 -111.5t-118 -45.5zM958 -13q-75 0 -118.5 45.5t-43.5 111.5t43.5 111.5t118.5 45.5q74 0 118 -45.5t44 -111.5t-44 -111.5t-118 -45.5zM595 78q29 0 43 19.5t14 46.5t-14 46t-43 19
q-30 0 -44 -19t-14 -46t14 -46.5t44 -19.5zM958 78q29 0 43 19.5t14 46.5t-14 46t-43 19q-30 0 -44 -19t-14 -46t14 -46.5t44 -19.5z" />
    <glyph glyph-name="guilsinglleft" unicode="&#x2039;" horiz-adv-x="290" 
d="M150 39l-129 206l128 203l103 -56l-84 -147l85 -150z" />
    <glyph glyph-name="guilsinglright" unicode="&#x203a;" horiz-adv-x="290" 
d="M140 39l-103 56l85 150l-84 147l103 56l128 -203z" />
    <glyph glyph-name="fraction" unicode="&#x2044;" horiz-adv-x="121" 
d="M-155 0l353 680h90l-352 -680h-91z" />
    <glyph glyph-name="Euro" unicode="&#x20ac;" horiz-adv-x="588" 
d="M413 -13q-122 0 -205 68t-108 175h-81v77h69q0 3 -0.5 9.5t-0.5 10.5q0 13 2 29h-70v76h81q31 109 115 175t204 66q81 0 147 -33l-48 -115q-38 20 -97 20q-61 0 -104 -29.5t-62 -83.5h197l-30 -76h-182q-2 -9 -2 -29q0 -14 1 -20h165l-30 -77h-118q15 -50 58.5 -82
t113.5 -32q51 0 93 21l44 -115q-70 -35 -152 -35z" />
    <glyph glyph-name="uni20BD" unicode="&#x20bd;" horiz-adv-x="623" 
d="M367 241h-109v-50h246v-84h-246v-106h-148v106h-84v84h84v50h-84v107h84v313h258q106 0 168.5 -61t62.5 -156q0 -84 -62.5 -143.5t-169.5 -59.5zM258 536v-188h80q56 0 84 27t28 71q0 42 -29 66t-77 24h-86z" />
    <glyph glyph-name="uni2113" unicode="&#x2113;" horiz-adv-x="441" 
d="M258 -13q-155 0 -155 156v21l-15 -7.5t-22 -10.5t-22 -10l-37 82q72 32 96 45v236q0 86 41.5 140t124.5 54q76 0 112 -51t36 -118q0 -180 -211 -305v-63q0 -33 16.5 -54t47.5 -21q41 0 73 29l45 -79q-50 -44 -130 -44zM206 327q113 83 113 198q0 31 -13 53t-39 22
q-29 0 -45 -27t-16 -70v-176z" />
    <glyph glyph-name="uni2116" unicode="&#x2116;" horiz-adv-x="1059" 
d="M882 409q-65 0 -107 38.5t-42 103.5t42 103.5t107 38.5q66 0 108 -38.5t42 -103.5t-42 -103.5t-108 -38.5zM522 371v309h146v-683h-55l-338 349q-29 29 -59 62q4 -54 4 -76v-332h-146v683h53l321 -333q37 -37 76 -79q-2 36 -2 100zM882 608q-25 0 -39.5 -16t-14.5 -41
t14.5 -41t39.5 -16q26 0 40.5 16t14.5 41t-14.5 41t-40.5 16zM746 283v82h271v-82h-271z" />
    <glyph glyph-name="uni2117" unicode="&#x2117;" horiz-adv-x="770" 
d="M385 -3q-151 0 -247.5 98.5t-96.5 244.5t96.5 244t247.5 98t247.5 -98t96.5 -244t-96.5 -244.5t-247.5 -98.5zM385 60q122 0 199 79.5t77 200.5t-77 199.5t-199 78.5t-199 -78.5t-77 -199.5t77 -200.5t199 -79.5zM261 158v371h166q57 0 92.5 -37t35.5 -90
q0 -56 -35.5 -93t-94.5 -37h-66v-114h-98zM359 353h47q51 0 51 48q0 21 -13 33t-37 12h-48v-93z" />
    <glyph glyph-name="trademark" unicode="&#x2122;" horiz-adv-x="644" 
d="M110 403v202h-76v75h231v-75h-76v-202h-79zM272 403l45 277h25l96 -130l95 130h25l45 -277h-82l-16 128l-57 -77h-21l-57 77l-16 -128h-82z" />
    <glyph glyph-name="uni2126" unicode="&#x2126;" horiz-adv-x="771" 
d="M51 0v119h99q-56 42 -84.5 105t-28.5 133q0 140 97.5 238t251.5 98q153 0 250.5 -98.5t97.5 -237.5q0 -70 -28.5 -133t-83.5 -105h98v-119h-276v113q72 30 113.5 91.5t41.5 141.5q0 98 -60 158.5t-153 60.5q-94 0 -154 -60.5t-60 -158.5q0 -80 41.5 -141.5t113.5 -91.5
v-113h-276z" />
    <glyph glyph-name="estimated" unicode="&#x212e;" horiz-adv-x="760" 
d="M386 -10q-153 0 -249 103t-96 258q0 152 97 255.5t248 103.5q150 0 241.5 -102.5t91.5 -256.5q0 -4 -0.5 -12t-0.5 -12h-556v-170q80 -111 224 -111q67 0 127.5 33t101.5 89l45 -34q-106 -144 -274 -144zM162 377h440v174q-77 104 -216 104q-145 0 -224 -109v-169z" />
    <glyph glyph-name="uni2153" unicode="&#x2153;" horiz-adv-x="647" 
d="M102 397v169l-39 -32l-43 49l104 99h55v-285h-77zM84 0l353 680h90l-352 -680h-91zM503 -12q-64 0 -106 36l38 55q23 -20 58 -20q39 0 39 30q0 27 -38 27h-33v58h26q32 0 32 25q0 24 -29 24q-24 0 -46 -15l-39 50q39 36 99 36q40 0 66 -23t26 -58q0 -22 -11 -39t-28 -24
q21 -6 37 -26t16 -46q0 -40 -29 -65t-78 -25z" />
    <glyph glyph-name="uni2154" unicode="&#x2154;" horiz-adv-x="696" 
d="M42 436l105 117q20 23 20 41q0 27 -28 27q-23 0 -41 -37l-58 30q25 77 105 77q45 0 72 -26.5t27 -64.5q0 -43 -36 -84l-44 -52h90v-67h-212v39zM486 680h90l-352 -680h-91zM606 150q21 -6 37 -26t16 -46q0 -40 -29 -65t-78 -25q-64 0 -106 36l38 55q23 -20 58 -20
q39 0 39 30q0 27 -38 27h-33v58h26q32 0 32 25q0 24 -29 24q-24 0 -46 -15l-39 50q39 36 99 36q40 0 66 -23t26 -58q0 -22 -11 -39t-28 -24z" />
    <glyph glyph-name="oneeighth" unicode="&#x215b;" horiz-adv-x="657" 
d="M102 397v169l-39 -32l-43 49l104 99h55v-285h-77zM84 0l353 680h90l-352 -680h-91zM508 -11q-51 0 -81 24t-30 66q0 47 45 71q-34 21 -34 62q0 38 27.5 60t73.5 22q45 0 71.5 -22t26.5 -59q0 -42 -34 -63q46 -22 46 -71q0 -42 -30 -66t-81 -24zM509 177q11 0 18 8t7 19
q0 12 -7 20t-18 8q-12 0 -19.5 -8t-7.5 -20q0 -27 27 -27zM508 53q16 0 25.5 9.5t9.5 24.5q0 16 -10 25.5t-25 9.5q-16 0 -25.5 -9.5t-9.5 -25.5q0 -15 9.5 -24.5t25.5 -9.5z" />
    <glyph glyph-name="threeeighths" unicode="&#x215c;" horiz-adv-x="705" 
d="M143 385q-64 0 -106 36l38 55q23 -20 58 -20q39 0 39 30q0 27 -38 27h-33v58h26q32 0 32 25q0 24 -29 24q-24 0 -46 -15l-39 50q39 36 99 36q40 0 66 -23t26 -58q0 -22 -11 -39t-28 -24q21 -6 37 -26t16 -46q0 -40 -29 -65t-78 -25zM132 0l353 680h90l-352 -680h-91z
M556 -11q-51 0 -81 24t-30 66q0 47 45 71q-34 21 -34 62q0 38 27.5 60t73.5 22q45 0 71.5 -22t26.5 -59q0 -42 -34 -63q46 -22 46 -71q0 -42 -30 -66t-81 -24zM557 177q11 0 18 8t7 19q0 12 -7 20t-18 8q-12 0 -19.5 -8t-7.5 -20q0 -27 27 -27zM556 53q16 0 25.5 9.5
t9.5 24.5q0 16 -10 25.5t-25 9.5q-16 0 -25.5 -9.5t-9.5 -25.5q0 -15 9.5 -24.5t25.5 -9.5z" />
    <glyph glyph-name="fiveeighths" unicode="&#x215d;" horiz-adv-x="698" 
d="M134 386q-57 0 -96 33l37 53q22 -19 50 -19q17 0 28 9.5t11 25.5q0 37 -53 37q-19 0 -46 -8l-6 7l19 156h154v-68h-93l-4 -39q2 0 6 0.5t6 0.5q39 0 67 -23.5t28 -66.5q0 -44 -30 -71t-78 -27zM125 0l353 680h90l-352 -680h-91zM549 -11q-51 0 -81 24t-30 66q0 47 45 71
q-34 21 -34 62q0 38 27.5 60t73.5 22q45 0 71.5 -22t26.5 -59q0 -42 -34 -63q46 -22 46 -71q0 -42 -30 -66t-81 -24zM550 177q11 0 18 8t7 19q0 12 -7 20t-18 8q-12 0 -19.5 -8t-7.5 -20q0 -27 27 -27zM549 53q16 0 25.5 9.5t9.5 24.5q0 16 -10 25.5t-25 9.5
q-16 0 -25.5 -9.5t-9.5 -25.5q0 -15 9.5 -24.5t25.5 -9.5z" />
    <glyph glyph-name="seveneighths" unicode="&#x215e;" horiz-adv-x="642" 
d="M54 397l83 215h-99v68h200v-16l-103 -267h-81zM69 0l353 680h90l-352 -680h-91zM493 -11q-51 0 -81 24t-30 66q0 47 45 71q-34 21 -34 62q0 38 27.5 60t73.5 22q45 0 71.5 -22t26.5 -59q0 -42 -34 -63q46 -22 46 -71q0 -42 -30 -66t-81 -24zM494 177q11 0 18 8t7 19
q0 12 -7 20t-18 8q-12 0 -19.5 -8t-7.5 -20q0 -27 27 -27zM493 53q16 0 25.5 9.5t9.5 24.5q0 16 -10 25.5t-25 9.5q-16 0 -25.5 -9.5t-9.5 -25.5q0 -15 9.5 -24.5t25.5 -9.5z" />
    <glyph glyph-name="arrowleft" unicode="&#x2190;" horiz-adv-x="626" 
d="M608 264h-316q-33 0 -54 1q15 -10 37 -32l78 -77l-85 -86l-260 260l261 260l84 -85l-77 -76q-16 -15 -38 -35q40 2 54 2h316v-132z" />
    <glyph glyph-name="arrowup" unicode="&#x2191;" horiz-adv-x="546" 
d="M207 46v316q0 33 1 53q-10 -14 -32 -36l-77 -78l-86 84l260 261l260 -261l-85 -84l-76 76l-35 38q2 -38 2 -53v-316h-132z" />
    <glyph glyph-name="arrowright" unicode="&#x2192;" horiz-adv-x="626" 
d="M18 436h316q33 0 53 -1q-14 10 -36 32l-78 77l84 86l261 -260l-261 -260l-84 85l76 76l38 35q-38 -2 -53 -2h-316v132z" />
    <glyph glyph-name="arrowdown" unicode="&#x2193;" horiz-adv-x="546" 
d="M339 655v-316q0 -33 -1 -53q6 8 32 36l78 78l85 -84l-260 -261l-260 261l85 84l77 -76q19 -20 34 -38q-2 38 -2 53v316h132z" />
    <glyph glyph-name="arrowboth" unicode="&#x2194;" horiz-adv-x="822" 
d="M269 91l-261 260l261 260l85 -85l-77 -77q-28 -26 -38 -34q38 2 54 2h237q33 0 53 -1q-14 10 -36 32l-79 78l85 85l261 -260l-261 -260l-85 85l77 77q28 26 38 34q-38 -2 -54 -2h-237q-33 0 -53 1q14 -10 36 -32l79 -78z" />
    <glyph glyph-name="arrowupdn" unicode="&#x2195;" horiz-adv-x="546" 
d="M13 496l260 262l260 -262l-85 -84l-76 76q-16 16 -35 38q2 -40 2 -54v-237q0 -33 -1 -54q14 19 32 37l78 78l85 -84l-260 -262l-260 262l85 85l77 -77q14 -14 34 -39q-2 38 -2 55v237q0 33 1 53q-10 -14 -32 -36l-77 -79z" />
    <glyph glyph-name="uni2196" unicode="&#x2196;" horiz-adv-x="499" 
d="M395 77l-224 223q-23 23 -36 38q2 -17 2 -48l1 -110l-120 -1l-1 369l369 -1v-120h-109q-23 0 -51 3q28 -26 39 -37l223 -223z" />
    <glyph glyph-name="uni2197" unicode="&#x2197;" horiz-adv-x="499" 
d="M11 173l223 224q23 23 39 37q-18 -3 -49 -3l-110 -1v120l368 1l-1 -369l-120 1v108q2 45 3 51q-26 -28 -37 -39l-223 -223z" />
    <glyph glyph-name="uni2198" unicode="&#x2198;" horiz-adv-x="499" 
d="M104 593l223 -224q21 -20 37 -38q-3 25 -3 48v110l120 1l1 -369l-369 1v120h109q22 0 51 -3q-28 26 -39 37l-224 223z" />
    <glyph glyph-name="uni2199" unicode="&#x2199;" horiz-adv-x="499" 
d="M488 500l-223 -223q-9 -9 -39 -37q27 3 49 3h110v-120h-368l1 368h120v-109q-2 -45 -3 -51q26 28 37 39l223 224z" />
    <glyph glyph-name="partialdiff" unicode="&#x2202;" horiz-adv-x="504" 
d="M246 -13q-91 0 -153.5 56t-62.5 153q0 102 57 161t136 59q64 0 107 -40q-30 74 -96.5 131t-149.5 84l60 114q159 -61 244 -186t85 -272q0 -115 -60 -187.5t-167 -72.5zM249 106q45 0 66.5 32t21.5 78q0 37 -23 61.5t-61 24.5q-39 0 -64 -27.5t-25 -74.5q0 -40 23 -67
t62 -27z" />
    <glyph glyph-name="emptyset" unicode="&#x2205;" horiz-adv-x="816" 
d="M772 689l-98 -107q88 -97 88 -242q0 -152 -99.5 -252.5t-254.5 -100.5q-123 0 -216 68l-57 -63h-94l100 109q-87 98 -87 239q0 155 99.5 254t254.5 99q123 0 215 -65l56 61h93zM151 340q0 -100 54 -169l355 388q-61 43 -152 43q-119 0 -188 -73t-69 -189zM665 340
q0 103 -54 172l-356 -389q62 -45 153 -45q119 0 188 74t69 188z" />
    <glyph glyph-name="uni2206" unicode="&#x2206;" horiz-adv-x="660" 
d="M0 0v4l308 679h43l309 -680v-3h-660zM194 114h270l-134 295z" />
    <glyph glyph-name="product" unicode="&#x220f;" horiz-adv-x="681" 
d="M74 0v680h534v-680h-149v555h-237v-555h-148z" />
    <glyph glyph-name="summation" unicode="&#x2211;" horiz-adv-x="547" 
d="M33 0v59l197 281l-197 281v59h486v-128h-272l152 -212l-152 -212h272v-128h-486z" />
    <glyph glyph-name="minus" unicode="&#x2212;" horiz-adv-x="499" 
d="M52 283v109h396v-109h-396z" />
    <glyph glyph-name="radical" unicode="&#x221a;" horiz-adv-x="646" 
d="M537 728h139l-316 -728h-79l-135 293h-135v120h212l96 -226z" />
    <glyph glyph-name="infinity" unicode="&#x221e;" horiz-adv-x="723" 
d="M204 185q-70 0 -116.5 45.5t-46.5 119.5t46.5 119.5t116.5 45.5q85 0 158 -84q71 84 157 84q70 0 116.5 -45.5t46.5 -119.5t-46.5 -119.5t-116.5 -45.5q-86 0 -157 84q-73 -84 -158 -84zM216 295q38 0 87 55q-49 55 -87 55q-21 0 -37.5 -15t-16.5 -40t16.5 -40t37.5 -15z
M507 295q21 0 37.5 15t16.5 40t-16.5 40t-37.5 15q-39 0 -86 -55q47 -55 86 -55z" />
    <glyph glyph-name="integral" unicode="&#x222b;" horiz-adv-x="461" 
d="M110 -182q-69 0 -130 45l54 100q32 -23 63 -23q63 0 63 74v489q0 92 50.5 141t130.5 49q70 0 131 -44l-54 -100q-36 23 -64 23q-62 0 -62 -74v-490q0 -92 -51 -141t-131 -49z" />
    <glyph glyph-name="approxequal" unicode="&#x2248;" horiz-adv-x="568" 
d="M142 353l-96 48q16 60 52.5 94.5t90.5 34.5q40 0 92 -29q58 -32 78 -32q38 0 56 56l97 -46q-15 -61 -51 -97t-89 -36q-40 0 -90 28q-3 2 -13.5 8t-15 8t-13 6t-14 6t-12.5 3.5t-13 1.5q-23 0 -36 -13.5t-23 -40.5zM152 149l-96 47q16 61 52.5 95.5t90.5 34.5q41 0 92 -30
q58 -32 78 -32q38 0 56 57l97 -46q-15 -61 -51 -97.5t-89 -36.5q-38 0 -90 29q-3 2 -13.5 8t-15 8t-13 6t-14 6t-12.5 3.5t-13 1.5q-23 0 -36 -13.5t-23 -40.5z" />
    <glyph glyph-name="notequal" unicode="&#x2260;" horiz-adv-x="509" 
d="M449 382h-131l-48 -82h179v-111h-244l-60 -103l-59 38l38 65h-59v111h123l47 82h-170v111h235l62 108l63 -35l-43 -73h67v-111z" />
    <glyph glyph-name="lessequal" unicode="&#x2264;" horiz-adv-x="431" 
d="M384 224l-350 143v114l350 143v-129l-193 -71l193 -71v-129zM384 81h-350v105h350v-105z" />
    <glyph glyph-name="greaterequal" unicode="&#x2265;" horiz-adv-x="431" 
d="M47 224v129l193 71l-193 71v129l351 -143v-114zM47 81v105h351v-105h-351z" />
    <glyph glyph-name="lozenge" unicode="&#x25ca;" horiz-adv-x="568" 
d="M260 0l-231 340l231 340h48l231 -340l-231 -340h-48zM284 188l101 152l-101 149l-101 -149z" />
    <glyph glyph-name="i.loclTRK" horiz-adv-x="249" 
d="M125 531q-32 0 -53.5 21.5t-21.5 52.5q0 32 21 54t54 22t54 -22t21 -54q0 -31 -21.5 -52.5t-53.5 -21.5zM57 0v448h136v-448h-136z" />
    <glyph glyph-name="germandbls.calt" horiz-adv-x="665" 
d="M473 419q73 -13 116.5 -67t43.5 -130q0 -99 -62.5 -160.5t-162.5 -61.5h-112v119h82q50 0 80 28t30 74t-30 74t-80 28h-58v62l103 176h-102q-51 0 -79.5 -31.5t-28.5 -89.5v-440h-144v439q0 115 67 178t187 63h269v-53z" />
    <glyph glyph-name="a.ss01" horiz-adv-x="572" 
d="M416 448h100v-448h-102l-18 60q-56 -72 -155 -72q-92 0 -149.5 65t-57.5 171q0 104 58.5 169.5t150.5 65.5q99 0 153 -74zM276 104q49 0 78.5 32t29.5 88q0 55 -29.5 87t-78.5 32q-47 0 -76 -32t-29 -87q0 -56 29 -88t76 -32z" />
    <glyph glyph-name="aacute.ss01" horiz-adv-x="572" 
d="M389 611l-166 -101l-51 58l146 125zM416 448h100v-448h-102l-18 60q-56 -72 -155 -72q-92 0 -149.5 65t-57.5 171q0 104 58.5 169.5t150.5 65.5q97 0 153 -74zM276 104q49 0 78.5 32t29.5 88q0 55 -29.5 87t-78.5 32q-47 0 -76 -32t-29 -87q0 -56 29 -88t76 -32z" />
    <glyph glyph-name="abreve.ss01" horiz-adv-x="572" 
d="M273 516q-108 0 -140 107l69 35q7 -25 26 -39t45 -14q25 0 44.5 14.5t26.5 38.5l68 -35q-31 -107 -139 -107zM416 448h100v-448h-102l-18 60q-56 -72 -155 -72q-92 0 -149.5 65t-57.5 171q0 104 58.5 169.5t150.5 65.5q97 0 153 -74zM276 104q49 0 78.5 32t29.5 88
q0 55 -29.5 87t-78.5 32q-47 0 -76 -32t-29 -87q0 -56 29 -88t76 -32z" />
    <glyph glyph-name="acircumflex.ss01" horiz-adv-x="572" 
d="M272 569l-95 -61l-45 55l131 107h17l130 -107l-44 -55zM416 448h100v-448h-102l-18 60q-56 -72 -155 -72q-92 0 -149.5 65t-57.5 171q0 104 58.5 169.5t150.5 65.5q97 0 153 -74zM276 104q49 0 78.5 32t29.5 88q0 55 -29.5 87t-78.5 32q-47 0 -76 -32t-29 -87
q0 -56 29 -88t76 -32z" />
    <glyph glyph-name="adieresis.ss01" horiz-adv-x="572" 
d="M186 532q-27 0 -46 19t-19 45q0 27 18.5 46.5t46.5 19.5t46.5 -19.5t18.5 -45.5t-18.5 -45.5t-46.5 -19.5zM358 532q-28 0 -46.5 19t-18.5 46q0 26 18.5 45.5t46.5 19.5t46.5 -19.5t18.5 -45.5q0 -27 -18.5 -46t-46.5 -19zM416 448h100v-448h-102l-18 60
q-56 -72 -155 -72q-92 0 -149.5 65t-57.5 171q0 104 58.5 169.5t150.5 65.5q99 0 153 -74zM276 104q49 0 78.5 32t29.5 88q0 55 -29.5 87t-78.5 32q-47 0 -76 -32t-29 -87q0 -56 29 -88t76 -32z" />
    <glyph glyph-name="agrave.ss01" horiz-adv-x="572" 
d="M324 509l-168 102l72 83l147 -127zM416 448h100v-448h-102l-18 60q-56 -72 -155 -72q-92 0 -149.5 65t-57.5 171q0 104 58.5 169.5t150.5 65.5q99 0 153 -74zM276 104q49 0 78.5 32t29.5 88q0 55 -29.5 87t-78.5 32q-47 0 -76 -32t-29 -87q0 -56 29 -88t76 -32z" />
    <glyph glyph-name="amacron.ss01" horiz-adv-x="572" 
d="M137 540v90h270v-90h-270zM416 448h100v-448h-102l-18 60q-56 -72 -155 -72q-92 0 -149.5 65t-57.5 171q0 104 58.5 169.5t150.5 65.5q99 0 153 -74zM276 104q49 0 78.5 32t29.5 88q0 55 -29.5 87t-78.5 32q-47 0 -76 -32t-29 -87q0 -56 29 -88t76 -32z" />
    <glyph glyph-name="aogonek.ss01" horiz-adv-x="586" 
d="M520 -116l27 -76q-39 -28 -93 -28t-81 26.5t-27 65.5q0 66 80 134l-16 54q-56 -72 -155 -72q-92 0 -149.5 65t-57.5 171q0 104 58.5 169.5t150.5 65.5q99 0 153 -74l20 63h100v-448q-75 -59 -75 -103q0 -25 28 -25q19 0 37 12zM290 104q49 0 78.5 32t29.5 88
q0 55 -29.5 87t-78.5 32q-47 0 -76 -32t-29 -87q0 -56 29 -88t76 -32z" />
    <glyph glyph-name="atilde.ss01" horiz-adv-x="572" 
d="M195 531l-68 38q32 86 92 86q26 0 54 -14q30 -15 44 -15q20 0 33 28l68 -37q-32 -86 -92 -86q-24 0 -51 13q-32 16 -46 16q-21 0 -34 -29zM416 448h100v-448h-102l-18 60q-56 -72 -155 -72q-92 0 -149.5 65t-57.5 171q0 104 58.5 169.5t150.5 65.5q99 0 153 -74zM276 104
q49 0 78.5 32t29.5 88q0 55 -29.5 87t-78.5 32q-47 0 -76 -32t-29 -87q0 -56 29 -88t76 -32z" />
    <glyph glyph-name="ae.ss01" horiz-adv-x="837" 
d="M643 92q71 0 118 35l45 -86q-69 -52 -162 -52q-108 0 -156 74l-6 -63h-90l-6 56q-55 -67 -148 -67q-89 0 -146.5 64t-57.5 171q0 105 58.5 170t147.5 65q93 0 144 -66l9 55h87l10 -62q46 75 153 75q74 0 121.5 -42t47.5 -111q0 -140 -192 -140q-60 0 -98 6
q25 -82 121 -82zM621 358q-41 0 -67.5 -26.5t-34.5 -73.5q38 -5 80 -5q93 0 93 52q0 24 -19.5 38.5t-51.5 14.5zM273 104q52 0 78.5 32.5t26.5 87.5q0 53 -26.5 85.5t-78.5 32.5q-46 0 -73.5 -32t-27.5 -86q0 -56 27.5 -88t73.5 -32z" />
    <glyph glyph-name="aeacute.ss01" horiz-adv-x="837" 
d="M556 611l-166 -101l-51 58l146 125zM643 92q71 0 118 35l45 -86q-69 -52 -162 -52q-108 0 -156 74l-6 -63h-90l-6 56q-55 -67 -148 -67q-89 0 -146.5 64t-57.5 171q0 105 58.5 170t147.5 65q93 0 144 -66l9 55h87l10 -62q46 75 153 75q74 0 121.5 -42t47.5 -111
q0 -140 -192 -140q-60 0 -98 6q25 -82 121 -82zM621 358q-41 0 -67.5 -26.5t-34.5 -73.5q38 -5 80 -5q93 0 93 52q0 24 -19.5 38.5t-51.5 14.5zM273 104q52 0 78.5 32.5t26.5 87.5q0 53 -26.5 85.5t-78.5 32.5q-46 0 -73.5 -32t-27.5 -86q0 -56 27.5 -88t73.5 -32z" />
    <glyph glyph-name="e.ss01" horiz-adv-x="486" 
d="M295 90q68 0 115 38l46 -87q-78 -55 -181 -55q-110 0 -177.5 66t-67.5 172q0 100 65 168.5t172 68.5q89 0 141.5 -44t52.5 -115q0 -63 -48.5 -99t-142.5 -36q-44 0 -100 6q27 -83 125 -83zM270 358q-42 0 -70 -25t-35 -74q42 -5 83 -5q49 0 71 12t22 38q0 23 -19.5 38.5
t-51.5 15.5z" />
    <glyph glyph-name="eacute.ss01" horiz-adv-x="486" 
d="M378 611l-166 -101l-51 58l146 125zM295 90q68 0 115 38l46 -87q-78 -55 -181 -55q-110 0 -177.5 66t-67.5 172q0 100 65 168.5t172 68.5q89 0 141.5 -44t52.5 -115q0 -63 -48.5 -99t-142.5 -36q-44 0 -100 6q12 -41 45.5 -62t79.5 -21zM270 358q-42 0 -70 -25.5
t-35 -73.5q42 -5 83 -5q49 0 71 12t22 38q0 23 -19.5 38.5t-51.5 15.5z" />
    <glyph glyph-name="ebreve.ss01" horiz-adv-x="486" 
d="M262 516q-108 0 -140 107l69 35q7 -25 26 -39t45 -14q25 0 44.5 14.5t26.5 38.5l68 -35q-31 -107 -139 -107zM295 90q68 0 115 38l46 -87q-78 -55 -181 -55q-110 0 -177.5 66t-67.5 172q0 100 65 168.5t172 68.5q89 0 141.5 -44t52.5 -115q0 -63 -48.5 -99t-142.5 -36
q-44 0 -100 6q12 -41 45.5 -62t79.5 -21zM270 358q-42 0 -70 -25.5t-35 -73.5q42 -5 83 -5q49 0 71 12t22 38q0 23 -19.5 38.5t-51.5 15.5z" />
    <glyph glyph-name="ecaron.ss01" horiz-adv-x="486" 
d="M270 511h-17l-130 108l44 55l94 -61l95 61l45 -55zM295 90q68 0 115 38l46 -87q-78 -55 -181 -55q-110 0 -177.5 66t-67.5 172q0 100 65 168.5t172 68.5q89 0 141.5 -44t52.5 -115q0 -63 -48.5 -99t-142.5 -36q-44 0 -100 6q12 -41 45.5 -62t79.5 -21zM270 358
q-42 0 -70 -25.5t-35 -73.5q42 -5 83 -5q49 0 71 12t22 38q0 23 -19.5 38.5t-51.5 15.5z" />
    <glyph glyph-name="ecircumflex.ss01" horiz-adv-x="486" 
d="M261 569l-95 -61l-45 55l131 107h17l130 -107l-44 -55zM295 90q68 0 115 38l46 -87q-78 -55 -181 -55q-110 0 -177.5 66t-67.5 172q0 100 65 168.5t172 68.5q89 0 141.5 -44t52.5 -115q0 -63 -48.5 -99t-142.5 -36q-44 0 -100 6q12 -41 45.5 -62t79.5 -21zM270 358
q-42 0 -70 -25.5t-35 -73.5q42 -5 83 -5q49 0 71 12t22 38q0 23 -19.5 38.5t-51.5 15.5z" />
    <glyph glyph-name="edieresis.ss01" horiz-adv-x="486" 
d="M175 532q-27 0 -46 19t-19 45q0 27 18.5 46.5t46.5 19.5t46.5 -19.5t18.5 -45.5t-18.5 -45.5t-46.5 -19.5zM347 532q-28 0 -46.5 19t-18.5 46q0 26 18.5 45.5t46.5 19.5t46.5 -19.5t18.5 -45.5q0 -27 -18.5 -46t-46.5 -19zM295 90q68 0 115 38l46 -87q-78 -55 -181 -55
q-110 0 -177.5 66t-67.5 172q0 100 65 168.5t172 68.5q89 0 141.5 -44t52.5 -115q0 -63 -48.5 -99t-142.5 -36q-44 0 -100 6q27 -83 125 -83zM270 358q-42 0 -70 -25t-35 -74q42 -5 83 -5q49 0 71 12t22 38q0 23 -19.5 38.5t-51.5 15.5z" />
    <glyph glyph-name="edotaccent.ss01" horiz-adv-x="486" 
d="M261 524q-31 0 -51.5 21t-20.5 50q0 30 20.5 50.5t51.5 20.5t51 -20.5t20 -51.5q0 -30 -20 -50t-51 -20zM295 90q68 0 115 38l46 -87q-78 -55 -181 -55q-110 0 -177.5 66t-67.5 172q0 100 65 168.5t172 68.5q89 0 141.5 -44t52.5 -115q0 -63 -48.5 -99t-142.5 -36
q-44 0 -100 6q27 -83 125 -83zM270 358q-42 0 -70 -25t-35 -74q42 -5 83 -5q49 0 71 12t22 38q0 23 -19.5 38.5t-51.5 15.5z" />
    <glyph glyph-name="egrave.ss01" horiz-adv-x="486" 
d="M313 509l-168 102l72 83l147 -127zM295 90q68 0 115 38l46 -87q-78 -55 -181 -55q-110 0 -177.5 66t-67.5 172q0 100 65 168.5t172 68.5q89 0 141.5 -44t52.5 -115q0 -63 -48.5 -99t-142.5 -36q-44 0 -100 6q27 -83 125 -83zM270 358q-42 0 -70 -25t-35 -74q42 -5 83 -5
q49 0 71 12t22 38q0 23 -19.5 38.5t-51.5 15.5z" />
    <glyph glyph-name="emacron.ss01" horiz-adv-x="486" 
d="M126 540v90h270v-90h-270zM295 90q68 0 115 38l46 -87q-78 -55 -181 -55q-110 0 -177.5 66t-67.5 172q0 100 65 168.5t172 68.5q89 0 141.5 -44t52.5 -115q0 -63 -48.5 -99t-142.5 -36q-44 0 -100 6q27 -83 125 -83zM270 358q-42 0 -70 -25t-35 -74q42 -5 83 -5
q49 0 71 12t22 38q0 23 -19.5 38.5t-51.5 15.5z" />
    <glyph glyph-name="eogonek.ss01" horiz-adv-x="487" 
d="M390 -129q18 0 36 12l27 -75q-40 -29 -93 -29q-54 0 -81 26t-27 66q0 55 57 117q-11 -1 -33 -1q-110 0 -177.5 65.5t-67.5 171.5q0 100 65 168.5t171 68.5q89 0 142 -44t53 -113q0 -64 -48.5 -100.5t-142.5 -36.5q-44 0 -100 6q26 -82 131 -82q64 0 116 34l46 -85
q-103 -88 -103 -142q0 -27 29 -27zM268 358q-40 0 -67.5 -25.5t-34.5 -73.5q42 -5 83 -5q49 0 71 12t22 39q0 23 -20 38t-54 15z" />
    <glyph glyph-name="g.ss01" horiz-adv-x="484" 
d="M327 63q148 -10 148 -124q0 -72 -63 -122t-169 -50q-109 0 -163.5 43t-54.5 107q0 65 47 104q-30 30 -30 71q0 50 41 84q-44 45 -44 114q0 74 54 122.5t153 48.5q38 0 112 -7t111 -7v-79l-58 -6q38 -38 38 -89q0 -66 -53 -110.5t-150 -44.5q-35 0 -69 8q-5 -10 -5 -20
q0 -34 58 -38zM246 362q-33 0 -51.5 -20.5t-18.5 -54.5q0 -33 18.5 -54t51.5 -21q34 0 52.5 21t18.5 54q0 34 -18.5 54.5t-52.5 20.5zM251 -139q37 0 64 17t27 43q0 37 -50 40l-67 4q-15 1 -43 5q-20 -18 -20 -50q0 -25 22.5 -42t66.5 -17z" />
    <glyph glyph-name="gbreve.ss01" horiz-adv-x="484" 
d="M248 516q-108 0 -140 107l69 35q7 -25 26 -39t45 -14q25 0 44.5 14.5t26.5 38.5l68 -35q-31 -107 -139 -107zM327 63q148 -10 148 -124q0 -72 -63 -122t-169 -50q-109 0 -163.5 43t-54.5 107q0 65 47 104q-30 30 -30 71q0 50 41 84q-44 47 -44 114q0 74 54 122.5
t153 48.5q38 0 112 -7t111 -7v-79l-58 -6q38 -38 38 -89q0 -66 -53 -110.5t-150 -44.5q-32 0 -69 7q-5 -8 -5 -19q0 -34 58 -38zM246 362q-33 0 -51.5 -20.5t-18.5 -54.5q0 -33 18.5 -54t51.5 -21q34 0 52.5 21t18.5 54q0 34 -18.5 54.5t-52.5 20.5zM251 -139q37 0 64 17
t27 43q0 37 -50 40l-67 4q-19 1 -43 5q-20 -18 -20 -50q0 -25 22.5 -42t66.5 -17z" />
    <glyph glyph-name="gcircumflex.ss01" horiz-adv-x="484" 
d="M248 569l-95 -61l-45 55l131 107h17l130 -107l-44 -55zM327 63q148 -10 148 -124q0 -72 -63 -122t-169 -50q-109 0 -163.5 43t-54.5 107q0 65 47 104q-30 30 -30 71q0 50 41 84q-44 47 -44 114q0 74 54 122.5t153 48.5q38 0 112 -7t111 -7v-79l-58 -6q38 -38 38 -89
q0 -66 -53 -110.5t-150 -44.5q-32 0 -69 7q-5 -8 -5 -19q0 -34 58 -38zM246 362q-33 0 -51.5 -20.5t-18.5 -54.5q0 -33 18.5 -54t51.5 -21q34 0 52.5 21t18.5 54q0 34 -18.5 54.5t-52.5 20.5zM251 -139q37 0 64 17t27 43q0 37 -50 40l-67 4q-19 1 -43 5q-20 -18 -20 -50
q0 -25 22.5 -42t66.5 -17z" />
    <glyph glyph-name="uni0123.ss01" horiz-adv-x="484" 
d="M327 718q-24 -90 -24 -196h-116q8 112 56 196h84zM327 63q148 -10 148 -124q0 -72 -63 -122t-169 -50q-109 0 -163.5 43t-54.5 107q0 65 47 104q-30 30 -30 71q0 50 41 84q-44 47 -44 114q0 74 54 122.5t153 48.5q38 0 112 -7t111 -7v-79l-58 -6q38 -38 38 -89
q0 -66 -53 -110.5t-150 -44.5q-32 0 -69 7q-5 -8 -5 -19q0 -34 58 -38zM246 362q-33 0 -51.5 -20.5t-18.5 -54.5q0 -33 18.5 -54t51.5 -21q34 0 52.5 21t18.5 54q0 34 -18.5 54.5t-52.5 20.5zM251 -139q37 0 64 17t27 43q0 37 -50 40l-67 4q-19 1 -43 5q-20 -18 -20 -50
q0 -25 22.5 -42t66.5 -17z" />
    <glyph glyph-name="gdotaccent.ss01" horiz-adv-x="484" 
d="M248 524q-30 0 -51 21t-21 50q0 30 20.5 50.5t51.5 20.5t51 -20.5t20 -51.5q0 -30 -20.5 -50t-50.5 -20zM327 63q148 -10 148 -124q0 -72 -63 -122t-169 -50q-109 0 -163.5 43t-54.5 107q0 65 47 104q-30 30 -30 71q0 50 41 84q-44 45 -44 114q0 74 54 122.5t153 48.5
q38 0 112 -7t111 -7v-79l-58 -6q38 -38 38 -89q0 -66 -53 -110.5t-150 -44.5q-35 0 -69 8q-5 -10 -5 -20q0 -34 58 -38zM246 362q-33 0 -51.5 -20.5t-18.5 -54.5q0 -33 18.5 -54t51.5 -21q34 0 52.5 21t18.5 54q0 34 -18.5 54.5t-52.5 20.5zM251 -139q37 0 64 17t27 43
q0 37 -50 40l-67 4q-15 1 -43 5q-20 -18 -20 -50q0 -25 22.5 -42t66.5 -17z" />
    <glyph glyph-name="y.ss01" horiz-adv-x="527" 
d="M334 448h137v-465q0 -104 -63.5 -160t-168.5 -56q-113 0 -185 57l40 105q55 -42 133 -42q48 0 77 25.5t29 70.5v66q-41 -58 -127 -58q-74 0 -114.5 47t-40.5 127v283h136v-270q0 -31 16 -49.5t48 -18.5q39 0 61 28t22 74v236z" />
    <glyph glyph-name="yacute.ss01" horiz-adv-x="527" 
d="M377 611l-166 -101l-51 58l146 125zM334 448h137v-465q0 -104 -63.5 -160t-168.5 -56q-113 0 -185 57l40 105q55 -42 133 -42q48 0 77 25.5t29 70.5v67q-40 -59 -127 -59q-74 0 -114.5 47t-40.5 127v283h136v-270q0 -31 16 -49.5t48 -18.5q39 0 61 28t22 74v236z" />
    <glyph glyph-name="ycircumflex.ss01" horiz-adv-x="527" 
d="M260 569l-95 -61l-45 55l131 107h17l130 -107l-44 -55zM334 448h137v-465q0 -104 -63.5 -160t-168.5 -56q-113 0 -185 57l40 105q55 -42 133 -42q48 0 77 25.5t29 70.5v67q-40 -59 -127 -59q-74 0 -114.5 47t-40.5 127v283h136v-270q0 -31 16 -49.5t48 -18.5q39 0 61 28
t22 74v236z" />
    <glyph glyph-name="ydieresis.ss01" horiz-adv-x="527" 
d="M174 532q-27 0 -46 19t-19 45q0 27 18.5 46.5t46.5 19.5t46.5 -19.5t18.5 -45.5t-18.5 -45.5t-46.5 -19.5zM346 532q-28 0 -46.5 19t-18.5 46q0 26 18.5 45.5t46.5 19.5t46.5 -19.5t18.5 -45.5q0 -27 -18.5 -46t-46.5 -19zM334 448h137v-465q0 -104 -63.5 -160
t-168.5 -56q-113 0 -185 57l40 105q55 -42 133 -42q48 0 77 25.5t29 70.5v66q-41 -58 -127 -58q-74 0 -114.5 47t-40.5 127v283h136v-270q0 -31 16 -49.5t48 -18.5q39 0 61 28t22 74v236z" />
    <glyph glyph-name="ygrave.ss01" horiz-adv-x="527" 
d="M312 509l-168 102l72 83l147 -127zM334 448h137v-465q0 -104 -63.5 -160t-168.5 -56q-113 0 -185 57l40 105q55 -42 133 -42q48 0 77 25.5t29 70.5v66q-41 -58 -127 -58q-74 0 -114.5 47t-40.5 127v283h136v-270q0 -31 16 -49.5t48 -18.5q39 0 61 28t22 74v236z" />
    <glyph glyph-name="f_b" horiz-adv-x="932" 
d="M688 459q92 0 151.5 -65t59.5 -167q0 -107 -58 -173t-153 -66q-100 0 -155 75l-25 -63h-91v581q-46 32 -102 32q-89 0 -89 -89v-76h112v-114h-111v-334h-136v334h-76v114h76v91q0 94 52 145t141 51q83 0 153 -51l9 37h107v-187q0 -43 -2 -131q53 56 137 56zM655 104
q48 0 77 33t29 87t-29 86.5t-77 32.5t-77.5 -32.5t-29.5 -86.5q0 -55 29 -87.5t78 -32.5z" />
    <glyph glyph-name="f_f_b" horiz-adv-x="1296" 
d="M1053 459q92 0 151 -65t59 -167q0 -107 -58 -173t-152 -66q-102 0 -157 76l-23 -64h-92v577q-49 36 -112 36q-89 0 -89 -89v-76h109v-114h-108v-334h-136v334h-219v-334h-137v334h-74v114h74v108q0 84 45.5 131.5t123.5 47.5q64 0 123 -28l-36 -104q-26 10 -56 10
q-29 0 -46.5 -17.5t-17.5 -49.5v-98h220v91q0 94 52 145t140 51q96 0 162 -57l11 43h108v-187q0 -66 -3 -131q53 56 138 56zM1019 104q48 0 77 33t29 87t-29 86.5t-77 32.5t-77.5 -32.5t-29.5 -86.5q0 -55 29 -87.5t78 -32.5z" />
    <glyph glyph-name="f_f_h" horiz-adv-x="1254" 
d="M1044 461q75 0 117 -48t42 -125v-288h-137v273q0 30 -16.5 48.5t-48.5 18.5q-39 0 -61 -28.5t-22 -73.5v-238h-137v575q-52 38 -112 38q-89 0 -89 -89v-76h109v-114h-108v-334h-136v334h-219v-334h-137v334h-74v114h74v108q0 84 45.5 131.5t123.5 47.5q66 0 123 -28
l-36 -104q-27 10 -56 10t-46.5 -17.5t-17.5 -49.5v-98h220v91q0 94 52.5 145t143.5 51q92 0 158 -59l12 45h107v-259q0 -39 -2 -65q46 64 128 64z" />
    <glyph glyph-name="f_f_j" horiz-adv-x="974" 
d="M918 448v-453q0 -111 -53.5 -166.5t-175.5 -61.5l-17 116q63 4 86 33t23 94v324h-200v-334h-136v334h-219v-334h-137v334h-74v114h74v108q0 84 45.5 131.5t123.5 47.5q66 0 123 -28l-36 -104q-24 10 -56 10q-29 0 -46.5 -17.5t-17.5 -49.5v-98h220v82q0 102 55 153.5
t152 51.5q113 0 201 -70l-47 -92q-61 40 -123 40q-103 0 -103 -94v-71h338z" />
    <glyph glyph-name="f_f_k" horiz-adv-x="1211" 
d="M1032 231l174 -225v-6h-152l-136 180v-180h-136v577q-51 36 -113 36q-89 0 -89 -89v-76h107v-114h-106v-334h-136v334h-219v-334h-137v334h-74v114h74v108q0 84 45.5 131.5t123.5 47.5q63 0 123 -28l-36 -104q-23 10 -56 10q-29 0 -46.5 -17.5t-17.5 -49.5v-98h220v91
q0 94 52.5 145t143.5 51q90 0 159 -57l10 43h108v-438l126 165h150v-6z" />
    <glyph glyph-name="f_h" horiz-adv-x="889" 
d="M680 461q75 0 116.5 -48t41.5 -125v-288h-136v273q0 30 -17 48.5t-49 18.5q-39 0 -61 -28.5t-22 -73.5v-238h-136v581q-46 32 -104 32q-88 0 -88 -89v-76h112v-114h-111v-334h-137v334h-74v114h74v91q0 94 52 145t141 51q90 0 153 -51l9 37h109v-256q0 -40 -1 -67
q45 63 128 63z" />
    <glyph glyph-name="f_j" horiz-adv-x="616" 
d="M559 448v-453q0 -111 -53.5 -166.5t-175.5 -61.5l-17 116q63 4 86.5 33t23.5 94v324h-197v-334h-137v334h-74v114h74v81q0 102 55.5 154t152.5 52q120 0 219 -68l-46 -96q-68 42 -143 42q-102 0 -102 -94v-71h334z" />
    <glyph glyph-name="f_k" horiz-adv-x="845" 
d="M666 231l174 -225v-6h-152l-136 179v-179h-136v580q-45 33 -103 33q-88 0 -88 -89v-76h112v-114h-111v-334h-137v334h-74v114h74v91q0 94 52 145t141 51q87 0 153 -51l9 37h108v-438l126 165h150v-6z" />
    <glyph glyph-name="uni0414.loclBGR" horiz-adv-x="755" 
d="M664 132h79v-284h-137v152h-457v-152h-137v284h80l252 549h67zM356 387l-113 -264h268l-112 264q-15 36 -21 62q-8 -28 -22 -62z" />
    <glyph glyph-name="uni041B.loclBGR" horiz-adv-x="693" 
d="M369 683l324 -680v-3h-159l-153 337q-22 48 -34 97q-11 -46 -34 -96l-154 -338h-159v3l325 680h44z" />
    <glyph glyph-name="uni0424.loclBGR" horiz-adv-x="901" 
d="M860 345q0 -150 -91 -247.5t-247 -106.5v-104h-143v104q-152 9 -245 104t-93 245q0 148 91.5 245.5t246.5 106.5v105h143v-105q151 -9 244.5 -103.5t93.5 -243.5zM518 122q87 7 138.5 68t51.5 155q0 91 -52 151t-138 67v-441zM193 340q0 -91 52 -151t138 -67v441
q-85 -8 -137.5 -69.5t-52.5 -153.5z" />
    <glyph glyph-name="uni0414.ss02" horiz-adv-x="755" 
d="M664 132h79v-284h-137v152h-457v-152h-137v284h80l252 549h67zM356 387l-113 -264h268l-112 264q-15 36 -21 62q-8 -28 -22 -62z" />
    <glyph glyph-name="uni041B.ss02" horiz-adv-x="693" 
d="M369 683l324 -680v-3h-159l-153 337q-22 48 -34 97q-11 -46 -34 -96l-154 -338h-159v3l325 680h44z" />
    <glyph glyph-name="uni0424.ss02" horiz-adv-x="901" 
d="M860 345q0 -150 -91 -247.5t-247 -106.5v-104h-143v104q-152 9 -245 104t-93 245q0 148 91.5 245.5t246.5 106.5v105h143v-105q151 -9 244.5 -103.5t93.5 -243.5zM518 122q87 7 138.5 68t51.5 155q0 91 -52 151t-138 67v-441zM193 340q0 -91 52 -151t138 -67v441
q-85 -8 -137.5 -69.5t-52.5 -153.5z" />
    <glyph glyph-name="uni0414.ss03" horiz-adv-x="755" 
d="M664 132h79v-284h-137v152h-457v-152h-137v284h80l252 549h67zM356 387l-113 -264h268l-112 264q-15 36 -21 62q-8 -28 -22 -62z" />
    <glyph glyph-name="uni041B.ss03" horiz-adv-x="693" 
d="M369 683l324 -680v-3h-159l-153 337q-22 48 -34 97q-11 -46 -34 -96l-154 -338h-159v3l325 680h44z" />
    <glyph glyph-name="uni0424.ss03" horiz-adv-x="901" 
d="M860 345q0 -150 -91 -247.5t-247 -106.5v-104h-143v104q-152 9 -245 104t-93 245q0 148 91.5 245.5t246.5 106.5v105h143v-105q151 -9 244.5 -103.5t93.5 -243.5zM518 122q87 7 138.5 68t51.5 155q0 91 -52 151t-138 67v-441zM193 340q0 -91 52 -151t138 -67v441
q-85 -8 -137.5 -69.5t-52.5 -153.5z" />
    <glyph glyph-name="uni0432.loclBGR" horiz-adv-x="550" 
d="M394 385q57 -18 91.5 -65.5t34.5 -112.5q0 -97 -66.5 -158.5t-174.5 -61.5t-170 73t-62 219v120q0 159 68 235.5t183 76.5q85 0 136.5 -45t51.5 -120q0 -103 -92 -161zM287 594q-47 0 -74 -40t-27 -118v-47l64 21q101 32 101 118q0 31 -16.5 48.5t-47.5 17.5zM283 107
q45 0 70.5 30t25.5 79q0 42 -22.5 68.5t-61.5 26.5q-30 0 -56 -10l-53 -17v-32q0 -145 97 -145z" />
    <glyph glyph-name="uni0433.loclBGR" horiz-adv-x="407" 
d="M197 -13q-79 0 -126 33t-47 97q0 104 137 152q42 14 58.5 26.5t17.5 28.5q0 33 -49 33t-109 -33l-38 89q83 45 168 45q70 0 114 -35t44 -96q0 -52 -29.5 -84.5t-99.5 -58.5q-36 -13 -53.5 -25.5t-17.5 -32.5q0 -34 52 -34q62 0 121 38l42 -95q-86 -48 -185 -48z" />
    <glyph glyph-name="uni0434.loclBGR" horiz-adv-x="572" 
d="M427 448h89v-458q0 -108 -65 -165.5t-181 -57.5q-114 0 -203 60l42 105q66 -45 149 -45q58 0 89 25.5t31 73.5q0 40 1 60q-55 -54 -137 -54q-92 0 -150 64.5t-58 168.5t58.5 169.5t149.5 65.5q104 0 160 -78zM277 106q50 0 78.5 32.5t28.5 86.5t-28.5 86.5t-78.5 32.5
q-48 0 -76.5 -32.5t-28.5 -86.5t28.5 -86.5t76.5 -32.5z" />
    <glyph glyph-name="uni0436.loclBGR" horiz-adv-x="691" 
d="M531 231l155 -227v-4h-149l-124 193v-193h-134l-1 195l-125 -195h-148v4l153 227l-140 213v4h147l113 -185l-1 436h136v-435l111 184h149v-4z" />
    <glyph glyph-name="uni0437.loclBGR" horiz-adv-x="416" 
d="M170 -233q-107 0 -184 48l42 106q57 -35 124 -35q56 0 85.5 25t29.5 67t-28 66.5t-79 24.5h-64v107h54q43 0 68 23.5t25 61.5q0 36 -23.5 56t-65.5 20q-49 0 -102 -25l-39 102q80 44 164 44q92 0 145.5 -47.5t53.5 -128.5q0 -102 -84 -152q52 -17 83 -62t31 -104
q0 -91 -63 -144t-173 -53z" />
    <glyph glyph-name="uni0438.loclBGR" horiz-adv-x="527" 
d="M334 448h137v-448h-92l-28 67q-51 -77 -141 -77q-78 0 -118.5 47t-40.5 130v281h136v-263q0 -74 64 -74q40 0 61.5 28.5t21.5 71.5v237z" />
    <glyph glyph-name="uni0439.loclBGR" horiz-adv-x="527" 
d="M261 519q-52 0 -93.5 24t-64.5 69l71 52q31 -51 87 -51t87 51l72 -52q-23 -45 -65 -69t-94 -24zM334 448h137v-448h-92l-28 67q-51 -77 -141 -77q-78 0 -118.5 47t-40.5 130v281h136v-263q0 -74 64 -74q40 0 61.5 28.5t21.5 71.5v237z" />
    <glyph glyph-name="uni045D.loclBGR" horiz-adv-x="529" 
d="M305 519l-168 102l72 83l147 -127zM334 448h137v-448h-92l-28 67q-51 -77 -141 -77q-78 0 -118.5 47t-40.5 130v281h136v-263q0 -74 64 -74q40 0 61.5 28.5t21.5 71.5v237z" />
    <glyph glyph-name="uni043A.loclBGR" horiz-adv-x="486" 
d="M307 231l174 -227v-4h-152l-136 179v-179h-136v699h136v-416l126 165h150v-4z" />
    <glyph glyph-name="uni043B.loclBGR" horiz-adv-x="498" 
d="M282 450l212 -447v-3h-150l-67 161q-18 46 -28 90q-9 -39 -27 -90l-67 -161h-150v3l212 447h65z" />
    <glyph glyph-name="uni043F.loclBGR" horiz-adv-x="529" 
d="M322 461q76 0 116 -46t40 -130v-285h-136v266q0 74 -63 74q-40 0 -63 -25.5t-23 -67.5v-247h-136v448h88l27 -72q52 85 150 85z" />
    <glyph glyph-name="uni0442.loclBGR" horiz-adv-x="790" 
d="M590 461q71 0 110 -45t39 -124v-292h-136v272q0 32 -16 50t-43 18q-38 0 -58 -27.5t-20 -67.5v-245h-136v272q0 30 -15.5 49t-43.5 19q-38 0 -58 -27.5t-20 -67.5v-245h-136v448h88l27 -71q51 84 142 84q96 0 134 -77q47 77 142 77z" />
    <glyph glyph-name="uni0446.loclBGR" horiz-adv-x="556" 
d="M520 115h17v-226h-119v119q-49 15 -64 62q-47 -80 -146 -80q-75 0 -116 47.5t-41 125.5v285h136v-268q0 -69 64 -69q41 0 62.5 28t21.5 73v236h137v-291q0 -22 11 -32t37 -10z" />
    <glyph glyph-name="uni0448.loclBGR" horiz-adv-x="790" 
d="M597 448h136v-448h-91l-28 70q-21 -34 -57.5 -56.5t-81.5 -22.5q-93 0 -132 76q-47 -76 -137 -76q-75 0 -115 45t-40 122v290h136v-269q0 -32 16 -49.5t44 -17.5q38 0 57.5 28t19.5 70v238h136v-272q0 -28 15.5 -46t43.5 -18q38 0 58 28t20 70v238z" />
    <glyph glyph-name="uni0449.loclBGR" horiz-adv-x="818" 
d="M785 115h14v-226h-119v120q-45 17 -63 61q-21 -36 -57.5 -57.5t-82.5 -21.5q-96 0 -134 76q-47 -76 -137 -76q-76 0 -115.5 45t-39.5 122v290h136v-271q0 -30 15.5 -47.5t43.5 -17.5q38 0 58 28t20 70v238h136v-272q0 -28 15.5 -46t43.5 -18q38 0 58 28t20 70v238h136
v-289q0 -24 12 -34t40 -10z" />
    <glyph glyph-name="uni044C.loclBGR" horiz-adv-x="485" 
d="M290 350q80 0 126.5 -47.5t46.5 -130.5q0 -85 -56 -135t-152 -50q-95 0 -150 50t-55 137v274h136v-129q43 31 104 31zM259 93q33 0 52 20.5t19 56.5t-19 55.5t-52 19.5q-36 0 -56 -19.5t-20 -54.5q0 -38 20 -58t56 -20z" />
    <glyph glyph-name="uni044A.loclBGR" horiz-adv-x="554" 
d="M359 350q79 0 126 -46.5t47 -131.5q0 -87 -56 -136t-152 -49q-95 0 -150 50t-55 136v160h-110v115h246v-128q42 30 104 30zM327 94q32 0 51.5 20t19.5 57q0 35 -19.5 54.5t-51.5 19.5q-33 0 -53 -18.5t-20 -55.5q0 -38 19.5 -57.5t53.5 -19.5z" />
    <glyph glyph-name="uni044B.loclBGR" horiz-adv-x="723" 
d="M290 350q80 0 126.5 -47.5t46.5 -130.5q0 -85 -56 -135t-152 -50q-95 0 -150 50t-55 137v274h136v-129q43 31 104 31zM530 0v448h137v-448h-137zM259 93q33 0 52 20.5t19 56.5t-19 55.5t-52 19.5q-36 0 -56 -19.5t-20 -54.5q0 -38 20 -58t56 -20z" />
    <glyph glyph-name="uni0430.ss01" horiz-adv-x="572" 
d="M416 448h100v-448h-102l-18 60q-56 -72 -155 -72q-92 0 -149.5 65t-57.5 171q0 104 58.5 169.5t150.5 65.5q99 0 153 -74zM276 104q49 0 78.5 32t29.5 88q0 55 -29.5 87t-78.5 32q-47 0 -76 -32t-29 -87q0 -56 29 -88t76 -32z" />
    <glyph glyph-name="uni0435.ss01" horiz-adv-x="486" 
d="M295 90q68 0 115 38l46 -87q-78 -55 -181 -55q-110 0 -177.5 66t-67.5 172q0 100 65 168.5t172 68.5q89 0 141.5 -44t52.5 -115q0 -63 -48.5 -99t-142.5 -36q-44 0 -100 6q27 -83 125 -83zM270 358q-42 0 -70 -25t-35 -74q42 -5 83 -5q49 0 71 12t22 38q0 23 -19.5 38.5
t-51.5 15.5z" />
    <glyph glyph-name="uni0443.ss01" horiz-adv-x="527" 
d="M334 448h137v-465q0 -104 -63.5 -160t-168.5 -56q-113 0 -185 57l40 105q55 -42 133 -42q48 0 77 25.5t29 70.5v66q-41 -58 -127 -58q-74 0 -114.5 47t-40.5 127v283h136v-270q0 -31 16 -49.5t48 -18.5q39 0 61 28t22 74v236z" />
    <glyph glyph-name="uni0432.ss02" horiz-adv-x="550" 
d="M394 385q57 -18 91.5 -65.5t34.5 -112.5q0 -97 -66.5 -158.5t-174.5 -61.5t-170 73t-62 219v120q0 159 68 235.5t183 76.5q85 0 136.5 -45t51.5 -120q0 -103 -92 -161zM287 594q-47 0 -74 -40t-27 -118v-47l64 21q101 32 101 118q0 31 -16.5 48.5t-47.5 17.5zM283 107
q45 0 70.5 30t25.5 79q0 42 -22.5 68.5t-61.5 26.5q-30 0 -56 -10l-53 -17v-32q0 -145 97 -145z" />
    <glyph glyph-name="uni0433.ss02" horiz-adv-x="407" 
d="M197 -13q-79 0 -126 33t-47 97q0 104 137 152q42 14 58.5 26.5t17.5 28.5q0 33 -49 33t-109 -33l-38 89q83 45 168 45q70 0 114 -35t44 -96q0 -52 -29.5 -84.5t-99.5 -58.5q-36 -13 -53.5 -25.5t-17.5 -32.5q0 -34 52 -34q62 0 121 38l42 -95q-86 -48 -185 -48z" />
    <glyph glyph-name="uni0434.ss02" horiz-adv-x="572" 
d="M427 448h89v-458q0 -108 -65 -165.5t-181 -57.5q-114 0 -203 60l42 105q66 -45 149 -45q58 0 89 25.5t31 73.5q0 40 1 60q-55 -54 -137 -54q-92 0 -150 64.5t-58 168.5t58.5 169.5t149.5 65.5q104 0 160 -78zM277 106q50 0 78.5 32.5t28.5 86.5t-28.5 86.5t-78.5 32.5
q-48 0 -76.5 -32.5t-28.5 -86.5t28.5 -86.5t76.5 -32.5z" />
    <glyph glyph-name="uni0436.ss02" horiz-adv-x="691" 
d="M531 231l155 -227v-4h-149l-124 193v-193h-134l-1 195l-125 -195h-148v4l153 227l-140 213v4h147l113 -185l-1 436h136v-435l111 184h149v-4z" />
    <glyph glyph-name="uni0437.ss02" horiz-adv-x="416" 
d="M170 -233q-107 0 -184 48l42 106q57 -35 124 -35q56 0 85.5 25t29.5 67t-28 66.5t-79 24.5h-64v107h54q43 0 68 23.5t25 61.5q0 36 -23.5 56t-65.5 20q-49 0 -102 -25l-39 102q80 44 164 44q92 0 145.5 -47.5t53.5 -128.5q0 -102 -84 -152q52 -17 83 -62t31 -104
q0 -91 -63 -144t-173 -53z" />
    <glyph glyph-name="uni0438.ss02" horiz-adv-x="527" 
d="M334 448h137v-448h-92l-28 67q-51 -77 -141 -77q-78 0 -118.5 47t-40.5 130v281h136v-263q0 -74 64 -74q40 0 61.5 28.5t21.5 71.5v237z" />
    <glyph glyph-name="uni0439.ss02" horiz-adv-x="527" 
d="M261 519q-52 0 -93.5 24t-64.5 69l71 52q31 -51 87 -51t87 51l72 -52q-23 -45 -65 -69t-94 -24zM334 448h137v-448h-92l-28 67q-51 -77 -141 -77q-78 0 -118.5 47t-40.5 130v281h136v-263q0 -74 64 -74q40 0 61.5 28.5t21.5 71.5v237z" />
    <glyph glyph-name="uni045D.ss02" horiz-adv-x="527" 
d="M313 509l-168 102l72 83l147 -127zM334 448h137v-448h-92l-28 67q-51 -77 -141 -77q-78 0 -118.5 47t-40.5 130v281h136v-263q0 -74 64 -74q40 0 61.5 28.5t21.5 71.5v237z" />
    <glyph glyph-name="uni043A.ss02" horiz-adv-x="486" 
d="M307 231l174 -227v-4h-152l-136 179v-179h-136v699h136v-416l126 165h150v-4z" />
    <glyph glyph-name="uni043B.ss02" horiz-adv-x="498" 
d="M282 450l212 -447v-3h-150l-67 161q-18 46 -28 90q-9 -39 -27 -90l-67 -161h-150v3l212 447h65z" />
    <glyph glyph-name="uni043F.ss02" horiz-adv-x="529" 
d="M322 461q76 0 116 -46t40 -130v-285h-136v266q0 74 -63 74q-40 0 -63 -25.5t-23 -67.5v-247h-136v448h88l27 -72q52 85 150 85z" />
    <glyph glyph-name="uni0442.ss02" horiz-adv-x="790" 
d="M590 461q71 0 110 -45t39 -124v-292h-136v272q0 32 -16 50t-43 18q-38 0 -58 -27.5t-20 -67.5v-245h-136v272q0 30 -15.5 49t-43.5 19q-38 0 -58 -27.5t-20 -67.5v-245h-136v448h88l27 -71q51 84 142 84q96 0 134 -77q47 77 142 77z" />
    <glyph glyph-name="uni0446.ss02" horiz-adv-x="556" 
d="M520 115h17v-226h-119v119q-49 15 -64 62q-47 -80 -146 -80q-75 0 -116 47.5t-41 125.5v285h136v-268q0 -69 64 -69q41 0 62.5 28t21.5 73v236h137v-291q0 -22 11 -32t37 -10z" />
    <glyph glyph-name="uni0448.ss02" horiz-adv-x="790" 
d="M597 448h136v-448h-91l-28 70q-21 -34 -57.5 -56.5t-81.5 -22.5q-93 0 -132 76q-47 -76 -137 -76q-75 0 -115 45t-40 122v290h136v-269q0 -32 16 -49.5t44 -17.5q38 0 57.5 28t19.5 70v238h136v-272q0 -28 15.5 -46t43.5 -18q38 0 58 28t20 70v238z" />
    <glyph glyph-name="uni0449.ss02" horiz-adv-x="818" 
d="M785 115h14v-226h-119v120q-45 17 -63 61q-21 -36 -57.5 -57.5t-82.5 -21.5q-96 0 -134 76q-47 -76 -137 -76q-76 0 -115.5 45t-39.5 122v290h136v-271q0 -30 15.5 -47.5t43.5 -17.5q38 0 58 28t20 70v238h136v-272q0 -28 15.5 -46t43.5 -18q38 0 58 28t20 70v238h136
v-289q0 -24 12 -34t40 -10z" />
    <glyph glyph-name="uni044C.ss02" horiz-adv-x="499" 
d="M304 350q80 0 126.5 -47.5t46.5 -130.5q0 -85 -56 -135t-152 -50q-95 0 -150 50t-55 137v274h136v-129q43 31 104 31zM273 93q33 0 52 20.5t19 56.5t-19 55.5t-52 19.5q-36 0 -56 -19.5t-20 -54.5q0 -38 20 -58t56 -20z" />
    <glyph glyph-name="uni044A.ss02" horiz-adv-x="554" 
d="M359 350q79 0 126 -46.5t47 -131.5q0 -87 -56 -136t-152 -49q-95 0 -150 50t-55 136v160h-110v115h246v-128q42 30 104 30zM327 94q32 0 51.5 20t19.5 57q0 35 -19.5 54.5t-51.5 19.5q-33 0 -53 -18.5t-20 -55.5q0 -38 19.5 -57.5t53.5 -19.5z" />
    <glyph glyph-name="uni044B.ss02" horiz-adv-x="723" 
d="M290 350q80 0 126.5 -47.5t46.5 -130.5q0 -85 -56 -135t-152 -50q-95 0 -150 50t-55 137v274h136v-129q43 31 104 31zM530 0v448h137v-448h-137zM259 93q33 0 52 20.5t19 56.5t-19 55.5t-52 19.5q-36 0 -56 -19.5t-20 -54.5q0 -38 20 -58t56 -20z" />
    <glyph glyph-name="uni0430.ss03" horiz-adv-x="572" 
d="M416 448h100v-448h-102l-18 60q-56 -72 -155 -72q-92 0 -149.5 65t-57.5 171q0 104 58.5 169.5t150.5 65.5q99 0 153 -74zM276 104q49 0 78.5 32t29.5 88q0 55 -29.5 87t-78.5 32q-47 0 -76 -32t-29 -87q0 -56 29 -88t76 -32z" />
    <glyph glyph-name="uni0432.ss03" horiz-adv-x="550" 
d="M394 385q57 -18 91.5 -65.5t34.5 -112.5q0 -97 -66.5 -158.5t-174.5 -61.5t-170 73t-62 219v120q0 159 68 235.5t183 76.5q85 0 136.5 -45t51.5 -120q0 -103 -92 -161zM287 594q-47 0 -74 -40t-27 -118v-47l64 21q101 32 101 118q0 31 -16.5 48.5t-47.5 17.5zM283 107
q45 0 70.5 30t25.5 79q0 42 -22.5 68.5t-61.5 26.5q-30 0 -56 -10l-53 -17v-32q0 -145 97 -145z" />
    <glyph glyph-name="uni0433.ss03" horiz-adv-x="407" 
d="M197 -13q-79 0 -126 33t-47 97q0 104 137 152q42 14 58.5 26.5t17.5 28.5q0 33 -49 33t-109 -33l-38 89q83 45 168 45q70 0 114 -35t44 -96q0 -52 -29.5 -84.5t-99.5 -58.5q-36 -13 -53.5 -25.5t-17.5 -32.5q0 -34 52 -34q62 0 121 38l42 -95q-86 -48 -185 -48z" />
    <glyph glyph-name="uni0434.ss03" horiz-adv-x="572" 
d="M427 448h89v-458q0 -108 -65 -165.5t-181 -57.5q-114 0 -203 60l42 105q66 -45 149 -45q58 0 89 25.5t31 73.5q0 40 1 60q-55 -54 -137 -54q-92 0 -150 64.5t-58 168.5t58.5 169.5t149.5 65.5q104 0 160 -78zM277 106q50 0 78.5 32.5t28.5 86.5t-28.5 86.5t-78.5 32.5
q-48 0 -76.5 -32.5t-28.5 -86.5t28.5 -86.5t76.5 -32.5z" />
    <glyph glyph-name="uni0435.ss03" horiz-adv-x="486" 
d="M295 90q68 0 115 38l46 -87q-78 -55 -181 -55q-110 0 -177.5 66t-67.5 172q0 100 65 168.5t172 68.5q89 0 141.5 -44t52.5 -115q0 -63 -48.5 -99t-142.5 -36q-44 0 -100 6q27 -83 125 -83zM270 358q-42 0 -70 -25t-35 -74q42 -5 83 -5q49 0 71 12t22 38q0 23 -19.5 38.5
t-51.5 15.5z" />
    <glyph glyph-name="uni0436.ss03" horiz-adv-x="691" 
d="M531 231l155 -227v-4h-149l-124 193v-193h-134l-1 195l-125 -195h-148v4l153 227l-140 213v4h147l113 -185l-1 436h136v-435l111 184h149v-4z" />
    <glyph glyph-name="uni0437.ss03" horiz-adv-x="416" 
d="M170 -233q-107 0 -184 48l42 106q57 -35 124 -35q56 0 85.5 25t29.5 67t-28 66.5t-79 24.5h-64v107h54q43 0 68 23.5t25 61.5q0 36 -23.5 56t-65.5 20q-49 0 -102 -25l-39 102q80 44 164 44q92 0 145.5 -47.5t53.5 -128.5q0 -102 -84 -152q52 -17 83 -62t31 -104
q0 -91 -63 -144t-173 -53z" />
    <glyph glyph-name="uni0438.ss03" horiz-adv-x="527" 
d="M334 448h137v-448h-92l-28 67q-51 -77 -141 -77q-78 0 -118.5 47t-40.5 130v281h136v-263q0 -74 64 -74q40 0 61.5 28.5t21.5 71.5v237z" />
    <glyph glyph-name="uni0439.ss03" horiz-adv-x="527" 
d="M261 519q-52 0 -93.5 24t-64.5 69l71 52q31 -51 87 -51t87 51l72 -52q-23 -45 -65 -69t-94 -24zM334 448h137v-448h-92l-28 67q-51 -77 -141 -77q-78 0 -118.5 47t-40.5 130v281h136v-263q0 -74 64 -74q40 0 61.5 28.5t21.5 71.5v237z" />
    <glyph glyph-name="uni045D.ss03" horiz-adv-x="529" 
d="M305 519l-168 102l72 83l147 -127zM334 448h137v-448h-92l-28 67q-51 -77 -141 -77q-78 0 -118.5 47t-40.5 130v281h136v-263q0 -74 64 -74q40 0 61.5 28.5t21.5 71.5v237z" />
    <glyph glyph-name="uni043A.ss03" horiz-adv-x="486" 
d="M307 231l174 -227v-4h-152l-136 179v-179h-136v699h136v-416l126 165h150v-4z" />
    <glyph glyph-name="uni043B.ss03" horiz-adv-x="498" 
d="M282 450l212 -447v-3h-150l-67 161q-18 46 -28 90q-9 -39 -27 -90l-67 -161h-150v3l212 447h65z" />
    <glyph glyph-name="uni043F.ss03" horiz-adv-x="529" 
d="M322 461q76 0 116 -46t40 -130v-285h-136v266q0 74 -63 74q-40 0 -63 -25.5t-23 -67.5v-247h-136v448h88l27 -72q52 85 150 85z" />
    <glyph glyph-name="uni0442.ss03" horiz-adv-x="790" 
d="M590 461q71 0 110 -45t39 -124v-292h-136v272q0 32 -16 50t-43 18q-38 0 -58 -27.5t-20 -67.5v-245h-136v272q0 30 -15.5 49t-43.5 19q-38 0 -58 -27.5t-20 -67.5v-245h-136v448h88l27 -71q51 84 142 84q96 0 134 -77q47 77 142 77z" />
    <glyph glyph-name="uni0443.ss03" horiz-adv-x="527" 
d="M334 448h137v-465q0 -104 -63.5 -160t-168.5 -56q-113 0 -185 57l40 105q55 -42 133 -42q48 0 77 25.5t29 70.5v66q-41 -58 -127 -58q-74 0 -114.5 47t-40.5 127v283h136v-270q0 -31 16 -49.5t48 -18.5q39 0 61 28t22 74v236z" />
    <glyph glyph-name="uni0446.ss03" horiz-adv-x="556" 
d="M520 115h17v-226h-119v119q-49 15 -64 62q-47 -80 -146 -80q-75 0 -116 47.5t-41 125.5v285h136v-268q0 -69 64 -69q41 0 62.5 28t21.5 73v236h137v-291q0 -22 11 -32t37 -10z" />
    <glyph glyph-name="uni0448.ss03" horiz-adv-x="790" 
d="M597 448h136v-448h-91l-28 70q-21 -34 -57.5 -56.5t-81.5 -22.5q-93 0 -132 76q-47 -76 -137 -76q-75 0 -115 45t-40 122v290h136v-269q0 -32 16 -49.5t44 -17.5q38 0 57.5 28t19.5 70v238h136v-272q0 -28 15.5 -46t43.5 -18q38 0 58 28t20 70v238z" />
    <glyph glyph-name="uni0449.ss03" horiz-adv-x="818" 
d="M785 115h14v-226h-119v120q-45 17 -63 61q-21 -36 -57.5 -57.5t-82.5 -21.5q-96 0 -134 76q-47 -76 -137 -76q-76 0 -115.5 45t-39.5 122v290h136v-271q0 -30 15.5 -47.5t43.5 -17.5q38 0 58 28t20 70v238h136v-272q0 -28 15.5 -46t43.5 -18q38 0 58 28t20 70v238h136
v-289q0 -24 12 -34t40 -10z" />
    <glyph glyph-name="uni044C.ss03" horiz-adv-x="499" 
d="M304 350q80 0 126.5 -47.5t46.5 -130.5q0 -85 -56 -135t-152 -50q-95 0 -150 50t-55 137v274h136v-129q43 31 104 31zM273 93q33 0 52 20.5t19 56.5t-19 55.5t-52 19.5q-36 0 -56 -19.5t-20 -54.5q0 -38 20 -58t56 -20z" />
    <glyph glyph-name="uni044A.ss03" horiz-adv-x="554" 
d="M359 350q79 0 126 -46.5t47 -131.5q0 -87 -56 -136t-152 -49q-95 0 -150 50t-55 136v160h-110v115h246v-128q42 30 104 30zM327 94q32 0 51.5 20t19.5 57q0 35 -19.5 54.5t-51.5 19.5q-33 0 -53 -18.5t-20 -55.5q0 -38 19.5 -57.5t53.5 -19.5z" />
    <glyph glyph-name="uni044B.ss03" horiz-adv-x="723" 
d="M290 350q80 0 126.5 -47.5t46.5 -130.5q0 -85 -56 -135t-152 -50q-95 0 -150 50t-55 137v274h136v-129q43 31 104 31zM530 0v448h137v-448h-137zM259 93q33 0 52 20.5t19 56.5t-19 55.5t-52 19.5q-36 0 -56 -19.5t-20 -54.5q0 -38 20 -58t56 -20z" />
    <glyph glyph-name="zero.sinf" horiz-adv-x="309" 
d="M155 -71q-60 0 -89 44.5t-29 108.5q0 63 29 107.5t89 44.5t88.5 -44.5t28.5 -107.5q0 -64 -28.5 -108.5t-88.5 -44.5zM155 3q39 0 39 79q0 78 -39 78q-40 0 -40 -78q0 -79 40 -79z" />
    <glyph glyph-name="one.sinf" horiz-adv-x="239" 
d="M102 -60v169l-39 -32l-43 49l104 99h55v-285h-77z" />
    <glyph glyph-name="two.sinf" horiz-adv-x="288" 
d="M164 7h90v-67h-212v39l105 117q20 22 20 41q0 27 -28 27q-23 0 -41 -37l-58 30q25 77 105 77q45 0 72 -26.5t27 -64.5q0 -43 -36 -84z" />
    <glyph glyph-name="three.sinf" horiz-adv-x="287" 
d="M143 -72q-64 0 -106 36l38 55q23 -20 58 -20q39 0 39 30q0 27 -38 27h-33v58h26q32 0 32 25q0 24 -29 24q-24 0 -46 -15l-39 50q39 36 99 36q40 0 66 -23t26 -58q0 -22 -11 -39t-28 -24q21 -6 37 -26t16 -46q0 -40 -29 -65t-78 -25z" />
    <glyph glyph-name="four.sinf" horiz-adv-x="299" 
d="M159 -60v42h-127v42l150 201h45v-185h34v-58h-34v-42h-68zM115 40h45v60z" />
    <glyph glyph-name="five.sinf" horiz-adv-x="280" 
d="M134 -71q-57 0 -96 33l37 53q22 -19 50 -19q17 0 28 9.5t11 25.5q0 37 -53 37q-19 0 -46 -8l-6 7l19 156h154v-68h-93l-4 -39q2 0 6 0.5t6 0.5q39 0 67 -23.5t28 -66.5q0 -44 -30 -71t-78 -27z" />
    <glyph glyph-name="six.sinf" horiz-adv-x="289" 
d="M168 114q36 0 60 -23.5t24 -64.5q0 -43 -28 -70t-74 -27q-54 0 -83 34.5t-29 88.5v7q0 74 44.5 121t129.5 47l11 -63q-88 1 -105 -67q19 17 50 17zM149 -11q14 0 22.5 9t8.5 24q0 34 -32 34t-32 -34q0 -14 8.5 -23.5t24.5 -9.5z" />
    <glyph glyph-name="seven.sinf" horiz-adv-x="274" 
d="M54 -60l83 215h-99v68h200v-16l-103 -267h-81z" />
    <glyph glyph-name="eight.sinf" horiz-adv-x="296" 
d="M148 -71q-51 0 -81 24t-30 66q0 47 45 71q-34 21 -34 62q0 38 27.5 60t73.5 22q45 0 71.5 -22t26.5 -59q0 -42 -34 -63q46 -22 46 -71q0 -42 -30 -66t-81 -24zM149 117q11 0 18 8t7 19q0 12 -7 20t-18 8q-12 0 -19.5 -8t-7.5 -20q0 -27 27 -27zM148 -7q16 0 25.5 9.5
t9.5 24.5q0 16 -10 25.5t-25 9.5q-16 0 -25.5 -9.5t-9.5 -25.5q0 -15 9.5 -24.5t25.5 -9.5z" />
    <glyph glyph-name="nine.sinf" horiz-adv-x="289" 
d="M140 234q54 0 82.5 -34.5t28.5 -88.5v-7q0 -74 -44 -121t-130 -47l-10 63q87 -1 104 67q-19 -17 -49 -17q-36 0 -60.5 23.5t-24.5 64.5q0 43 28 70t75 27zM142 107q31 0 31 34q0 33 -32 33t-32 -33q0 -34 33 -34z" />
    <glyph glyph-name="zero.tf" horiz-adv-x="546" 
d="M273 -13q-117 0 -185 93t-68 251t68 250.5t185 92.5t185 -92.5t68 -250.5t-68 -251t-185 -93zM273 112q52 0 78.5 59.5t26.5 159.5t-26.5 159t-78.5 59t-78.5 -59t-26.5 -159q0 -101 26.5 -160t78.5 -59z" />
    <glyph glyph-name="one.tf" horiz-adv-x="546" 
d="M377 124h135v-124h-437v124h155v293q0 39 4 72q-26 -18 -39 -26l-111 -70l-65 108l249 164h109v-541z" />
    <glyph glyph-name="two.tf" horiz-adv-x="546" 
d="M306 125h181v-125h-453v67l243 297q52 65 52 107q0 31 -20.5 50.5t-56.5 19.5q-68 0 -119 -73l-95 73q79 133 230 133q95 0 152 -53.5t57 -132.5q0 -51 -18.5 -96t-67.5 -103l-103 -123q-27 -31 -38 -43q18 2 56 2z" />
    <glyph glyph-name="three.tf" horiz-adv-x="546" 
d="M252 -13q-141 0 -226 79l69 101q58 -55 146 -55q50 0 81.5 24.5t31.5 63.5q0 84 -122 84h-78v114h67q53 0 79.5 23.5t26.5 57.5q0 32 -25.5 52t-65.5 20q-75 0 -131 -59l-66 94q88 88 213 88q96 0 157 -52t61 -133q0 -40 -24 -77.5t-64 -59.5q58 -21 89 -65t31 -102
q0 -88 -70.5 -143t-179.5 -55z" />
    <glyph glyph-name="four.tf" horiz-adv-x="546" 
d="M452 229h68v-115h-68v-114h-136v114h-297v91l335 460h98v-436zM319 228v132q0 52 3 80q-18 -30 -37 -55l-81 -114q-26 -35 -34 -44q20 1 60 1h89z" />
    <glyph glyph-name="five.tf" horiz-adv-x="546" 
d="M257 418q110 0 177.5 -55.5t67.5 -149.5q0 -101 -69 -163.5t-189 -62.5q-133 0 -221 81l68 105q57 -55 137 -55q59 0 92.5 27t33.5 70q0 46 -38 71t-102 25q-57 0 -129 -21l-14 11l42 360h362v-125h-247l-13 -120q30 2 42 2z" />
    <glyph glyph-name="six.tf" horiz-adv-x="546" 
d="M310 415q90 0 149 -54.5t59 -149.5q0 -101 -64 -162.5t-169 -61.5q-122 0 -183 73t-61 194v10q0 180 96 289.5t291 120.5l18 -118q-108 -7 -174 -55t-84 -127q47 41 122 41zM283 112q42 0 69 26t27 68q0 44 -27 68.5t-69 24.5q-44 0 -71 -25t-27 -68q0 -42 27 -68t71 -26
z" />
    <glyph glyph-name="seven.tf" horiz-adv-x="546" 
d="M27 661h485v-60l-243 -601h-150l190 467l30 71q-48 -2 -72 -2h-240v125z" />
    <glyph glyph-name="eight.tf" horiz-adv-x="546" 
d="M273 -13q-114 0 -180.5 53t-66.5 144q0 57 33 101.5t88 61.5q-45 15 -72 53.5t-27 89.5q0 82 62 133t164 51q101 0 162 -51t61 -133q0 -97 -95 -143q52 -19 84.5 -63.5t32.5 -100.5q0 -91 -66 -143.5t-180 -52.5zM274 405q39 0 62 21.5t23 56.5q0 34 -23.5 54.5
t-61.5 20.5q-39 0 -63.5 -20.5t-24.5 -54.5q0 -35 24 -56.5t64 -21.5zM273 110q43 0 71.5 23t28.5 66q0 40 -27.5 65.5t-73.5 25.5q-44 0 -71.5 -26t-27.5 -65q0 -42 28.5 -65.5t71.5 -23.5z" />
    <glyph glyph-name="nine.tf" horiz-adv-x="546" 
d="M259 674q123 0 184 -73t61 -193v-10q0 -180 -96.5 -289.5t-289.5 -121.5l-22 119q110 7 176 55t84 126q-47 -40 -121 -40q-90 0 -149 54.5t-59 149.5q0 100 64 161.5t168 61.5zM262 363q44 0 70.5 25t26.5 68q0 41 -27 67t-70 26q-42 0 -69 -26t-27 -68q0 -43 27 -67.5
t69 -24.5z" />
    <glyph glyph-name="zero.dnom" horiz-adv-x="309" 
d="M155 -11q-60 0 -89 44.5t-29 108.5q0 63 29 107.5t89 44.5t88.5 -44.5t28.5 -107.5q0 -64 -28.5 -108.5t-88.5 -44.5zM155 63q39 0 39 79q0 78 -39 78q-40 0 -40 -78q0 -79 40 -79z" />
    <glyph glyph-name="one.dnom" horiz-adv-x="239" 
d="M102 0v169l-39 -32l-43 49l104 99h55v-285h-77z" />
    <glyph glyph-name="two.dnom" horiz-adv-x="288" 
d="M164 67h90v-67h-212v39l105 117q20 22 20 41q0 27 -28 27q-23 0 -41 -37l-58 30q25 77 105 77q45 0 72 -26.5t27 -64.5q0 -43 -36 -84z" />
    <glyph glyph-name="three.dnom" horiz-adv-x="287" 
d="M143 -12q-64 0 -106 36l38 55q23 -20 58 -20q39 0 39 30q0 27 -38 27h-33v58h26q32 0 32 25q0 24 -29 24q-24 0 -46 -15l-39 50q39 36 99 36q40 0 66 -23t26 -58q0 -22 -11 -39t-28 -24q21 -6 37 -26t16 -46q0 -40 -29 -65t-78 -25z" />
    <glyph glyph-name="four.dnom" horiz-adv-x="299" 
d="M159 0v42h-127v42l150 201h45v-185h34v-58h-34v-42h-68zM115 100h45v60z" />
    <glyph glyph-name="five.dnom" horiz-adv-x="280" 
d="M134 -11q-57 0 -96 33l37 53q22 -19 50 -19q17 0 28 9.5t11 25.5q0 37 -53 37q-19 0 -46 -8l-6 7l19 156h154v-68h-93l-4 -39q2 0 6 0.5t6 0.5q39 0 67 -23.5t28 -66.5q0 -44 -30 -71t-78 -27z" />
    <glyph glyph-name="six.dnom" horiz-adv-x="289" 
d="M168 174q36 0 60 -23.5t24 -64.5q0 -43 -28 -70t-74 -27q-54 0 -83 34.5t-29 88.5v7q0 74 44.5 121t129.5 47l11 -63q-88 1 -105 -67q19 17 50 17zM149 49q14 0 22.5 9t8.5 24q0 34 -32 34t-32 -34q0 -14 8.5 -23.5t24.5 -9.5z" />
    <glyph glyph-name="seven.dnom" horiz-adv-x="274" 
d="M54 0l83 215h-99v68h200v-16l-103 -267h-81z" />
    <glyph glyph-name="eight.dnom" horiz-adv-x="296" 
d="M148 -11q-51 0 -81 24t-30 66q0 47 45 71q-34 21 -34 62q0 38 27.5 60t73.5 22q45 0 71.5 -22t26.5 -59q0 -42 -34 -63q46 -22 46 -71q0 -42 -30 -66t-81 -24zM149 177q11 0 18 8t7 19q0 12 -7 20t-18 8q-12 0 -19.5 -8t-7.5 -20q0 -27 27 -27zM148 53q16 0 25.5 9.5
t9.5 24.5q0 16 -10 25.5t-25 9.5q-16 0 -25.5 -9.5t-9.5 -25.5q0 -15 9.5 -24.5t25.5 -9.5z" />
    <glyph glyph-name="nine.dnom" horiz-adv-x="289" 
d="M140 294q54 0 82.5 -34.5t28.5 -88.5v-7q0 -74 -44 -121t-130 -47l-10 63q87 -1 104 67q-19 -17 -49 -17q-36 0 -60.5 23.5t-24.5 64.5q0 43 28 70t75 27zM142 167q31 0 31 34q0 33 -32 33t-32 -33q0 -34 33 -34z" />
    <glyph glyph-name="zero.numr" horiz-adv-x="309" 
d="M155 386q-60 0 -89 44.5t-29 108.5q0 63 29 107.5t89 44.5t88.5 -44.5t28.5 -107.5q0 -64 -28.5 -108.5t-88.5 -44.5zM155 460q39 0 39 79q0 78 -39 78q-40 0 -40 -78q0 -79 40 -79z" />
    <glyph glyph-name="one.numr" horiz-adv-x="239" 
d="M102 397v169l-39 -32l-43 49l104 99h55v-285h-77z" />
    <glyph glyph-name="two.numr" horiz-adv-x="288" 
d="M164 464h90v-67h-212v39l105 117q20 23 20 41q0 27 -28 27q-23 0 -41 -37l-58 30q25 77 105 77q45 0 72 -26.5t27 -64.5q0 -43 -36 -84z" />
    <glyph glyph-name="three.numr" horiz-adv-x="287" 
d="M143 385q-64 0 -106 36l38 55q23 -20 58 -20q39 0 39 30q0 27 -38 27h-33v58h26q32 0 32 25q0 24 -29 24q-24 0 -46 -15l-39 50q39 36 99 36q40 0 66 -23t26 -58q0 -22 -11 -39t-28 -24q21 -6 37 -26t16 -46q0 -40 -29 -65t-78 -25z" />
    <glyph glyph-name="four.numr" horiz-adv-x="299" 
d="M159 397v42h-127v42l150 201h45v-185h34v-58h-34v-42h-68zM115 497h45v60z" />
    <glyph glyph-name="five.numr" horiz-adv-x="280" 
d="M134 386q-57 0 -96 33l37 53q22 -19 50 -19q17 0 28 9.5t11 25.5q0 37 -53 37q-19 0 -46 -8l-6 7l19 156h154v-68h-93l-4 -39q2 0 6 0.5t6 0.5q39 0 67 -23.5t28 -66.5q0 -44 -30 -71t-78 -27z" />
    <glyph glyph-name="six.numr" horiz-adv-x="289" 
d="M168 580q36 0 60 -23.5t24 -64.5q0 -43 -28 -70t-74 -27q-54 0 -83 34.5t-29 88.5v7q0 74 44.5 121t129.5 47l11 -63q-88 1 -105 -67q19 17 50 17zM149 455q14 0 22.5 9t8.5 24q0 34 -32 34t-32 -34q0 -14 8.5 -23.5t24.5 -9.5z" />
    <glyph glyph-name="seven.numr" horiz-adv-x="274" 
d="M54 397l83 215h-99v68h200v-16l-103 -267h-81z" />
    <glyph glyph-name="eight.numr" horiz-adv-x="296" 
d="M148 386q-51 0 -81 24t-30 66q0 47 45 71q-34 21 -34 62q0 38 27.5 60t73.5 22q45 0 71.5 -22t26.5 -59q0 -42 -34 -63q46 -22 46 -71q0 -42 -30 -66t-81 -24zM149 574q11 0 18 8t7 19q0 12 -7 20t-18 8q-12 0 -19.5 -8t-7.5 -20q0 -27 27 -27zM148 450q16 0 25.5 9.5
t9.5 24.5q0 16 -10 25.5t-25 9.5q-16 0 -25.5 -9.5t-9.5 -25.5q0 -15 9.5 -24.5t25.5 -9.5z" />
    <glyph glyph-name="nine.numr" horiz-adv-x="289" 
d="M140 691q54 0 82.5 -34.5t28.5 -88.5v-7q0 -74 -44 -121t-130 -47l-10 63q87 -1 104 67q-19 -17 -49 -17q-36 0 -60.5 23.5t-24.5 64.5q0 43 28 70t75 27zM142 564q31 0 31 34q0 33 -32 33t-32 -33q0 -34 33 -34z" />
    <glyph glyph-name="zero.sups" horiz-adv-x="309" 
d="M155 386q-60 0 -89 44.5t-29 108.5q0 63 29 107.5t89 44.5t88.5 -44.5t28.5 -107.5q0 -64 -28.5 -108.5t-88.5 -44.5zM155 460q39 0 39 79q0 78 -39 78q-40 0 -40 -78q0 -79 40 -79z" />
    <glyph glyph-name="one.sups" horiz-adv-x="239" 
d="M102 399v169l-39 -32l-43 49l104 99h55v-285h-77z" />
    <glyph glyph-name="two.sups" horiz-adv-x="288" 
d="M164 464h90v-67h-212v39l105 117q20 23 20 41q0 27 -28 27q-23 0 -41 -37l-58 30q25 77 105 77q45 0 72 -26.5t27 -64.5q0 -43 -36 -84z" />
    <glyph glyph-name="three.sups" horiz-adv-x="287" 
d="M143 385q-64 0 -106 36l38 55q23 -20 58 -20q39 0 39 30q0 27 -38 27h-33v58h26q32 0 32 25q0 24 -29 24q-24 0 -46 -15l-39 50q39 36 99 36q40 0 66 -23t26 -58q0 -22 -11 -39t-28 -24q21 -6 37 -26t16 -46q0 -40 -29 -65t-78 -25z" />
    <glyph glyph-name="four.sups" horiz-adv-x="299" 
d="M159 397v42h-127v42l150 201h45v-185h34v-58h-34v-42h-68zM115 497h45v60z" />
    <glyph glyph-name="five.sups" horiz-adv-x="280" 
d="M134 386q-57 0 -96 33l37 53q22 -19 50 -19q17 0 28 9.5t11 25.5q0 37 -53 37q-19 0 -46 -8l-6 7l19 156h154v-68h-93l-4 -39q2 0 6 0.5t6 0.5q39 0 67 -23.5t28 -66.5q0 -44 -30 -71t-78 -27z" />
    <glyph glyph-name="six.sups" horiz-adv-x="289" 
d="M168 577q36 0 60 -23.5t24 -64.5q0 -43 -28 -70t-74 -27q-54 0 -83 34.5t-29 88.5v7q0 74 44.5 121t129.5 47l11 -63q-88 1 -105 -67q19 17 50 17zM149 452q14 0 22.5 9t8.5 24q0 34 -32 34t-32 -34q0 -14 8.5 -23.5t24.5 -9.5z" />
    <glyph glyph-name="seven.sups" horiz-adv-x="274" 
d="M54 397l83 215h-99v68h200v-16l-103 -267h-81z" />
    <glyph glyph-name="eight.sups" horiz-adv-x="296" 
d="M148 386q-51 0 -81 24t-30 66q0 47 45 71q-34 21 -34 62q0 38 27.5 60t73.5 22q45 0 71.5 -22t26.5 -59q0 -42 -34 -63q46 -22 46 -71q0 -42 -30 -66t-81 -24zM149 574q11 0 18 8t7 19q0 12 -7 20t-18 8q-12 0 -19.5 -8t-7.5 -20q0 -27 27 -27zM148 450q16 0 25.5 9.5
t9.5 24.5q0 16 -10 25.5t-25 9.5q-16 0 -25.5 -9.5t-9.5 -25.5q0 -15 9.5 -24.5t25.5 -9.5z" />
    <glyph glyph-name="nine.sups" horiz-adv-x="289" 
d="M140 691q54 0 82.5 -34.5t28.5 -88.5v-7q0 -74 -44 -121t-130 -47l-10 63q87 -1 104 67q-19 -17 -49 -17q-36 0 -60.5 23.5t-24.5 64.5q0 43 28 70t75 27zM142 564q31 0 31 34q0 33 -32 33t-32 -33q0 -34 33 -34z" />
    <glyph glyph-name="colon.case" horiz-adv-x="269" 
d="M134 394q-33 0 -56.5 20.5t-23.5 58.5t23.5 58t56.5 20t57 -20t24 -58t-24 -58.5t-57 -20.5zM134 90q-33 0 -56.5 20.5t-23.5 58.5t23.5 58.5t56.5 20.5t57 -20.5t24 -58.5t-24 -58.5t-57 -20.5z" />
    <glyph glyph-name="parenleft.case" horiz-adv-x="348" 
d="M238 -129q-76 85 -120.5 210.5t-44.5 268.5t44.5 268.5t120.5 210.5l79 -65q-58 -76 -90 -184.5t-32 -229.5t32 -229.5t90 -184.5z" />
    <glyph glyph-name="parenright.case" horiz-adv-x="348" 
d="M110 829q76 -85 120.5 -210.5t44.5 -268.5t-44.5 -268.5t-120.5 -210.5l-79 65q58 76 90 184.5t32 229.5t-32 229.5t-90 184.5z" />
    <glyph glyph-name="braceleft.case" horiz-adv-x="354" 
d="M322 -126q-14 -2 -41 -2q-151 0 -151 148v185q0 48 -19.5 68.5t-65.5 20.5v111q46 0 65.5 20.5t19.5 68.5v186q0 148 149 148q21 0 43 -3v-111q-2 0 -7 0.5t-8 0.5q-30 0 -43 -13.5t-13 -45.5v-185q0 -101 -80 -121q80 -21 80 -121v-185q0 -32 13 -46t43 -14q3 0 8 0.5
t7 0.5v-111z" />
    <glyph glyph-name="braceright.case" horiz-adv-x="354" 
d="M33 -126v111q3 0 7.5 -0.5t6.5 -0.5q30 0 43.5 14t13.5 46v185q0 100 80 121q-80 20 -80 121v185q0 32 -13 45.5t-43 13.5q-3 0 -8 -0.5t-7 -0.5v111q22 3 43 3q149 0 149 -148v-186q0 -48 19 -68.5t65 -20.5v-111q-46 0 -65 -20.5t-19 -68.5v-185q0 -148 -151 -148
q-27 0 -41 2z" />
    <glyph glyph-name="bracketleft.case" horiz-adv-x="314" 
d="M75 -123v946h199v-111h-77v-724h77v-111h-199z" />
    <glyph glyph-name="bracketright.case" horiz-adv-x="314" 
d="M239 -123h-199v111h77v724h-77v111h199v-946z" />
    <glyph glyph-name="hyphen.case" horiz-adv-x="415" 
d="M58 290v118h299v-118h-299z" />
    <glyph glyph-name="endash.case" horiz-adv-x="539" 
d="M58 297v106h422v-106h-422z" />
    <glyph glyph-name="emdash.case" horiz-adv-x="701" 
d="M58 297v106h584v-106h-584z" />
    <glyph glyph-name="guillemotleft.case" horiz-adv-x="506" 
d="M156 146l-129 205l128 203l103 -55l-84 -148l85 -150zM360 146l-129 205l128 203l103 -55l-83 -148l84 -150z" />
    <glyph glyph-name="guillemotright.case" horiz-adv-x="506" 
d="M146 146l-103 55l85 150l-84 148l103 55l128 -203zM351 146l-104 55l85 150l-84 148l104 55l128 -203z" />
    <glyph glyph-name="guilsinglleft.case" horiz-adv-x="302" 
d="M156 146l-129 205l128 203l103 -55l-84 -148l85 -150z" />
    <glyph glyph-name="guilsinglright.case" horiz-adv-x="302" 
d="M146 146l-103 55l85 150l-84 148l103 55l128 -203z" />
    <glyph glyph-name="cent.tf" horiz-adv-x="546" 
d="M474 131q-55 -47 -125 -56v-84h-86v85q-86 13 -139 73t-53 153t52.5 153t139.5 74v84h86v-83q69 -9 121 -55l-51 -95q-38 35 -94 35q-50 0 -82.5 -30.5t-32.5 -82.5q0 -51 33 -82t84 -31q56 0 97 38z" />
    <glyph glyph-name="dollar.tf" horiz-adv-x="546" 
d="M233 -105v94q-113 10 -207 80l70 108q80 -65 178 -65q44 0 70.5 18t26.5 49q0 24 -23 45t-49.5 34t-76.5 34q-175 72 -175 190q0 80 51 129t135 61v99h92v-99q91 -10 175 -66l-58 -109q-76 52 -155 52q-93 0 -93 -61q0 -29 32 -49.5t102 -48.5q44 -17 73 -32.5t58 -39
t43.5 -55.5t14.5 -73q0 -84 -52 -137t-140 -63v-95h-92z" />
    <glyph glyph-name="Euro.tf" horiz-adv-x="546" 
d="M401 118q48 0 89 22l45 -118q-72 -35 -152 -35q-110 0 -186 66.5t-101 176.5h-74v77h63v20q0 19 1 29h-64v76h76q28 109 107 176t189 67q75 0 141 -34l-47 -118q-38 21 -82 21q-53 0 -92.5 -30t-59.5 -82h178l-30 -76h-166q0 -4 -0.5 -14t-0.5 -15q0 -13 1 -20h148
l-31 -77h-102q19 -52 57 -82t93 -30z" />
    <glyph glyph-name="florin.tf" horiz-adv-x="546" 
d="M431 542q-29 0 -48 -20t-23 -58l-6 -64h112l-12 -122h-113l-26 -260q-10 -92 -60 -141.5t-128 -49.5q-68 0 -116 35l51 111q17 -14 43 -14q29 0 47.5 20t22.5 59l24 239l-103 4l10 119h106l8 84q10 92 60.5 141.5t127.5 49.5q74 0 119 -36l-52 -110q-17 13 -44 13z" />
    <glyph glyph-name="uni20BD.tf" horiz-adv-x="546" 
d="M295 253h-62v-53h193v-84h-193v-115h-149v115h-67v84h67v53h-67v107h67v301h212q105 0 168 -60t63 -147q0 -86 -62 -143.5t-170 -57.5zM233 536v-176h48q49 0 73 25.5t24 64.5q0 37 -25.5 61.5t-65.5 24.5h-54z" />
    <glyph glyph-name="sterling.tf" horiz-adv-x="546" 
d="M241 126h288v-125l-453 -1l-33 86q112 71 112 182v15h-91v86h69q-4 8 -14.5 27t-15 29t-9 30t-4.5 41q0 74 60.5 127t156.5 53q122 0 215 -93l-81 -86q-50 53 -114 53q-40 0 -65 -19t-25 -50q0 -21 5.5 -37.5t20 -41.5t18.5 -33h180v-86h-159v-7q0 -81 -61 -150z" />
    <glyph glyph-name="yen.tf" horiz-adv-x="546" 
d="M199 0v146h-150v83h150v53h-150v83h112l-162 296h163l111 -238l112 238h162l-162 -296h112v-83h-149v-53h149v-83h-149v-146h-149z" />
    <glyph glyph-name="uni0308.case" 
d="M-322 750q-31 0 -51.5 21t-20.5 51t20.5 51.5t51.5 21.5t52 -21.5t21 -50.5q0 -30 -20.5 -51.5t-52.5 -21.5zM-121 750q-31 0 -51.5 21.5t-20.5 50.5q0 30 20.5 51.5t51.5 21.5t51.5 -21.5t20.5 -51.5q0 -29 -20.5 -50.5t-51.5 -21.5z" />
    <glyph glyph-name="uni0307.case" 
d="M-126 742q-33 0 -54.5 22.5t-21.5 53.5q0 32 21 54.5t55 22.5q33 0 54.5 -22.5t21.5 -54.5q0 -31 -21.5 -53.5t-54.5 -22.5z" />
    <glyph glyph-name="gravecomb.case" 
d="M-99 737l-182 110l78 90l160 -136z" />
    <glyph glyph-name="acutecomb.case" 
d="M-230 737l-55 64l159 136l78 -90z" />
    <glyph glyph-name="uni030B.case" 
d="M-326 731l-74 44l92 155l90 -53zM-159 731l-72 48l105 151l87 -59z" />
    <glyph glyph-name="uni0302.case" 
d="M-314 731l-50 61l147 115h19l146 -116l-48 -60l-107 65z" />
    <glyph glyph-name="uni030C.case" 
d="M-218 734l-146 115l48 60l107 -65l107 65l49 -60l-146 -115h-19z" />
    <glyph glyph-name="uni0306.case" 
d="M-206 737q-56 0 -99 31.5t-60 92.5l81 30q8 -26 29.5 -41.5t48.5 -15.5t48.5 15.5t28.5 41.5l81 -30q-17 -60 -60 -92t-98 -32z" />
    <glyph glyph-name="uni030A.case" 
d="M-168 718q-54 0 -89.5 31.5t-35.5 83.5t35 83.5t88 31.5q54 0 89 -31.5t35 -83.5t-34.5 -83.5t-87.5 -31.5zM-169 791q19 0 30.5 11.5t11.5 30.5q0 20 -12 31.5t-30 11.5q-19 0 -30.5 -12t-11.5 -31t12 -30.5t30 -11.5z" />
    <glyph glyph-name="tildecomb.case" 
d="M-312 751l-76 42q38 102 106 102q25 0 67 -19q33 -14 44 -14q22 0 39 35l77 -41q-38 -100 -106 -100q-28 0 -57 14q-45 18 -53 18q-24 0 -41 -37z" />
    <glyph glyph-name="uni0304.case" 
d="M-351 794v101h297v-101h-297z" />
    <glyph glyph-name="uni0312.case" 
d="M-195 758q10 118 60 204h88q-25 -85 -25 -204h-123z" />
    <glyph glyph-name="uni0326.case" 
d="M-195 -291q25 85 25 203h123q-10 -119 -60 -203h-88z" />
    <glyph glyph-name="uni0327.case" 
d="M-181 -236q-67 0 -116 29l31 74q31 -21 69 -21q47 0 47 29q0 41 -89 41l33 84h95l-21 -51q37 -5 62.5 -27t25.5 -58q0 -47 -37.5 -73.5t-99.5 -26.5z" />
    <glyph glyph-name="uni0328.case" 
d="M-146 -235q-57 0 -86.5 26t-29.5 70q0 89 111 174l91 -35q-77 -52 -77 -101q0 -27 30 -27q21 0 39 12l27 -89q-45 -30 -105 -30z" />
    <glyph glyph-name="uni0308.narrow" 
d="M-301 530q-28 0 -45.5 18.5t-17.5 46.5t17.5 47.5t45.5 19.5t46 -19.5t18 -47.5q0 -27 -18 -46t-46 -19zM-139 530q-28 0 -46 19t-18 46q0 28 18.5 47.5t45.5 19.5q28 0 46 -19.5t18 -47.5q0 -27 -18 -46t-46 -19z" />
    <glyph glyph-name="uni0304.narrow" 
d="M-319 532v95h234v-95h-234z" />
    <glyph glyph-name="brevecombcy" 
d="M-187 519q-52 0 -93.5 24t-64.5 69l71 52q31 -51 87 -51t87 51l72 -52q-23 -45 -65 -69t-94 -24z" />
    <glyph glyph-name="brevecombcy.case" 
d="M-180 733q-61 0 -110 28.5t-77 80.5l83 55q38 -57 104 -57q67 0 106 58l81 -56q-27 -52 -76 -80.5t-111 -28.5z" />
    </font>
</defs>
</svg>
