<svg width="16" height="24" viewBox="0 0 16 24" fill="none" xmlns="http://www.w3.org/2000/svg">
<g clip-path="url(#clip0_348_36)">
<path d="M7.17783 23.5158C1.12375 13.6421 0 12.6287 0 9C0 4.02942 3.58171 0 8 0C12.4183 0 16 4.02942 16 9C16 12.6287 14.8763 13.6421 8.82217 23.5158C8.42488 24.1614 7.57508 24.1614 7.17783 23.5158ZM8 12.75C9.84096 12.75 11.3333 11.0711 11.3333 9C11.3333 6.92892 9.84096 5.25 8 5.25C6.15904 5.25 4.66667 6.92892 4.66667 9C4.66667 11.0711 6.15904 12.75 8 12.75Z" fill="white"/>
</g>
<defs>
<clipPath id="clip0_348_36">
<rect width="16" height="24" fill="white"/>
</clipPath>
</defs>
</svg>
